<svg width="1280" height="406" viewBox="0 0 1280 406" fill="none" xmlns="http://www.w3.org/2000/svg">
<mask id="path-1-inside-1_220_3948" fill="white">
<path d="M1280 51C1280 37.7451 1269.25 27 1256 27H1060C1053.05 27 1046.7 24.4695 1041.8 20.2799C1031.98 11.873 1021.77 0 1008.85 0H271.153C258.226 0 248.018 11.873 238.198 20.2799C233.304 24.4695 226.948 27 220 27H24C10.7452 27 0 37.7452 0 51V382C0 395.255 10.7452 406 24 406H226C239.255 406 249.654 393.514 259.67 384.833C264.582 380.576 270.99 378 278 378H1002C1009.01 378 1015.42 380.576 1020.33 384.833C1030.35 393.514 1040.75 406 1054 406H1256C1269.25 406 1280 395.255 1280 382V51Z"/>
</mask>
<path d="M278 378V377V377V378ZM1020.33 384.833L1019.67 385.589L1020.33 384.833ZM259.67 384.833L259.015 384.077L259.67 384.833ZM238.198 20.2799L238.848 21.0396L238.198 20.2799ZM1041.8 20.2799L1041.15 21.0396L1041.8 20.2799ZM1256 27V28H1060V27V26H1256V27ZM1060 27V28C1052.8 28 1046.22 25.3784 1041.15 21.0396L1041.8 20.2799L1042.45 19.5203C1047.17 23.5606 1053.3 26 1060 26V27ZM1008.85 0V1H271.153V0V-1H1008.85V0ZM238.198 20.2799L238.848 21.0396C233.78 25.3784 227.195 28 220 28V27V26C226.7 26 232.828 23.5606 237.547 19.5203L238.198 20.2799ZM220 27V28H24V27V26H220V27ZM0 51H1V382H0H-1V51H0ZM24 406V405H226V406V407H24V406ZM259.67 384.833L259.015 384.077C264.102 379.669 270.741 377 278 377V378V379C271.24 379 265.062 381.483 260.325 385.589L259.67 384.833ZM278 378V377H1002V378V379H278V378ZM1002 378V377C1009.26 377 1015.9 379.669 1020.98 384.077L1020.33 384.833L1019.67 385.589C1014.94 381.483 1008.76 379 1002 379V378ZM1054 406V405H1256V406V407H1054V406ZM1280 382H1279V51H1280H1281V382H1280ZM1020.33 384.833L1020.98 384.077C1023.5 386.261 1026.06 388.691 1028.63 391.068C1031.22 393.455 1033.84 395.803 1036.56 397.877C1042 402.032 1047.7 405 1054 405V406V407C1047.05 407 1040.92 403.725 1035.34 399.467C1032.55 397.334 1029.87 394.933 1027.27 392.537C1024.67 390.131 1022.16 387.745 1019.67 385.589L1020.33 384.833ZM226 406V405C232.303 405 238.001 402.032 243.443 397.877C246.158 395.803 248.783 393.455 251.369 391.068C253.944 388.691 256.496 386.261 259.015 384.077L259.67 384.833L260.325 385.589C257.837 387.745 255.333 390.131 252.726 392.537C250.131 394.933 247.45 397.334 244.657 399.467C239.081 403.725 232.951 407 226 407V406ZM0 382H1C1 394.703 11.2975 405 24 405V406V407C10.1929 407 -1 395.807 -1 382H0ZM271.153 0V1C265.005 1 259.434 3.82184 254.108 7.78931C248.737 11.7899 243.858 16.751 238.848 21.0396L238.198 20.2799L237.547 19.5203C242.358 15.4019 247.493 10.2231 252.913 6.18542C258.377 2.11465 264.373 -1 271.153 -1V0ZM1041.8 20.2799L1041.15 21.0396C1036.14 16.751 1031.26 11.7899 1025.89 7.78931C1020.57 3.82184 1015 1 1008.85 1V0V-1C1015.63 -1 1021.62 2.11465 1027.09 6.18542C1032.51 10.2231 1037.64 15.4019 1042.45 19.5203L1041.8 20.2799ZM24 27V28C11.2975 28 1 38.2975 1 51H0H-1C-1 37.1929 10.1929 26 24 26V27ZM1256 406V405C1268.7 405 1279 394.703 1279 382H1280H1281C1281 395.807 1269.81 407 1256 407V406ZM1256 27V26C1269.81 26 1281 37.1929 1281 51H1280H1279C1279 38.2975 1268.7 28 1256 28V27Z" fill="white" fill-opacity="0.1" mask="url(#path-1-inside-1_220_3948)"/>
</svg>
