<svg width="402" height="624" viewBox="0 0 402 624" fill="none" xmlns="http://www.w3.org/2000/svg">
<mask id="path-1-inside-1_223_9862" fill="white">
<path d="M442 42C442 28.7452 431.255 18 418 18H338C336.541 18 335.122 17.8263 333.763 17.4985C320.878 14.3897 309.255 0 296 0H106.125C92.8702 0 81.2471 14.3897 68.362 17.4985C67.0033 17.8263 65.5844 18 64.125 18H-16C-29.2548 18 -40 28.7452 -40 42V600C-40 613.255 -29.2548 624 -16 624H36C49.2548 624 59.654 611.514 69.6703 602.833C74.5819 598.576 80.9901 596 88 596H314C321.01 596 327.418 598.576 332.33 602.833C342.346 611.514 352.745 624 366 624H418C431.255 624 442 613.255 442 600V42Z"/>
</mask>
<path d="M88 596V595V595V596ZM314 596V595V595V596ZM68.362 17.4985L68.1274 16.5264L68.362 17.4985ZM333.763 17.4985L333.998 16.5264L333.763 17.4985ZM418 18V19H338V18V17H418V18ZM338 18V19C336.461 19 334.963 18.8168 333.528 18.4706L333.763 17.4985L333.998 16.5264C335.28 16.8358 336.62 17 338 17V18ZM296 0V1H106.125V0V-1H296V0ZM68.362 17.4985L68.5965 18.4706C67.1616 18.8168 65.664 19 64.125 19V18V17C65.5048 17 66.8449 16.8358 68.1274 16.5264L68.362 17.4985ZM64.125 18V19H-16V18V17H64.125V18ZM-40 42H-39V600H-40H-41V42H-40ZM-16 624V623H36V624V625H-16V624ZM69.6703 602.833L69.0154 602.077C74.1019 597.669 80.7405 595 88 595V596V597C81.2398 597 75.062 599.483 70.3253 603.589L69.6703 602.833ZM88 596V595H314V596V597H88V596ZM314 596V595C321.259 595 327.898 597.669 332.985 602.077L332.33 602.833L331.675 603.589C326.938 599.483 320.76 597 314 597V596ZM366 624V623H418V624V625H366V624ZM442 600H441V42H442H443V600H442ZM332.33 602.833L332.985 602.077C335.504 604.261 338.056 606.691 340.631 609.068C343.217 611.455 345.842 613.803 348.557 615.877C353.999 620.032 359.697 623 366 623V624V625C359.049 625 352.919 621.725 347.344 617.467C344.55 615.334 341.869 612.933 339.274 610.537C336.667 608.131 334.163 605.745 331.675 603.589L332.33 602.833ZM36 624V623C42.3035 623 48.0012 620.032 53.4427 615.877C56.1583 613.803 58.7833 611.455 61.3694 609.068C63.9438 606.691 66.4955 604.261 69.0154 602.077L69.6703 602.833L70.3253 603.589C67.8369 605.745 65.3327 608.131 62.7259 610.537C60.1309 612.933 57.4496 615.334 54.6565 617.467C49.0806 621.725 42.9513 625 36 625V624ZM-40 600H-39C-39 612.703 -28.7025 623 -16 623V624V625C-29.8071 625 -41 613.807 -41 600H-40ZM106.125 0V1C99.8307 1 93.8443 4.42218 87.6473 8.42352C81.5569 12.3561 75.2488 16.8656 68.5965 18.4706L68.362 17.4985L68.1274 16.5264C74.3603 15.0226 80.3063 10.7829 86.5624 6.74335C92.7119 2.77264 99.1645 -1 106.125 -1V0ZM333.763 17.4985L333.528 18.4706C326.876 16.8656 320.568 12.3561 314.478 8.42352C308.281 4.42218 302.294 1 296 1V0V-1C302.961 -1 309.413 2.77264 315.563 6.74335C321.819 10.7829 327.765 15.0226 333.998 16.5264L333.763 17.4985ZM-16 18V19C-28.7026 19 -39 29.2974 -39 42H-40H-41C-41 28.1929 -29.8071 17 -16 17V18ZM418 624V623C430.703 623 441 612.703 441 600H442H443C443 613.807 431.807 625 418 625V624ZM418 18V17C431.807 17 443 28.1929 443 42H442H441C441 29.2974 430.703 19 418 19V18Z" fill="white" fill-opacity="0.1" mask="url(#path-1-inside-1_223_9862)"/>
</svg>
