<svg width="72" height="72" viewBox="0 0 72 72" fill="none" xmlns="http://www.w3.org/2000/svg">
<rect width="72" height="72" rx="36" fill="white"/>
<path d="M38.5 33C38.5 34.3807 37.3807 35.5 36 35.5C34.6193 35.5 33.5 34.3807 33.5 33C33.5 31.6193 34.6193 30.5 36 30.5C37.3807 30.5 38.5 31.6193 38.5 33Z" stroke="#F5344F" stroke-width="2"/>
<path d="M37.2574 41.4936C36.9201 41.8184 36.4693 42 36.0002 42C35.531 42 35.0802 41.8184 34.7429 41.4936C31.6543 38.5008 27.5152 35.1575 29.5337 30.3037C30.6251 27.6793 33.2449 26 36.0002 26C38.7554 26 41.3752 27.6793 42.4666 30.3037C44.4826 35.1514 40.3536 38.5111 37.2574 41.4936Z" stroke="#F5344F" stroke-width="2"/>
<path d="M42 44C42 45.1046 39.3137 46 36 46C32.6863 46 30 45.1046 30 44" stroke="#F5344F" stroke-width="2" stroke-linecap="round"/>
</svg>
