<svg width="72" height="72" viewBox="0 0 72 72" fill="none" xmlns="http://www.w3.org/2000/svg">
<rect width="72" height="72" rx="36" fill="white"/>
<path d="M45.97 42.33C45.97 42.69 45.89 43.06 45.72 43.42C45.55 43.78 45.33 44.12 45.04 44.44C44.55 44.98 44.01 45.37 43.4 45.62C42.8 45.87 42.15 46 41.45 46C40.43 46 39.34 45.76 38.19 45.27C37.04 44.78 35.89 44.12 34.75 43.29C33.6 42.45 32.51 41.52 31.47 40.49C30.44 39.45 29.51 38.36 28.68 37.22C27.86 36.08 27.2 34.94 26.72 33.81C26.24 32.67 26 31.58 26 30.54C26 29.86 26.12 29.21 26.36 28.61C26.6 28 26.98 27.44 27.51 26.94C28.15 26.31 28.85 26 29.59 26C29.87 26 30.15 26.06 30.4 26.18C30.66 26.3 30.89 26.48 31.07 26.74L33.39 30.01C33.57 30.26 33.7 30.49 33.79 30.71C33.88 30.92 33.93 31.13 33.93 31.32C33.93 31.56 33.86 31.8 33.72 32.03C33.59 32.26 33.4 32.5 33.16 32.74L32.4 33.53C32.29 33.64 32.24 33.77 32.24 33.93C32.24 34.01 32.25 34.08 32.27 34.16C32.3 34.24 32.33 34.3 32.35 34.36C32.53 34.69 32.84 35.12 33.28 35.64C33.73 36.16 34.21 36.69 34.73 37.22C35.27 37.75 35.79 38.24 36.32 38.69C36.84 39.13 37.27 39.43 37.61 39.61C37.66 39.63 37.72 39.66 37.79 39.69C37.87 39.72 37.95 39.73 38.04 39.73C38.21 39.73 38.34 39.67 38.45 39.56L39.21 38.81C39.46 38.56 39.7 38.37 39.93 38.25C40.16 38.11 40.39 38.04 40.64 38.04C40.83 38.04 41.03 38.08 41.25 38.17C41.47 38.26 41.7 38.39 41.95 38.56L45.26 40.91C45.52 41.09 45.7 41.3 45.81 41.55C45.91 41.8 45.97 42.05 45.97 42.33Z" stroke="#F5344F" stroke-width="2" stroke-miterlimit="10"/>
<path d="M42.5 33C42.5 32.4 42.03 31.48 41.33 30.73C40.69 30.04 39.84 29.5 39 29.5" stroke="#F5344F" stroke-width="2" stroke-linecap="round" stroke-linejoin="round"/>
<path d="M46 33C46 29.13 42.87 26 39 26" stroke="#F5344F" stroke-width="2" stroke-linecap="round" stroke-linejoin="round"/>
</svg>
