<svg width="20" height="20" viewBox="0 0 20 20" fill="none" xmlns="http://www.w3.org/2000/svg">
<path d="M10.1361 9.05829C10.0527 9.04996 9.95273 9.04996 9.86107 9.05829C7.87773 8.99163 6.30273 7.36663 6.30273 5.36663C6.30273 3.32496 7.95273 1.66663 10.0027 1.66663C12.0444 1.66663 13.7027 3.32496 13.7027 5.36663C13.6944 7.36663 12.1194 8.99163 10.1361 9.05829Z" stroke="#F5344F" stroke-width="1.67" stroke-linecap="round" stroke-linejoin="round"/>
<path d="M5.96563 12.1334C3.94896 13.4834 3.94896 15.6834 5.96563 17.025C8.25729 18.5584 12.0156 18.5584 14.3073 17.025C16.324 15.675 16.324 13.475 14.3073 12.1334C12.024 10.6084 8.26562 10.6084 5.96563 12.1334Z" stroke="#F5344F" stroke-width="1.67" stroke-linecap="round" stroke-linejoin="round"/>
</svg>
