<svg width="18" height="18" viewBox="0 0 18 18" fill="none" xmlns="http://www.w3.org/2000/svg">
<path d="M17.9753 6.80223C17.9162 6.61264 17.761 6.47722 17.5726 6.44626L11.9571 5.61049L9.43013 0.290198C9.34516 0.112209 9.17152 0 8.98311 0C8.79469 0 8.62105 0.112209 8.53608 0.294067L6.04236 5.62984L0.42685 6.5043C0.238435 6.53526 0.0832696 6.67068 0.024159 6.86027C-0.0349515 7.04987 0.0167702 7.25881 0.153463 7.39424L4.2284 11.5305L3.28632 17.3886C3.25307 17.586 3.33066 17.7833 3.48582 17.8994C3.57079 17.9652 3.67424 18 3.77768 18C3.85896 18 3.93654 17.9807 4.01043 17.9381L9.02374 15.1561L14.0518 17.9071C14.1257 17.9458 14.2033 17.9652 14.2809 17.9652C14.5543 17.9652 14.7796 17.7291 14.7796 17.4428C14.7796 17.4003 14.7759 17.3616 14.7649 17.3229L13.7932 11.4996L17.8423 7.34007C17.9864 7.20077 18.0344 6.99183 17.9753 6.80223Z" fill="#F1C43C"/>
</svg>
