<svg width="64" height="64" viewBox="0 0 64 64" fill="none" xmlns="http://www.w3.org/2000/svg">
<rect width="64" height="64" rx="12" fill="#F9F6F3"/>
<path d="M31.9997 43.6654C38.443 43.6654 43.6663 38.442 43.6663 31.9987C43.6663 25.5554 38.443 20.332 31.9997 20.332C25.5564 20.332 20.333 25.5554 20.333 31.9987C20.333 38.442 25.5564 43.6654 31.9997 43.6654Z" stroke="#F5344F" stroke-width="2" stroke-linecap="round" stroke-linejoin="round"/>
<path d="M36.6663 27.332H29.6663C29.0475 27.332 28.454 27.5779 28.0164 28.0154C27.5788 28.453 27.333 29.0465 27.333 29.6654C27.333 30.2842 27.5788 30.8777 28.0164 31.3153C28.454 31.7529 29.0475 31.9987 29.6663 31.9987H34.333C34.9518 31.9987 35.5453 32.2445 35.9829 32.6821C36.4205 33.1197 36.6663 33.7132 36.6663 34.332C36.6663 34.9509 36.4205 35.5444 35.9829 35.9819C35.5453 36.4195 34.9518 36.6654 34.333 36.6654H27.333" stroke="#F5344F" stroke-width="2" stroke-linecap="round" stroke-linejoin="round"/>
<path d="M32 39V25" stroke="#F5344F" stroke-width="2" stroke-linecap="round" stroke-linejoin="round"/>
</svg>
