<svg width="28" height="28" viewBox="0 0 28 28" fill="none" xmlns="http://www.w3.org/2000/svg">
<rect width="28" height="28" rx="14" fill="#F9F6F3"/>
<path d="M12.4659 18C12.2765 18 12.0948 17.9169 11.9609 17.769L9.21806 14.7417C9.14984 14.669 9.09543 14.582 9.05799 14.4858C9.02056 14.3896 9.00085 14.2862 9.00003 14.1815C8.9992 14.0768 9.01728 13.973 9.05319 13.8762C9.08911 13.7793 9.14214 13.6912 9.20921 13.6172C9.27628 13.5432 9.35603 13.4847 9.44381 13.445C9.53159 13.4054 9.62565 13.3854 9.72049 13.3863C9.81533 13.3873 9.90906 13.409 9.99621 13.4503C10.0834 13.4916 10.1622 13.5517 10.2281 13.627L12.4659 16.0969L17.7895 10.2213C17.9242 10.0777 18.1046 9.99823 18.2919 10C18.4792 10.0018 18.6584 10.0847 18.7908 10.2309C18.9232 10.3771 18.9983 10.5748 19 10.7815C19.0016 10.9882 18.9296 11.1873 18.7995 11.336L12.9709 17.769C12.837 17.9169 12.6553 18 12.4659 18Z" fill="#F5344F"/>
</svg>
