<svg width="48" height="48" viewBox="0 0 48 48" fill="none" xmlns="http://www.w3.org/2000/svg">
<rect width="48" height="48" rx="12" fill="white"/>
<path d="M29.0003 24.418V22.3346C29.0003 21.8926 28.8247 21.4687 28.5122 21.1561C28.1996 20.8436 27.7757 20.668 27.3337 20.668C26.8916 20.668 26.4677 20.8436 26.1551 21.1561C25.8426 21.4687 25.667 21.8926 25.667 22.3346V23.5013" stroke="#F5344F" stroke-width="1.66667" stroke-linecap="round" stroke-linejoin="round"/>
<path d="M25.6663 23.1654V21.4987C25.6663 21.0567 25.4907 20.6327 25.1782 20.3202C24.8656 20.0076 24.4417 19.832 23.9997 19.832C23.5576 19.832 23.1337 20.0076 22.8212 20.3202C22.5086 20.6327 22.333 21.0567 22.333 21.4987V23.1654" stroke="#F5344F" stroke-width="1.66667" stroke-linecap="round" stroke-linejoin="round"/>
<path d="M22.3333 22.75V18.1667C22.3333 17.7246 22.1577 17.3007 21.8452 16.9882C21.5326 16.6756 21.1087 16.5 20.6667 16.5C20.2246 16.5 19.8007 16.6756 19.4882 16.9882C19.1756 17.3007 19 17.7246 19 18.1667V25.6667" stroke="#F5344F" stroke-width="1.66667" stroke-linecap="round" stroke-linejoin="round"/>
<path d="M19.8337 26.5013L18.3671 25.0346C18.0505 24.7468 17.6354 24.5917 17.2077 24.6015C16.78 24.6112 16.3724 24.7851 16.0693 25.0871C15.7663 25.3891 15.591 25.7961 15.5797 26.2238C15.5684 26.6514 15.722 27.0671 16.0087 27.3846L19.0087 30.3846C20.2504 31.618 21.6671 32.3346 24.0004 32.3346H25.6671C27.4352 32.3346 29.1309 31.6323 30.3811 30.382C31.6314 29.1318 32.3337 27.4361 32.3337 25.668V19.8346C32.3337 19.3926 32.1581 18.9687 31.8456 18.6561C31.533 18.3436 31.1091 18.168 30.6671 18.168C30.2251 18.168 29.8011 18.3436 29.4886 18.6561C29.176 18.9687 29.0004 19.3926 29.0004 19.8346V24.0013" stroke="#F5344F" stroke-width="1.66667" stroke-linecap="round" stroke-linejoin="round"/>
</svg>
