<svg width="48" height="48" viewBox="0 0 48 48" fill="none" xmlns="http://www.w3.org/2000/svg">
<rect width="48" height="48" rx="12" fill="white"/>
<path d="M24 15.668V32.3346" stroke="#F5344F" stroke-width="1.66667" stroke-linecap="round" stroke-linejoin="round"/>
<path d="M28.1667 18.168H21.9167C21.1431 18.168 20.4013 18.4753 19.8543 19.0222C19.3073 19.5692 19 20.3111 19 21.0846C19 21.8582 19.3073 22.6 19.8543 23.147C20.4013 23.694 21.1431 24.0013 21.9167 24.0013H26.0833C26.8569 24.0013 27.5987 24.3086 28.1457 24.8556C28.6927 25.4026 29 26.1444 29 26.918C29 27.6915 28.6927 28.4334 28.1457 28.9804C27.5987 29.5273 26.8569 29.8346 26.0833 29.8346H19" stroke="#F5344F" stroke-width="1.66667" stroke-linecap="round" stroke-linejoin="round"/>
</svg>
