<svg width="48" height="48" viewBox="0 0 48 48" fill="none" xmlns="http://www.w3.org/2000/svg">
<rect width="48" height="48" rx="12" fill="white"/>
<path d="M27.3337 31.5V29.8333C27.3337 28.9493 26.9825 28.1014 26.3573 27.4763C25.7322 26.8512 24.8844 26.5 24.0003 26.5H19.0003C18.1163 26.5 17.2684 26.8512 16.6433 27.4763C16.0182 28.1014 15.667 28.9493 15.667 29.8333V31.5" stroke="#F5344F" stroke-width="1.66667" stroke-linecap="round" stroke-linejoin="round"/>
<path d="M21.5003 23.1667C23.3413 23.1667 24.8337 21.6743 24.8337 19.8333C24.8337 17.9924 23.3413 16.5 21.5003 16.5C19.6594 16.5 18.167 17.9924 18.167 19.8333C18.167 21.6743 19.6594 23.1667 21.5003 23.1667Z" stroke="#F5344F" stroke-width="1.66667" stroke-linecap="round" stroke-linejoin="round"/>
<path d="M32.333 31.501V29.8344C32.3325 29.0958 32.0866 28.3784 31.6341 27.7946C31.1817 27.2109 30.5481 26.794 29.833 26.6094" stroke="#F5344F" stroke-width="1.66667" stroke-linecap="round" stroke-linejoin="round"/>
<path d="M27.333 16.6094C28.05 16.793 28.6855 17.21 29.1394 17.7946C29.5932 18.3793 29.8395 19.0984 29.8395 19.8385C29.8395 20.5787 29.5932 21.2978 29.1394 21.8824C28.6855 22.4671 28.05 22.8841 27.333 23.0677" stroke="#F5344F" stroke-width="1.66667" stroke-linecap="round" stroke-linejoin="round"/>
</svg>
