<svg width="48" height="48" viewBox="0 0 48 48" fill="none" xmlns="http://www.w3.org/2000/svg">
<rect width="48" height="48" rx="12" fill="white"/>
<path d="M30.6663 24.8331C30.6663 28.9997 27.7497 31.0831 24.283 32.2914C24.1015 32.3529 23.9043 32.35 23.7247 32.2831C20.2497 31.0831 17.333 28.9997 17.333 24.8331V18.9997C17.333 18.7787 17.4208 18.5667 17.5771 18.4105C17.7334 18.2542 17.9453 18.1664 18.1663 18.1664C19.833 18.1664 21.9163 17.1664 23.3663 15.8997C23.5429 15.7489 23.7675 15.666 23.9997 15.666C24.2319 15.666 24.4565 15.7489 24.633 15.8997C26.0913 17.1747 28.1663 18.1664 29.833 18.1664C30.054 18.1664 30.266 18.2542 30.4223 18.4105C30.5785 18.5667 30.6663 18.7787 30.6663 18.9997V24.8331Z" stroke="#F5344F" stroke-width="1.67" stroke-linecap="round" stroke-linejoin="round"/>
<path d="M21.5 23.9997L23.1667 25.6663L26.5 22.333" stroke="#F5344F" stroke-width="1.67" stroke-linecap="round" stroke-linejoin="round"/>
</svg>
