<svg width="48" height="48" viewBox="0 0 48 48" fill="none" xmlns="http://www.w3.org/2000/svg">
<rect width="48" height="48" rx="12" fill="white"/>
<path d="M25.667 28.9987V18.9987C25.667 18.5567 25.4914 18.1327 25.1788 17.8202C24.8663 17.5076 24.4424 17.332 24.0003 17.332H17.3337C16.8916 17.332 16.4677 17.5076 16.1551 17.8202C15.8426 18.1327 15.667 18.5567 15.667 18.9987V28.1654C15.667 28.3864 15.7548 28.5983 15.9111 28.7546C16.0674 28.9109 16.2793 28.9987 16.5003 28.9987H18.167" stroke="#F5344F" stroke-width="1.66667" stroke-linecap="round" stroke-linejoin="round"/>
<path d="M26.5 29H21.5" stroke="#F5344F" stroke-width="1.66667" stroke-linecap="round" stroke-linejoin="round"/>
<path d="M29.8337 29.0013H31.5003C31.7213 29.0013 31.9333 28.9135 32.0896 28.7572C32.2459 28.6009 32.3337 28.389 32.3337 28.168V25.1263C32.3333 24.9372 32.2687 24.7538 32.1503 24.6063L29.2503 20.9813C29.1724 20.8837 29.0735 20.8049 28.961 20.7506C28.8485 20.6964 28.7252 20.6681 28.6003 20.668H25.667" stroke="#F5344F" stroke-width="1.66667" stroke-linecap="round" stroke-linejoin="round"/>
<path d="M28.1667 30.6654C29.0871 30.6654 29.8333 29.9192 29.8333 28.9987C29.8333 28.0782 29.0871 27.332 28.1667 27.332C27.2462 27.332 26.5 28.0782 26.5 28.9987C26.5 29.9192 27.2462 30.6654 28.1667 30.6654Z" stroke="#F5344F" stroke-width="1.66667" stroke-linecap="round" stroke-linejoin="round"/>
<path d="M19.8337 30.6654C20.7541 30.6654 21.5003 29.9192 21.5003 28.9987C21.5003 28.0782 20.7541 27.332 19.8337 27.332C18.9132 27.332 18.167 28.0782 18.167 28.9987C18.167 29.9192 18.9132 30.6654 19.8337 30.6654Z" stroke="#F5344F" stroke-width="1.66667" stroke-linecap="round" stroke-linejoin="round"/>
</svg>
