<svg width="94" height="94" viewBox="0 0 94 94" fill="none" xmlns="http://www.w3.org/2000/svg">
<g clip-path="url(#clip0_821_2972)">
<path d="M70.0901 16.9319C77.6606 22.2757 85.7989 26.3319 90.215 33.0278C94.568 39.7237 95.1358 49.0593 92.9277 57.3004C90.6566 65.5415 85.6096 72.6881 79.6794 78.2251C73.7492 83.8264 66.9989 87.8182 59.5546 90.3936C52.1103 92.9689 44.0351 94.0634 35.0767 93.6127C26.1183 93.0977 16.1506 91.0374 12.4284 84.599C8.70626 78.1607 11.2298 67.4086 8.95861 56.8497C6.75056 46.2908 -0.189036 35.9251 0.252575 26.4607C0.631098 17.0607 8.39083 8.49765 17.6647 3.92642C26.9385 -0.709198 37.7895 -1.41742 46.6848 1.67299C55.5801 4.69902 62.5197 11.5237 70.0901 16.9319Z" fill="#F9F6F3"/>
</g>
<g clip-path="url(#clip1_821_2972)">
<path d="M43.9282 33.9275C44.0562 33.9267 44.1843 33.926 44.3162 33.9252C44.746 33.9234 45.1757 33.9258 45.6054 33.9282C45.9132 33.9278 46.221 33.9271 46.5288 33.9262C47.2784 33.9245 48.028 33.9259 48.7776 33.9285C49.6502 33.9313 50.5228 33.9311 51.3954 33.9308C52.9521 33.9303 54.5087 33.9328 56.0653 33.9368C57.5765 33.9406 59.0877 33.9423 60.5989 33.9416C62.244 33.9408 63.8892 33.9411 65.5343 33.9434C65.6212 33.9435 65.7082 33.9436 65.7978 33.9437C65.9724 33.944 66.147 33.9442 66.3217 33.9445C66.9303 33.9453 67.5389 33.9454 68.1475 33.9452C68.966 33.945 69.7845 33.9468 70.6031 33.9498C70.9042 33.9506 71.2052 33.9509 71.5063 33.9505C71.9159 33.9501 72.3255 33.9518 72.7351 33.9541C72.8555 33.9534 72.9758 33.9528 73.0998 33.9522C73.2091 33.9532 73.3184 33.9543 73.4311 33.9554C73.573 33.9557 73.573 33.9557 73.7177 33.9559C74.0227 34.0115 74.1237 34.1108 74.3129 34.3518C74.4669 34.759 74.4417 34.909 74.2763 35.3186C74.0785 35.6409 74.0785 35.6409 73.8441 35.7581C73.6786 35.769 73.5126 35.7726 73.3468 35.7725C73.2418 35.7727 73.1368 35.773 73.0287 35.7732C72.8546 35.7727 72.8546 35.7727 72.677 35.7722C72.5543 35.7723 72.4316 35.7724 72.3052 35.7725C71.8913 35.7727 71.4775 35.772 71.0636 35.7714C70.768 35.7714 70.4724 35.7714 70.1768 35.7715C69.5391 35.7715 68.9013 35.7711 68.2635 35.7705C67.3414 35.7695 66.4192 35.7692 65.4971 35.7691C64.0011 35.7688 62.5051 35.768 61.0091 35.7669C59.5556 35.7659 58.1021 35.765 56.6487 35.7645C56.5143 35.7645 56.5143 35.7645 56.3773 35.7644C55.9281 35.7643 55.4788 35.7641 55.0296 35.764C51.3011 35.7628 47.5726 35.7607 43.8441 35.7581C43.8441 36.2995 43.8441 36.8409 43.8441 37.3987C57.1473 37.3987 70.4504 37.3987 84.1566 37.3987C84.1566 36.8573 84.1566 36.3159 84.1566 35.7581C83.9852 35.7606 83.8137 35.763 83.637 35.7655C83.001 35.774 82.3651 35.7794 81.7291 35.7838C81.4538 35.7862 81.1784 35.7894 80.9031 35.7935C80.5075 35.7991 80.112 35.8018 79.7163 35.8039C79.5932 35.8063 79.47 35.8087 79.3431 35.8112C78.4932 35.8115 78.4932 35.8115 78.1024 35.5465C77.8706 35.1661 77.8834 34.9049 77.9457 34.469C78.1903 34.1489 78.3298 34.0165 78.7294 33.94C78.9094 33.9389 78.9094 33.9389 79.0931 33.9378C79.2296 33.9359 79.3661 33.9341 79.5067 33.9321C79.6537 33.9327 79.8007 33.9333 79.9521 33.9339C80.1792 33.9328 80.1792 33.9328 80.4109 33.9317C80.7312 33.9305 81.0514 33.931 81.3716 33.9327C81.7812 33.9347 82.1907 33.932 82.6002 33.9279C82.9919 33.9247 83.3836 33.9259 83.7753 33.9266C83.9954 33.9243 83.9954 33.9243 84.22 33.9219C85.2203 33.9326 85.2203 33.9326 85.7137 34.2411C85.9611 34.6664 85.9992 35.0146 85.9923 35.4944C85.9928 35.5806 85.9934 35.6669 85.994 35.7557C85.9944 35.9373 85.9933 36.1189 85.9908 36.3005C85.9877 36.5777 85.9908 36.8543 85.9946 37.1314C85.9942 37.3084 85.9934 37.4854 85.9923 37.6624C85.9935 37.7447 85.9947 37.827 85.9959 37.9118C85.9863 38.3156 85.9146 38.5703 85.7118 38.9203C85.3285 39.1565 85.3285 39.1565 83.8051 39.1565C83.8631 61.6636 83.8631 61.6636 83.9223 84.6253C84.4637 84.896 85.0051 85.1667 85.5629 85.4456C86.6056 86.3036 87.4052 87.4524 87.5478 88.8294C87.5537 88.9904 87.5577 89.1517 87.5551 89.3128C87.688 89.3073 87.821 89.3019 87.9579 89.2963C89.8944 89.2394 89.8944 89.2394 90.4848 89.7815C91.0094 90.3514 91.2993 90.9299 91.3321 91.7087C91.2686 92.4127 91.0262 93.0618 90.4848 93.5315C89.8983 93.9225 89.514 94.0347 88.8078 94.0308C88.7209 94.0312 88.6339 94.0317 88.5444 94.0321C88.2515 94.0333 87.9587 94.0329 87.6658 94.0324C87.4543 94.0329 87.2429 94.0336 87.0314 94.0343C86.4491 94.0359 85.8667 94.0361 85.2844 94.0361C84.6568 94.0363 84.0292 94.0378 83.4016 94.0391C82.0288 94.0418 80.656 94.0427 79.2832 94.0433C78.4263 94.0437 77.5694 94.0445 76.7125 94.0453C74.3408 94.0476 71.9691 94.0496 69.5975 94.0499C69.4456 94.0499 69.2938 94.0499 69.1374 94.05C68.8295 94.05 68.5217 94.05 68.2139 94.0501C68.0611 94.0501 67.9083 94.0501 67.7509 94.0501C67.5979 94.0502 67.4449 94.0502 67.2872 94.0502C64.8076 94.0506 62.328 94.0538 59.8484 94.0582C57.3038 94.0626 54.7591 94.0649 52.2144 94.0649C50.7852 94.065 49.3561 94.066 47.9269 94.0694C46.71 94.0723 45.4932 94.0731 44.2763 94.0714C43.6553 94.0705 43.0343 94.0706 42.4133 94.0733C41.8448 94.0757 41.2764 94.0754 40.7079 94.0729C40.5023 94.0725 40.2966 94.0731 40.0909 94.0748C38.2354 94.0889 38.2354 94.0889 37.5652 93.5822C36.9876 92.9994 36.7238 92.4138 36.6797 91.5929C36.719 90.8866 37.0097 90.2742 37.516 89.7815C38.4056 89.1362 39.394 89.2698 40.4457 89.3128C40.4447 89.2472 40.4436 89.1817 40.4425 89.1141C40.487 87.9111 41.0547 86.803 41.8593 85.9217C42.3035 85.5195 42.7594 85.2618 43.2944 85.0057C43.37 84.9687 43.4457 84.9317 43.5236 84.8936C43.7082 84.8035 43.8933 84.7143 44.0785 84.6253C44.0787 84.4812 44.0789 84.3372 44.079 84.1888C44.081 82.8317 44.086 81.4747 44.094 80.1177C44.098 79.42 44.101 78.7223 44.1014 78.0246C44.1019 77.3514 44.1053 76.6782 44.1106 76.005C44.1121 75.7481 44.1126 75.4912 44.1121 75.2342C44.1115 74.8745 44.1145 74.5149 44.1184 74.1552C44.1174 74.0488 44.1164 73.9425 44.1154 73.8329C44.1249 73.3111 44.1445 73.0906 44.4711 72.6642C44.7816 72.4378 44.7816 72.4378 45.1405 72.3719C45.5594 72.4521 45.6957 72.5723 45.9535 72.9065C46.0591 73.2233 46.0852 73.4027 46.0848 73.7275C46.085 73.8702 46.085 73.8702 46.0853 74.0158C46.0849 74.1197 46.0844 74.2236 46.084 74.3307C46.084 74.4405 46.084 74.5503 46.0841 74.6634C46.084 75.0267 46.0831 75.39 46.0822 75.7534C46.0819 76.0051 46.0818 76.2568 46.0817 76.5085C46.0812 77.1715 46.0801 77.8344 46.0788 78.4973C46.0776 79.1736 46.077 79.8499 46.0764 80.5262C46.0752 81.8535 46.0732 83.1808 46.0707 84.5081C46.1502 84.5148 46.2298 84.5214 46.3117 84.5283C46.4165 84.5378 46.5214 84.5473 46.6294 84.5571C46.7849 84.5707 46.7849 84.5707 46.9436 84.5846C48.0564 84.736 48.9437 85.4568 49.671 86.2586C50.0676 86.6177 50.5133 86.7573 51.0086 86.9429C51.9709 87.3538 52.54 88.1569 52.9848 89.0784C52.9848 89.1558 52.9848 89.2331 52.9848 89.3128C54.7637 89.3128 56.5426 89.3128 58.3754 89.3128C58.3742 88.8976 58.3729 88.4824 58.3717 88.0546C58.3678 86.6831 58.3652 85.3117 58.3633 83.9403C58.362 83.1088 58.3604 82.2772 58.3577 81.4457C58.3551 80.6433 58.3538 79.841 58.3532 79.0386C58.3527 78.7324 58.3519 78.4261 58.3506 78.1199C58.3489 77.6912 58.3487 77.2626 58.3488 76.8339C58.3479 76.7071 58.3471 76.5803 58.3462 76.4497C58.3484 75.6659 58.3603 75.0622 58.9027 74.4519C59.3643 74.0481 59.6949 74.0599 60.2846 74.0577C60.3727 74.0569 60.4607 74.0561 60.5515 74.0553C60.8436 74.053 61.1357 74.0517 61.4278 74.0505C61.5275 74.05 61.6273 74.0495 61.73 74.049C62.2582 74.0466 62.7863 74.0449 63.3144 74.0438C63.8596 74.0425 64.4046 74.0385 64.9497 74.0338C65.3692 74.0308 65.7886 74.0298 66.208 74.0294C66.4089 74.0288 66.6098 74.0274 66.8107 74.0253C67.0924 74.0224 67.3739 74.0225 67.6555 74.0233C67.7794 74.0211 67.7794 74.0211 67.9058 74.0188C68.4921 74.0249 68.8233 74.1784 69.2738 74.5472C69.6078 75.0482 69.6401 75.488 69.6395 76.0801C69.6397 76.2558 69.6397 76.2558 69.64 76.4351C69.6396 76.5623 69.6391 76.6895 69.6387 76.8206C69.6387 76.9555 69.6387 77.0905 69.6388 77.2295C69.6387 77.6753 69.6378 78.121 69.6368 78.5668C69.6366 78.876 69.6365 79.1852 69.6363 79.4944C69.636 80.2248 69.635 80.9552 69.6338 81.6857C69.6325 82.5175 69.6319 83.3492 69.6313 84.181C69.6301 85.8916 69.6279 87.6022 69.6254 89.3128C71.4043 89.3128 73.1832 89.3128 75.016 89.3128C75.0934 89.0808 75.1707 88.8487 75.2504 88.6097C75.8322 87.6427 76.6222 87.0448 77.6601 86.6321C78.0742 86.4606 78.3126 86.2684 78.6122 85.9363C79.2501 85.2482 80.2945 84.6508 81.227 84.5081C81.5004 84.5066 81.7738 84.5065 82.0473 84.5081C82.0458 84.3734 82.0444 84.2386 82.0429 84.0998C81.966 76.9121 81.9185 69.725 81.9186 62.5368C81.9186 62.4177 81.9186 62.4177 81.9186 62.2963C81.9186 59.5708 81.9209 56.8454 81.9228 54.1199C81.9252 49.182 81.9276 44.2441 81.9301 39.1565C70.0578 39.1565 58.1856 39.1565 45.9535 39.1565C45.9919 46.7586 45.9919 46.7586 46.0307 54.3606C46.0381 55.8479 46.0381 55.8479 46.0416 56.5493C46.0439 57.0279 46.0464 57.5065 46.0489 57.9851C46.0502 58.2327 46.0515 58.4804 46.0527 58.728C46.0534 58.85 46.054 58.9719 46.0547 59.0975C46.0577 59.6943 46.0604 60.291 46.0624 60.8878C46.0628 61.0014 46.0632 61.1151 46.0636 61.2322C46.0644 61.4598 46.0652 61.6874 46.0659 61.915C46.0685 62.6214 46.074 63.3277 46.0812 64.0341C46.0857 64.5035 46.0888 64.9728 46.0917 65.4422C46.0934 65.663 46.0957 65.8838 46.0987 66.1045C46.1027 66.4077 46.1046 66.7108 46.1059 67.0139C46.1077 67.1024 46.1094 67.1909 46.1112 67.2821C46.1108 67.8374 46.0161 68.2174 45.7191 68.6878C45.3525 68.8711 45.068 68.8467 44.6645 68.805C44.3773 68.5569 44.2188 68.3535 44.1536 67.9738C44.1364 67.6633 44.1355 67.3562 44.1393 67.0452C44.1389 66.9261 44.1385 66.8069 44.1381 66.6841C44.1374 66.2843 44.1399 65.8845 44.1425 65.4847C44.1426 65.1983 44.1426 64.9118 44.1423 64.6254C44.1422 64.0085 44.1435 63.3917 44.1461 62.7748C44.15 61.8829 44.1512 60.9911 44.1518 60.0992C44.1528 58.6521 44.1559 57.205 44.1603 55.758C44.1647 54.3524 44.168 52.9468 44.17 51.5412C44.1701 51.4545 44.1702 51.3679 44.1703 51.2786C44.1709 50.8439 44.1715 50.4091 44.1721 49.9744C44.177 46.3684 44.1853 42.7625 44.1957 39.1565C44.0902 39.1593 43.9847 39.162 43.8759 39.1648C43.669 39.168 43.669 39.168 43.4579 39.1713C43.2525 39.1754 43.2525 39.1754 43.043 39.1796C42.6723 39.1565 42.6723 39.1565 42.289 38.9203C42.0411 38.4925 42.0016 38.1446 42.0085 37.6624C42.008 37.5762 42.0074 37.49 42.0068 37.4011C42.0064 37.2195 42.0075 37.0379 42.0099 36.8563C42.0131 36.5791 42.01 36.3026 42.0062 36.0254C42.0066 35.8484 42.0074 35.6714 42.0085 35.4944C42.0073 35.4121 42.0061 35.3298 42.0049 35.2451C42.0146 34.8386 42.0723 34.6064 42.3055 34.2714C42.8378 33.8779 43.2819 33.9195 43.9282 33.9275ZM60.2504 75.8362C60.2504 80.2835 60.2504 84.7308 60.2504 89.3128C62.7254 89.3128 65.2004 89.3128 67.7504 89.3128C67.7504 84.8655 67.7504 80.4182 67.7504 75.8362C65.2754 75.8362 62.8004 75.8362 60.2504 75.8362ZM43.1085 87.3133C42.6082 87.9123 42.3552 88.5544 42.2035 89.3128C45.0652 89.3128 47.927 89.3128 50.8754 89.3128C50.2714 88.5578 49.801 88.3622 48.8777 88.2256C48.6488 88.1409 48.6488 88.1409 48.5175 87.9171C48.4835 87.8362 48.4495 87.7554 48.4145 87.6722C47.5368 86.7233 46.822 86.3344 45.5338 86.2558C44.5838 86.2797 43.7916 86.6624 43.1085 87.3133ZM79.7035 87.555C79.6189 87.6565 79.5343 87.758 79.4472 87.8626C79.1147 88.1433 78.9546 88.2037 78.5463 88.3094C77.9437 88.4654 77.5422 88.7346 77.1254 89.1956C77.1254 89.2343 77.1254 89.2729 77.1254 89.3128C79.9871 89.3128 82.8488 89.3128 85.7973 89.3128C85.4095 88.0201 85.0688 87.3295 83.9493 86.6394C82.4236 85.8271 80.8175 86.3531 79.7035 87.555ZM38.5707 91.4222C38.638 91.8828 38.638 91.8828 38.9223 92.2425C39.2905 92.2784 39.2905 92.2784 39.7334 92.2723C39.8183 92.2727 39.9031 92.273 39.9906 92.2734C40.2778 92.2744 40.565 92.2737 40.8522 92.273C41.0591 92.2734 41.2659 92.2738 41.4727 92.2744C42.0434 92.2756 42.614 92.2753 43.1847 92.2748C43.7992 92.2745 44.4138 92.2756 45.0283 92.2765C46.2331 92.278 47.438 92.2782 48.6428 92.2779C49.6216 92.2777 50.6005 92.2779 51.5793 92.2784C51.7184 92.2785 51.8575 92.2785 52.0007 92.2786C52.2832 92.2788 52.5657 92.2789 52.8482 92.279C55.5 92.2803 58.1518 92.2801 60.8036 92.2793C63.232 92.2787 65.6605 92.2801 68.089 92.2823C70.5798 92.2845 73.0705 92.2855 75.5613 92.2851C76.9608 92.2849 78.3603 92.2852 79.7598 92.2868C80.9512 92.2882 82.1425 92.2884 83.3339 92.2869C83.9422 92.2863 84.5506 92.2861 85.1589 92.2875C85.7151 92.2888 86.2713 92.2885 86.8276 92.2868C87.0295 92.2865 87.2313 92.2868 87.4332 92.2877C87.7064 92.2889 87.9794 92.2879 88.2526 92.2864C88.4808 92.2864 88.4808 92.2864 88.7135 92.2864C89.0744 92.2721 89.0744 92.2721 89.3068 92.0827C89.459 91.8867 89.459 91.8867 89.4154 91.5906C89.3312 91.2667 89.3312 91.2667 88.9613 91.0706C88.5827 91.0349 88.5827 91.0349 88.1397 91.0408C88.0552 91.0404 87.9706 91.04 87.8835 91.0396C87.598 91.0387 87.3125 91.0394 87.027 91.04C86.8211 91.0397 86.6152 91.0392 86.4093 91.0387C85.8418 91.0375 85.2743 91.0377 84.7069 91.0382C84.0955 91.0385 83.4842 91.0375 82.8728 91.0366C81.6745 91.0351 80.4761 91.0349 79.2778 91.0352C78.3041 91.0354 77.3305 91.0352 76.3568 91.0347C76.2185 91.0346 76.0801 91.0345 75.9375 91.0345C75.6565 91.0343 75.3754 91.0342 75.0944 91.034C72.4563 91.0328 69.8182 91.033 67.1802 91.0337C64.7647 91.0343 62.3492 91.033 59.9337 91.0308C57.4557 91.0285 54.9778 91.0275 52.4999 91.028C51.1078 91.0282 49.7157 91.0279 48.3236 91.0263C47.1385 91.0249 45.9535 91.0247 44.7684 91.0261C44.1634 91.0268 43.5584 91.0269 42.9533 91.0255C42.4 91.0243 41.8467 91.0246 41.2933 91.0263C41.0926 91.0266 40.8919 91.0263 40.6912 91.0254C40.4194 91.0242 40.1476 91.0252 39.8758 91.0267C39.7245 91.0267 39.5732 91.0267 39.4174 91.0267C39.019 91.073 38.8574 91.1497 38.5707 91.4222Z" fill="#F5344F"/>
<path d="M61.4744 57.7436C61.5992 57.7425 61.7239 57.7414 61.8525 57.7402C62.0528 57.7413 62.0528 57.7413 62.2572 57.7424C62.3954 57.7421 62.5337 57.7417 62.6761 57.7414C62.9681 57.7411 63.26 57.7418 63.552 57.7432C63.9987 57.7451 64.4453 57.7433 64.8921 57.741C65.1759 57.7412 65.4597 57.7417 65.7435 57.7424C65.8771 57.7417 66.0106 57.741 66.1482 57.7402C66.273 57.7413 66.3977 57.7425 66.5263 57.7436C66.6356 57.7439 66.745 57.7442 66.8576 57.7444C67.3592 57.8174 67.6484 58.0111 67.9599 58.407C68.1322 58.7949 68.1465 59.0804 68.1474 59.5046C68.148 59.5803 68.1486 59.656 68.1493 59.734C68.1508 59.983 68.1498 60.2318 68.1486 60.4807C68.1488 60.6545 68.1492 60.8283 68.1496 61.0021C68.1501 61.3658 68.1494 61.7295 68.1477 62.0931C68.1457 62.5585 68.1469 63.0238 68.149 63.4892C68.1503 63.8479 68.1499 64.2066 68.149 64.5653C68.1487 64.7369 68.149 64.9085 68.1498 65.08C68.1507 65.3201 68.1494 65.5601 68.1474 65.8002C68.1471 65.9366 68.1468 66.073 68.1466 66.2136C68.0958 66.6278 68.0077 66.8371 67.7503 67.1641C67.3382 67.4781 67.0397 67.5598 66.5263 67.5611C66.4015 67.5622 66.2768 67.5634 66.1482 67.5645C65.9479 67.5634 65.9479 67.5634 65.7435 67.5623C65.6053 67.5627 65.467 67.563 65.3246 67.5634C65.0326 67.5636 64.7407 67.5629 64.4487 67.5615C64.002 67.5596 63.5554 67.5615 63.1086 67.5637C62.8248 67.5635 62.541 67.563 62.2572 67.5623C62.1236 67.563 61.9901 67.5638 61.8525 67.5645C61.7277 67.5634 61.6029 67.5623 61.4744 67.5611C61.3651 67.5609 61.2557 67.5606 61.143 67.5603C60.6415 67.4873 60.3523 67.2936 60.0408 66.8978C59.8685 66.5099 59.8542 66.2243 59.8533 65.8002C59.8527 65.7245 59.8521 65.6487 59.8514 65.5707C59.8499 65.3218 59.8509 65.0729 59.8521 64.824C59.8519 64.6502 59.8515 64.4764 59.8511 64.3026C59.8506 63.9389 59.8513 63.5753 59.8529 63.2116C59.855 62.7462 59.8538 62.2809 59.8517 61.8155C59.8504 61.4568 59.8508 61.0981 59.8517 60.7394C59.852 60.5678 59.8517 60.3963 59.8509 60.2247C59.85 59.9846 59.8513 59.7446 59.8533 59.5046C59.8536 59.3681 59.8539 59.2317 59.8541 59.0912C59.9049 58.6769 59.993 58.4677 60.2503 58.1406C60.6625 57.8267 60.961 57.7449 61.4744 57.7436ZM61.7738 59.6641C61.7738 61.6363 61.7738 63.6086 61.7738 65.6406C63.2433 65.6406 64.7128 65.6406 66.2269 65.6406C66.2269 63.6684 66.2269 61.6961 66.2269 59.6641C64.7574 59.6641 63.2878 59.6641 61.7738 59.6641Z" fill="#F5344F"/>
<path d="M61.5674 42.7568C61.6871 42.7557 61.8068 42.7546 61.9301 42.7534C62.1222 42.7536 62.1222 42.7536 62.3182 42.7538C62.4509 42.7533 62.5837 42.7528 62.7205 42.7522C63.0009 42.7516 63.2813 42.7515 63.5618 42.752C63.9902 42.7524 64.4186 42.7496 64.8471 42.7467C65.1198 42.7464 65.3926 42.7463 65.6653 42.7464C65.7932 42.7454 65.921 42.7443 66.0527 42.7432C67.215 42.7502 67.215 42.7502 67.7495 43.1406C68.0931 43.6035 68.1462 43.9424 68.1503 44.5134C68.1513 44.5901 68.1523 44.6667 68.1533 44.7457C68.1561 44.9979 68.1562 45.25 68.156 45.5022C68.1569 45.6783 68.1578 45.8545 68.1587 46.0306C68.1603 46.3993 68.1605 46.768 68.1598 47.1367C68.1591 47.6082 68.1627 48.0795 68.1674 48.5509C68.1705 48.9145 68.1708 49.2781 68.1704 49.6418C68.1706 49.8155 68.1717 49.9893 68.1738 50.163C68.1902 51.69 68.1902 51.69 67.8184 52.1514C67.3967 52.4948 67.1977 52.5311 66.6629 52.5382C66.5338 52.5401 66.4047 52.5419 66.2717 52.5439C65.6805 52.5491 65.0892 52.5539 64.4979 52.5566C64.186 52.5582 63.8742 52.5617 63.5623 52.5662C63.1129 52.5726 62.6637 52.5752 62.2143 52.5769C62.0055 52.5809 62.0055 52.5809 61.7925 52.585C60.7127 52.5822 60.7127 52.5822 60.2806 52.2334C59.882 51.7771 59.8822 51.5475 59.8772 50.9483C59.8761 50.8334 59.8761 50.8334 59.8749 50.7161C59.8726 50.462 59.8712 50.208 59.8701 49.9539C59.8696 49.8671 59.8691 49.7803 59.8686 49.6908C59.8662 49.2311 59.8645 48.7713 59.8634 48.3116C59.8621 47.8374 59.8581 47.3633 59.8534 46.8891C59.8503 46.524 59.8494 46.1588 59.8489 45.7937C59.8484 45.6189 59.847 45.4442 59.8448 45.2695C59.842 45.0243 59.8421 44.7793 59.8429 44.5341C59.8422 44.3948 59.8415 44.2555 59.8408 44.112C59.9114 43.6362 60.0569 43.389 60.3667 43.0234C60.7686 42.7981 61.1113 42.7592 61.5674 42.7568ZM61.773 44.664C61.773 46.6749 61.773 48.6859 61.773 50.7578C63.2425 50.7578 64.712 50.7578 66.2261 50.7578C66.2261 48.7468 66.2261 46.7359 66.2261 44.664C64.7566 44.664 63.287 44.664 61.773 44.664Z" fill="#F5344F"/>
<path d="M73.8701 57.7423C74.0082 57.742 74.1463 57.7417 74.2885 57.7413C74.5798 57.7411 74.8711 57.7417 75.1623 57.7432C75.608 57.7451 76.0536 57.7432 76.4993 57.741C76.7826 57.7412 77.0659 57.7416 77.3491 57.7423C77.4823 57.7416 77.6155 57.7409 77.7527 57.7402C77.9393 57.7418 77.9393 57.7418 78.1297 57.7435C78.2386 57.7438 78.3476 57.7441 78.4599 57.7444C78.8428 57.8002 79.0476 57.9008 79.3519 58.1406C79.6722 58.6382 79.7477 59.0254 79.7489 59.6116C79.75 59.7618 79.7511 59.912 79.7523 60.0667C79.7516 60.2291 79.7509 60.3915 79.7501 60.5539C79.7503 60.722 79.7507 60.8901 79.7511 61.0582C79.7516 61.4097 79.7509 61.7611 79.7492 62.1125C79.7472 62.5618 79.7484 63.0109 79.7505 63.4601C79.7518 63.807 79.7514 64.1538 79.7505 64.5007C79.7502 64.6662 79.7505 64.8318 79.7513 64.9974C79.7522 65.2293 79.7506 65.4611 79.7489 65.693C79.7486 65.8246 79.7483 65.9563 79.7481 66.0919C79.6966 66.5171 79.5718 66.7984 79.3519 67.164C78.7239 67.6407 77.9958 67.5664 77.242 67.5623C77.1065 67.5626 76.9711 67.563 76.8315 67.5633C76.5458 67.5635 76.26 67.5629 75.9743 67.5614C75.5371 67.5595 75.1 67.5614 74.6627 67.5637C74.3848 67.5634 74.1069 67.563 73.8289 67.5623C73.6983 67.563 73.5677 67.5637 73.4331 67.5644C73.25 67.5628 73.25 67.5628 73.0633 67.5611C72.9564 67.5608 72.8495 67.5605 72.7393 67.5602C72.2706 67.4908 71.9754 67.2861 71.6422 66.9569C71.4464 66.5959 71.4564 66.3171 71.4567 65.9072C71.4562 65.8291 71.4558 65.7509 71.4554 65.6703C71.4544 65.4126 71.456 65.1549 71.4577 64.8972C71.4578 64.7177 71.4577 64.5382 71.4575 64.3587C71.4576 63.9828 71.4588 63.6069 71.4609 63.231C71.4636 62.7494 71.4636 62.2679 71.4628 61.7864C71.4624 61.4158 71.4632 61.0453 71.4644 60.6747C71.4648 60.4971 71.4649 60.3196 71.4648 60.1421C71.4647 59.8938 71.4662 59.6456 71.4681 59.3974C71.4686 59.2562 71.4692 59.115 71.4697 58.9695C71.4993 58.6213 71.542 58.4281 71.7347 58.1406C72.3819 57.6677 73.103 57.7382 73.8701 57.7423ZM73.2581 59.664C73.2581 61.6363 73.2581 63.6086 73.2581 65.6406C74.7663 65.6406 76.2745 65.6406 77.8284 65.6406C77.8284 63.6683 77.8284 61.6961 77.8284 59.664C76.3202 59.664 74.812 59.664 73.2581 59.664Z" fill="#F5344F"/>
<path d="M49.8707 57.7436C49.995 57.7425 50.1194 57.7414 50.2476 57.7402C50.3808 57.7409 50.5139 57.7417 50.6512 57.7424C50.7891 57.7421 50.9271 57.7417 51.0692 57.7414C51.3607 57.7411 51.6522 57.7418 51.9436 57.7432C52.3891 57.7451 52.8344 57.7433 53.2799 57.741C53.5633 57.7412 53.8467 57.7417 54.1302 57.7424C54.3296 57.7413 54.3296 57.7413 54.5331 57.7402C55.7322 57.7509 55.7322 57.7509 56.2656 58.1406C56.5374 58.5475 56.5317 58.9127 56.5359 59.3937C56.5369 59.4715 56.5379 59.5493 56.5389 59.6295C56.5417 59.8861 56.5427 60.1426 56.5435 60.3993C56.5446 60.5782 56.5456 60.7571 56.5467 60.9361C56.5486 61.311 56.5495 61.6859 56.5499 62.0608C56.5505 62.5403 56.5549 63.0196 56.5603 63.499C56.5638 63.8686 56.5646 64.2382 56.5647 64.6077C56.5652 64.7844 56.5667 64.9612 56.5691 65.1378C56.589 66.6919 56.589 66.6919 56.2249 67.1534C55.7965 67.4912 55.4929 67.5306 54.9636 67.5345C54.7805 67.5362 54.7805 67.5362 54.5938 67.5379C54.396 67.5387 54.396 67.5387 54.1943 67.5394C53.9907 67.5405 53.9907 67.5405 53.7831 67.5415C53.4957 67.5426 53.2084 67.5433 52.921 67.5438C52.482 67.5449 52.043 67.5486 51.604 67.5523C51.3248 67.553 51.0457 67.5536 50.7665 67.5541C50.6354 67.5555 50.5043 67.557 50.3692 67.5585C49.1613 67.555 49.1613 67.555 48.6485 67.1641C48.3438 66.6575 48.2527 66.2808 48.2514 65.6931C48.2503 65.5429 48.2492 65.3927 48.248 65.238C48.2487 65.0756 48.2494 64.9132 48.2502 64.7508C48.25 64.5827 48.2496 64.4146 48.2492 64.2465C48.2487 63.895 48.2494 63.5436 48.2511 63.1921C48.2531 62.7429 48.2519 62.2938 48.2498 61.8446C48.2485 61.4977 48.2489 61.1509 48.2499 60.804C48.2501 60.6384 48.2498 60.4729 48.249 60.3073C48.2481 60.0754 48.2497 59.8435 48.2514 59.6117C48.2517 59.48 48.252 59.3484 48.2523 59.2128C48.32 58.6525 48.4758 58.2767 48.9236 57.9238C49.2652 57.7757 49.4996 57.7445 49.8707 57.7436ZM50.1719 59.6641C50.1719 61.6363 50.1719 63.6086 50.1719 65.6406C51.6801 65.6406 53.1883 65.6406 54.7422 65.6406C54.7422 63.6684 54.7422 61.6961 54.7422 59.6641C53.234 59.6641 51.7258 59.6641 50.1719 59.6641Z" fill="#F5344F"/>
<path d="M72.9556 74.0459C73.0827 74.0448 73.2098 74.0436 73.3408 74.0425C73.4775 74.0426 73.6142 74.0427 73.7551 74.0428C73.8961 74.0423 74.0371 74.0418 74.1824 74.0413C74.4806 74.0406 74.7787 74.0406 75.0769 74.0411C75.5332 74.0414 75.9894 74.0387 76.4456 74.0357C76.7353 74.0355 77.025 74.0354 77.3147 74.0355C77.4512 74.0344 77.5876 74.0333 77.7283 74.0322C77.8558 74.033 77.9832 74.0337 78.1146 74.0344C78.2264 74.0344 78.3382 74.0343 78.4533 74.0342C78.9367 74.1022 79.2454 74.3237 79.5856 74.664C79.7273 75.0625 79.7192 75.4543 79.7217 75.874C79.7228 76.0242 79.724 76.1744 79.7251 76.3292C79.7257 76.4928 79.7262 76.6564 79.7266 76.8201C79.7273 76.9885 79.728 77.1569 79.7287 77.3253C79.7299 77.6782 79.7306 78.0311 79.731 78.3839C79.7316 78.835 79.7344 79.286 79.7378 79.737C79.74 80.0849 79.7406 80.4327 79.7407 80.7806C79.7411 80.9468 79.742 81.113 79.7436 81.2793C79.7456 81.5123 79.7451 81.7453 79.7446 81.9783C79.7452 82.1768 79.7452 82.1768 79.7459 82.3794C79.6963 82.8063 79.5724 83.0864 79.3513 83.4531C78.7266 83.9252 78.0157 83.8535 77.2671 83.8472C77.1342 83.8473 77.0013 83.8473 76.8644 83.8474C76.5842 83.8471 76.304 83.846 76.0237 83.844C75.595 83.8413 75.1664 83.8416 74.7377 83.8424C74.4651 83.8417 74.1925 83.8409 73.9199 83.8399C73.7918 83.84 73.6638 83.8401 73.5318 83.8402C73.4121 83.8391 73.2924 83.838 73.1691 83.8368C73.0643 83.8363 72.9595 83.8357 72.8515 83.8352C72.3535 83.784 72.0635 83.6619 71.7011 83.3126C71.4523 82.9071 71.441 82.6588 71.4409 82.1848C71.4403 82.1068 71.4396 82.0288 71.439 81.9484C71.4375 81.6919 71.4395 81.4355 71.4416 81.1789C71.4415 80.9999 71.4414 80.8208 71.441 80.6418C71.4409 80.267 71.4424 79.8923 71.445 79.5176C71.4484 79.038 71.448 78.5586 71.4465 78.079C71.4457 77.7094 71.4466 77.3399 71.4481 76.9703C71.4486 76.7935 71.4487 76.6167 71.4482 76.4399C71.4479 76.1925 71.4498 75.9452 71.4523 75.6979C71.453 75.5573 71.4536 75.4167 71.4543 75.2719C71.5048 74.8568 71.5942 74.6402 71.8513 74.3124C72.2116 74.0599 72.5223 74.048 72.9556 74.0459ZM73.2575 75.8359C73.2575 77.8468 73.2575 79.8578 73.2575 81.9296C74.7657 81.9296 76.2739 81.9296 77.8278 81.9296C77.8278 79.9187 77.8278 77.9078 77.8278 75.8359C76.3196 75.8359 74.8114 75.8359 73.2575 75.8359Z" fill="#F5344F"/>
<path d="M49.8566 74.0593C49.9837 74.0582 50.1108 74.0571 50.2418 74.0559C50.4478 74.0552 50.4478 74.0552 50.658 74.0544C50.7991 74.0538 50.9403 74.0531 51.0858 74.0524C51.3846 74.0513 51.6835 74.0505 51.9824 74.0501C52.4397 74.0489 52.8969 74.0453 53.3542 74.0416C53.6444 74.0408 53.9346 74.0402 54.2249 74.0398C54.3617 74.0383 54.4986 74.0369 54.6396 74.0354C54.7674 74.0357 54.8953 74.0361 55.027 74.0365C55.1952 74.0358 55.1952 74.0358 55.3668 74.0352C55.7469 74.0875 55.9608 74.1985 56.2656 74.4298C56.5523 74.822 56.5316 75.2078 56.5358 75.6829C56.5368 75.7607 56.5378 75.8385 56.5388 75.9186C56.5416 76.1752 56.5427 76.4318 56.5434 76.6884C56.5445 76.8673 56.5456 77.0463 56.5466 77.2252C56.5486 77.6001 56.5495 77.975 56.5498 78.35C56.5504 78.8294 56.5549 79.3088 56.5602 79.7882C56.5637 80.1578 56.5645 80.5273 56.5647 80.8969C56.5652 81.0736 56.5666 81.2503 56.5691 81.427C56.5889 82.9806 56.5889 82.9806 56.2322 83.4425C55.7729 83.7963 55.4136 83.8193 54.8438 83.8237C54.6643 83.8254 54.6643 83.8254 54.4811 83.8271C54.2881 83.8278 54.2881 83.8278 54.0912 83.8286C53.9583 83.8293 53.8253 83.8299 53.6884 83.8306C53.4073 83.8317 53.1261 83.8325 52.845 83.8329C52.4155 83.8341 51.986 83.8377 51.5566 83.8414C51.2833 83.8422 51.01 83.8428 50.7367 83.8432C50.6085 83.8447 50.4803 83.8461 50.3482 83.8476C49.1646 83.8442 49.1646 83.8442 48.6484 83.4532C48.3427 82.9457 48.2529 82.5694 48.2532 81.9803C48.2525 81.8298 48.2517 81.6792 48.251 81.5241C48.252 81.3613 48.2531 81.1985 48.2542 81.0358C48.2543 80.8674 48.2542 80.699 48.2541 80.5307C48.2541 80.1787 48.2553 79.8268 48.2574 79.4748C48.2601 79.0246 48.2601 78.5743 48.2594 78.1241C48.259 77.7767 48.2597 77.4294 48.2609 77.082C48.2613 76.916 48.2615 76.75 48.2613 76.584C48.2612 76.3519 48.2629 76.1197 48.2646 75.8875C48.2652 75.7556 48.2657 75.6237 48.2663 75.4878C48.3052 75.0352 48.4101 74.6943 48.6997 74.3419C49.0599 74.0537 49.4149 74.0625 49.8566 74.0593ZM50.1718 75.836C50.1718 77.847 50.1718 79.8579 50.1718 81.9298C51.68 81.9298 53.1882 81.9298 54.7421 81.9298C54.7421 79.9188 54.7421 77.9079 54.7421 75.836C53.2339 75.836 51.7257 75.836 50.1718 75.836Z" fill="#F5344F"/>
<path d="M73.1565 42.7568C73.2734 42.7557 73.3904 42.7546 73.5109 42.7534C73.636 42.7535 73.7612 42.7536 73.8901 42.7538C74.02 42.7533 74.1498 42.7528 74.2837 42.7522C74.5581 42.7516 74.8325 42.7515 75.1069 42.752C75.5256 42.7524 75.9442 42.7496 76.3629 42.7467C76.6299 42.7464 76.897 42.7463 77.164 42.7464C77.351 42.7448 77.351 42.7448 77.5418 42.7432C78.2297 42.7474 78.7603 42.7706 79.3512 43.1406C79.6612 43.6453 79.7467 44.0254 79.7464 44.6135C79.7475 44.8393 79.7475 44.8393 79.7486 45.0697C79.7476 45.2325 79.7465 45.3952 79.7453 45.558C79.7453 45.7264 79.7453 45.8948 79.7455 46.0631C79.7455 46.4151 79.7443 46.767 79.7422 47.119C79.7395 47.5692 79.7394 48.0194 79.7402 48.4697C79.7406 48.8171 79.7398 49.1644 79.7387 49.5118C79.7382 49.6777 79.7381 49.8437 79.7383 50.0097C79.7383 50.2419 79.7367 50.4741 79.7349 50.7063C79.7341 50.9041 79.7341 50.9041 79.7333 51.106C79.6907 51.6006 79.5634 51.929 79.2528 52.3142C78.6617 52.6356 78.0722 52.58 77.4103 52.5737C77.2668 52.5739 77.1234 52.574 76.9756 52.5742C76.6726 52.574 76.3696 52.5727 76.0666 52.5702C75.6029 52.5669 75.1393 52.5678 74.6756 52.5694C74.3811 52.5686 74.0866 52.5676 73.7921 52.5664C73.6534 52.5667 73.5147 52.5671 73.3719 52.5674C73.2424 52.5659 73.113 52.5644 72.9796 52.5629C72.8661 52.5623 72.7526 52.5617 72.6356 52.561C72.2552 52.5063 72.0394 52.3957 71.734 52.164C71.4464 51.7712 71.4686 51.3849 71.4656 50.9091C71.4648 50.8311 71.464 50.7531 71.4632 50.6727C71.461 50.4156 71.4605 50.1584 71.4603 49.9013C71.4595 49.7221 71.4587 49.5429 71.4579 49.3636C71.4565 48.9882 71.4561 48.6128 71.4562 48.2374C71.4562 47.7569 71.453 47.2765 71.449 46.796C71.4464 46.4259 71.4459 46.0559 71.446 45.6858C71.4458 45.5087 71.4447 45.3315 71.4429 45.1544C71.4406 44.9064 71.4413 44.6586 71.4427 44.4107C71.4424 44.2697 71.442 44.1288 71.4417 43.9836C71.5123 43.5277 71.638 43.3415 71.9684 43.0234C72.3703 42.809 72.7047 42.7592 73.1565 42.7568ZM73.2574 44.664C73.2574 46.6749 73.2574 48.6859 73.2574 50.7578C74.7656 50.7578 76.2739 50.7578 77.8278 50.7578C77.8278 48.7468 77.8278 46.7359 77.8278 44.664C76.3196 44.664 74.8114 44.664 73.2574 44.664Z" fill="#F5344F"/>
<path d="M50.8316 42.7424C50.9614 42.7421 51.0913 42.7417 51.225 42.7414C51.4985 42.7411 51.7721 42.7418 52.0456 42.7432C52.4635 42.7451 52.8813 42.7433 53.2992 42.741C53.5655 42.7412 53.8319 42.7417 54.0982 42.7424C54.285 42.7413 54.285 42.7413 54.4756 42.7402C55.1158 42.7463 55.6057 42.7614 56.1485 43.1406C56.5346 43.5406 56.5445 43.85 56.5456 44.3956C56.5462 44.4736 56.5468 44.5516 56.5475 44.6319C56.549 44.8891 56.548 45.1462 56.5468 45.4034C56.547 45.5826 56.5474 45.7618 56.5478 45.941C56.5483 46.3164 56.5476 46.6918 56.5459 47.0673C56.5439 47.5478 56.5451 48.0282 56.5472 48.5087C56.5485 48.8787 56.5481 49.2488 56.5471 49.6189C56.5469 49.796 56.5472 49.9731 56.548 50.1502C56.5489 50.3982 56.5475 50.646 56.5456 50.894C56.5453 51.0349 56.545 51.1758 56.5447 51.3211C56.4951 51.7371 56.4063 51.9531 56.1485 52.2813C55.7867 52.5351 55.4705 52.5468 55.0353 52.5516C54.9062 52.5534 54.7771 52.5553 54.6442 52.5572C54.5052 52.5579 54.3663 52.5585 54.2232 52.5591C54.0798 52.5602 53.9365 52.5612 53.7888 52.5623C53.4856 52.564 53.1824 52.5651 52.8792 52.5655C52.4157 52.5669 51.9524 52.5727 51.489 52.5786C51.1943 52.5797 50.8997 52.5805 50.605 52.5811C50.4666 52.5834 50.3281 52.5857 50.1855 52.588C49.1121 52.5822 49.1121 52.5822 48.6801 52.2479C48.2666 51.7531 48.2819 51.3534 48.2781 50.7197C48.277 50.5695 48.2758 50.4193 48.2747 50.2645C48.2741 50.1009 48.2736 49.9373 48.2732 49.7736C48.2725 49.6052 48.2718 49.4368 48.2711 49.2684C48.2699 48.9155 48.2692 48.5627 48.2688 48.2098C48.2682 47.7588 48.2654 47.3077 48.262 46.8567C48.2598 46.5089 48.2592 46.161 48.2591 45.8131C48.2587 45.6469 48.2578 45.4807 48.2562 45.3145C48.2542 45.0814 48.2547 44.8484 48.2552 44.6154C48.2548 44.483 48.2543 44.3507 48.2539 44.2143C48.3037 43.786 48.4233 43.5069 48.6485 43.1406C49.3407 42.7081 50.0334 42.7378 50.8316 42.7424ZM50.172 44.6641C50.172 46.675 50.172 48.686 50.172 50.7578C51.6802 50.7578 53.1884 50.7578 54.7423 50.7578C54.7423 48.7469 54.7423 46.736 54.7423 44.6641C53.2341 44.6641 51.7259 44.6641 50.172 44.6641Z" fill="#F5344F"/>
<path d="M66.695 80.9926C66.9436 81.1569 66.9436 81.1569 67.1638 81.4613C67.2377 81.8697 67.2345 82.2704 67.2297 82.6845C67.2325 82.7948 67.2353 82.9052 67.2382 83.0189C67.237 83.5676 67.2243 83.8395 66.8932 84.2926C66.5778 84.5082 66.5778 84.5082 66.153 84.5082C65.6214 84.3507 65.6214 84.3507 65.406 84.0394C65.2573 83.5934 65.2626 83.1712 65.2595 82.7064C65.2571 82.6179 65.2546 82.5294 65.2522 82.4382C65.2484 81.8962 65.2939 81.5525 65.6403 81.1098C66.012 80.8372 66.2647 80.842 66.695 80.9926Z" fill="#F5344F"/>
</g>
<defs>
<clipPath id="clip0_821_2972">
<rect width="94" height="94" fill="white"/>
</clipPath>
<clipPath id="clip1_821_2972">
<rect width="60" height="60" fill="white" transform="translate(34 34)"/>
</clipPath>
</defs>
</svg>
