<svg width="94" height="94" viewBox="0 0 94 94" fill="none" xmlns="http://www.w3.org/2000/svg">
<g clip-path="url(#clip0_220_3534)">
<path d="M70.0901 16.9319C77.6606 22.2757 85.7989 26.3319 90.215 33.0278C94.568 39.7237 95.1358 49.0593 92.9277 57.3004C90.6566 65.5415 85.6096 72.6881 79.6794 78.2251C73.7492 83.8264 66.9989 87.8182 59.5546 90.3935C52.1103 92.9689 44.0351 94.0634 35.0767 93.6127C26.1183 93.0976 16.1506 91.0374 12.4284 84.599C8.70626 78.1607 11.2298 67.4086 8.95861 56.8497C6.75056 46.2908 -0.189036 35.925 0.252575 26.4607C0.631098 17.0607 8.39083 8.49765 17.6647 3.92642C26.9385 -0.709197 37.7895 -1.41742 46.6848 1.67299C55.5801 4.69902 62.5197 11.5237 70.0901 16.9319Z" fill="#F9F6F3"/>
</g>
<g clip-path="url(#clip1_220_3534)">
<path d="M64.1045 37.7331C64.24 37.781 64.3754 37.829 64.515 37.8783C64.808 37.9823 65.1008 38.0868 65.3932 38.1923C65.8596 38.3607 66.3268 38.5268 66.7942 38.6926C67.2826 38.866 67.771 39.0395 68.2591 39.2139C69.3744 39.6123 70.4912 40.0061 71.6095 40.3959C71.685 40.4222 71.7604 40.4485 71.8381 40.4756C72.1397 40.5807 72.4412 40.6858 72.7428 40.7909C73.6863 41.1196 74.6291 41.4506 75.5718 41.7816C76.2197 42.0091 76.8678 42.2363 77.5162 42.4624C78.0683 42.6548 78.62 42.8485 79.1713 43.0434C79.3666 43.1121 79.5621 43.1805 79.7578 43.2483C80.0207 43.3395 80.2829 43.4323 80.5451 43.5256C80.6893 43.5763 80.8336 43.6269 80.9822 43.679C81.3626 43.8525 81.5496 43.9907 81.8122 44.3125C81.8685 44.6091 81.8685 44.6091 81.8654 44.9467C81.8653 45.1366 81.8653 45.1366 81.8653 45.3305C81.8629 45.4665 81.8604 45.6025 81.8579 45.7426C81.8573 45.8824 81.8566 46.0222 81.8559 46.1662C81.8533 46.6128 81.8474 47.0593 81.8415 47.5059C81.8391 47.8086 81.837 48.1114 81.8351 48.4141C81.8299 49.1563 81.822 49.8985 81.8122 50.6407C81.8752 50.6605 81.9382 50.6803 82.0032 50.7007C82.6856 50.921 83.34 51.1829 83.9962 51.4715C84.0996 51.5167 84.2031 51.5619 84.3098 51.6085C84.5268 51.7035 84.7437 51.7987 84.9606 51.8942C85.2911 52.0396 85.6222 52.1837 85.9533 52.3277C86.1652 52.4207 86.3771 52.5137 86.5889 52.6068C86.6871 52.6494 86.7853 52.692 86.8864 52.7359C87.7002 53.0962 88.3251 53.454 88.88 54.1709C89.2269 54.609 89.5794 55.0332 89.9567 55.4453C90.416 55.9492 90.8464 56.4718 91.2751 57.0017C91.5311 57.3111 91.7956 57.6095 92.0661 57.9063C92.6175 58.5119 93.1382 59.1404 93.6481 59.7813C93.715 59.8613 93.7819 59.9414 93.8509 60.0239C94.0179 60.2777 94.0504 60.4176 94.0509 60.7188C94.0532 60.7961 94.0555 60.8735 94.0578 60.9532C93.9724 61.2976 93.7982 61.4238 93.5309 61.6563C93.2582 61.8048 92.9921 61.9384 92.7102 62.066C92.5909 62.1214 92.5909 62.1214 92.4692 62.178C92.2156 62.2956 91.9614 62.4117 91.7072 62.5279C91.5395 62.6054 91.3719 62.683 91.2043 62.7606C90.5063 63.0836 89.8064 63.4026 89.1062 63.7208C88.9909 63.7732 88.8756 63.8256 88.7569 63.8796C88.6694 63.9193 88.582 63.9591 88.4919 64C88.4916 64.1153 88.4916 64.1153 88.4913 64.233C88.487 66.103 88.4801 67.973 88.4703 69.843C88.4656 70.7473 88.4618 71.6516 88.4601 72.556C88.4586 73.3441 88.4554 74.1323 88.4503 74.9204C88.4476 75.3378 88.4458 75.7552 88.4459 76.1725C88.446 76.6383 88.4425 77.1041 88.4386 77.5699C88.4392 77.7084 88.4398 77.847 88.4404 77.9898C88.438 78.1801 88.438 78.1801 88.4355 78.3742C88.4351 78.4844 88.4346 78.5946 88.4342 78.7081C88.3569 79.0872 88.1991 79.2247 87.9059 79.4688C87.6675 79.6144 87.6675 79.6144 87.4114 79.7382C87.3145 79.7857 87.2175 79.8331 87.1176 79.882C87.0133 79.9319 86.9089 79.9818 86.8013 80.0332C86.6377 80.1128 86.6377 80.1128 86.4707 80.1941C86.117 80.3659 85.7627 80.5362 85.4084 80.7066C85.1651 80.8244 84.922 80.9422 84.6788 81.0601C83.9973 81.3903 83.315 81.7188 82.6325 82.0469C82.4775 82.1215 82.3225 82.1962 82.1675 82.2708C81.5266 82.5791 80.885 82.8855 80.2426 83.1906C79.6567 83.4695 79.0719 83.7508 78.487 84.0318C78.2407 84.15 77.9944 84.2683 77.7481 84.3865C77.6258 84.4453 77.5035 84.504 77.3775 84.5646C76.7659 84.8582 76.1543 85.1518 75.5426 85.4454C75.2985 85.5625 75.0544 85.6797 74.8102 85.7969C74.3219 86.0313 73.8337 86.2657 73.3454 86.5C73.2246 86.558 73.1038 86.616 72.9794 86.6757C72.7346 86.7932 72.4898 86.9107 72.2449 87.0282C71.6446 87.3162 71.0443 87.6046 70.4445 87.8939C69.8411 88.1849 69.2368 88.4738 68.6322 88.7624C68.2503 88.9457 67.8693 89.1307 67.4884 89.3163C67.1493 89.4811 66.8095 89.6442 66.4695 89.8071C66.3041 89.8868 66.139 89.967 65.9742 90.048C65.7427 90.1616 65.5101 90.2729 65.2773 90.3837C65.1437 90.4484 65.0102 90.5131 64.8726 90.5797C64.2606 90.7903 63.7794 90.8049 63.1553 90.5886C63.035 90.5281 62.9147 90.4676 62.7907 90.4052C62.586 90.3041 62.586 90.3041 62.3772 90.201C62.232 90.127 62.0868 90.053 61.9416 89.979C61.7896 89.9033 61.6375 89.8278 61.4853 89.7525C61.1784 89.6004 60.8719 89.4476 60.5657 89.2941C59.9662 88.9942 59.3611 88.7064 58.7555 88.419C58.5373 88.3148 58.3191 88.2106 58.1009 88.1063C57.9927 88.0546 57.8844 88.0029 57.7728 87.9496C56.8071 87.4878 55.8424 87.0239 54.8775 86.5605C54.2659 86.2668 53.6543 85.9733 53.0426 85.6797C52.7985 85.5625 52.5544 85.4454 52.3102 85.3282C52.1289 85.2411 52.1289 85.2411 51.944 85.1524C49.6247 84.0391 47.3053 82.9258 44.986 81.8125C44.8649 81.7544 44.7439 81.6964 44.6191 81.6365C44.3771 81.5203 44.1352 81.404 43.8933 81.2875C43.2508 80.9784 42.6071 80.672 41.9616 80.3692C41.8267 80.3055 41.6918 80.2419 41.5528 80.1763C41.293 80.0537 41.0328 79.9319 40.7723 79.811C40.5978 79.7284 40.5978 79.7284 40.4198 79.6441C40.2655 79.5719 40.2655 79.5719 40.1081 79.4983C39.859 79.3516 39.859 79.3516 39.6247 79C39.594 78.7225 39.594 78.7225 39.592 78.3883C39.5907 78.2616 39.5894 78.1349 39.5881 78.0044C39.5878 77.8654 39.5876 77.7264 39.5873 77.5832C39.5861 77.4368 39.585 77.2905 39.5837 77.1397C39.5807 76.7383 39.5788 76.3369 39.5772 75.9355C39.5754 75.516 39.5723 75.0965 39.5693 74.6771C39.5638 73.8827 39.5595 73.0883 39.5556 72.294C39.5511 71.3896 39.5453 70.4853 39.5394 69.581C39.5273 67.7207 39.5169 65.8604 39.5075 64C39.3942 63.9469 39.2808 63.8938 39.164 63.8391C38.7368 63.6388 38.3096 63.4382 37.8824 63.2376C37.6988 63.1514 37.5152 63.0652 37.3315 62.9792C36.7278 62.6962 36.1249 62.4119 35.5231 62.125C35.4111 62.0717 35.4111 62.0717 35.2968 62.0172C35.0966 61.9213 34.8969 61.8241 34.6973 61.7268C34.5317 61.6463 34.5317 61.6463 34.3628 61.5641C34.1169 61.4219 34.1169 61.4219 33.9997 61.1875C33.907 60.6779 33.9005 60.4064 34.1814 59.9635C34.4089 59.6849 34.6428 59.4144 34.8849 59.1484C35.1287 58.8787 35.3649 58.6026 35.602 58.327C35.7966 58.1011 35.9923 57.8761 36.1882 57.6513C36.5547 57.2304 36.9182 56.807 37.2809 56.3828C37.7854 55.7937 38.2904 55.205 38.797 54.6177C38.8593 54.5451 38.9217 54.4725 38.9859 54.3978C39.0455 54.3288 39.1051 54.2598 39.1665 54.1888C39.2183 54.1287 39.2701 54.0685 39.3234 54.0066C39.4145 53.9067 39.4145 53.9067 39.5075 53.8047C39.5873 53.7113 39.6671 53.618 39.7493 53.5218C40.2077 53.1182 40.6947 52.9124 41.2529 52.6745C41.4195 52.6016 41.4195 52.6016 41.5894 52.5273C41.9422 52.3732 42.2959 52.221 42.6496 52.0689C42.8897 51.9644 43.1298 51.8598 43.3699 51.7551C43.9568 51.4993 44.5444 51.2452 45.1325 50.9922C45.1329 50.9096 45.1333 50.8269 45.1338 50.7418C45.1382 49.9624 45.1449 49.1831 45.154 48.4037C45.1587 48.0031 45.1624 47.6025 45.1642 47.2018C45.1664 46.741 45.1722 46.2803 45.1783 45.8195C45.1784 45.6758 45.1785 45.5321 45.1787 45.3841C45.181 45.2504 45.1833 45.1167 45.1857 44.9789C45.1873 44.8025 45.1873 44.8025 45.1889 44.6225C45.2663 44.2276 45.4088 44.0934 45.7184 43.8438C45.9878 43.7085 46.2475 43.5907 46.5264 43.4794C46.6068 43.4462 46.6872 43.413 46.7701 43.3788C47.0368 43.269 47.3041 43.1609 47.5714 43.0528C47.7616 42.9749 47.9516 42.8969 48.1417 42.8187C48.5401 42.6552 48.9389 42.4923 49.3379 42.33C49.907 42.0985 50.4754 41.8654 51.0436 41.6319C51.5992 41.4035 52.1549 41.1753 52.7109 40.9477C53.7857 40.5077 54.8597 40.066 55.933 39.6223C56.0534 39.5725 56.1739 39.5227 56.298 39.4714C56.9946 39.1834 57.6911 38.895 58.3875 38.6066C58.6999 38.4775 59.0127 38.3492 59.3254 38.221C59.6881 38.0721 60.049 37.9198 60.4085 37.7634C60.5262 37.7134 60.5262 37.7134 60.6462 37.6624C60.8503 37.5756 61.0537 37.4872 61.257 37.3985C62.2918 37.0944 63.1173 37.3727 64.1045 37.7331ZM58.0142 40.9197C57.516 41.1662 57.0072 41.3907 56.4997 41.6172C56.8518 41.903 57.1975 42.0851 57.6143 42.2622C57.7466 42.3189 57.8789 42.3756 58.0151 42.434C58.122 42.4793 58.122 42.4793 58.2311 42.5256C58.6265 42.6933 59.021 42.8631 59.4156 43.0326C59.5008 43.0691 59.5859 43.1056 59.6736 43.1432C60.4274 43.4667 61.1789 43.7953 61.9293 44.1266C62.4359 44.3502 62.9432 44.5717 63.4524 44.7892C64.462 45.2224 65.443 45.6751 66.4071 46.2026C67.9315 47.0167 69.2597 47.7202 71.0042 47.2506C71.8365 46.9956 72.6333 46.6538 73.4273 46.2996C74.2166 45.9519 75.0359 45.6911 75.8544 45.4217C76.2519 45.2897 76.6473 45.1519 77.0427 45.0138C77.1722 44.9688 77.3017 44.9237 77.4352 44.8773C77.5715 44.8298 77.5715 44.8298 77.7106 44.7813C77.3983 44.5731 77.1665 44.4669 76.8167 44.3475C76.7057 44.3093 76.5946 44.2711 76.4802 44.2318C76.3589 44.1906 76.2375 44.1494 76.1126 44.107C75.9852 44.0633 75.8579 44.0196 75.7267 43.9746C75.451 43.88 75.1751 43.7856 74.8992 43.6914C74.165 43.4407 73.4313 43.1884 72.6976 42.936C72.6229 42.9104 72.5483 42.8847 72.4713 42.8582C71.1814 42.4147 69.8946 41.9627 68.6098 41.5044C68.1366 41.3357 67.6625 41.1698 67.1875 41.0061C66.2335 40.6759 65.298 40.3476 64.3883 39.9079C62.0051 38.8049 60.2104 39.818 58.0142 40.9197ZM52.5171 43.191C52.4168 43.2321 52.3165 43.2731 52.2131 43.3154C52.0017 43.4022 51.7905 43.4895 51.5796 43.5773C51.2556 43.7119 50.9308 43.8446 50.606 43.977C50.4007 44.0616 50.1955 44.1462 49.9903 44.2311C49.8927 44.2709 49.7952 44.3107 49.6947 44.3517C49.2033 44.5228 49.2033 44.5228 48.8825 44.8985C50.6779 45.7 52.4738 46.5003 54.2754 47.288C54.371 47.3299 54.4666 47.3718 54.5651 47.4149C55.0463 47.6254 55.5284 47.8335 56.0124 48.0376C56.8981 48.4132 57.7548 48.7989 58.5889 49.2793C60.0056 50.0714 61.0359 50.4482 62.6227 50.0029C63.5405 49.7197 64.4277 49.3628 65.3065 48.977C65.6135 48.8436 65.9241 48.7199 66.2354 48.5967C66.3259 48.5607 66.4164 48.5247 66.5097 48.4875C66.5708 48.4633 66.632 48.4391 66.695 48.4141C66.3428 48.1283 65.9971 47.9462 65.5803 47.7691C65.448 47.7124 65.3157 47.6557 65.1794 47.5972C65.0725 47.5519 65.0725 47.5519 64.9634 47.5057C64.5688 47.3383 64.1751 47.1688 63.7813 46.9996C63.6538 46.9449 63.6538 46.9449 63.5237 46.8892C62.5565 46.4741 61.5931 46.0504 60.6296 45.6266C60.3229 45.4917 60.0161 45.3571 59.7093 45.2226C58.8245 44.8345 57.9399 44.4457 57.0577 44.0515C56.7094 43.896 56.3607 43.7412 56.0119 43.5865C55.8504 43.5146 55.6891 43.4423 55.5279 43.3696C55.3072 43.27 55.0859 43.1718 54.8645 43.0738C54.7411 43.0185 54.6176 42.9632 54.4904 42.9062C53.7384 42.6429 53.22 42.8979 52.5171 43.191ZM78.8371 46.4672C78.7465 46.4974 78.6558 46.5276 78.5625 46.5587C78.2683 46.6569 77.9744 46.7554 77.6804 46.854C77.4991 46.9146 77.3179 46.9751 77.1366 47.0355C76.4636 47.2603 75.7907 47.4857 75.1178 47.711C72.8628 48.4651 72.8628 48.4651 70.5622 49.2344C70.5622 52.7149 70.5622 56.1953 70.5622 59.7813C71.2766 59.5669 71.9358 59.3636 72.6201 59.0886C72.7016 59.056 72.783 59.0235 72.8669 58.9899C73.1258 58.8863 73.3844 58.782 73.6429 58.6776C73.8046 58.6128 73.9663 58.548 74.128 58.4832C74.7218 58.2451 75.3153 58.0061 75.9089 57.7671C77.2382 57.233 78.5675 56.6988 79.9372 56.1485C79.9372 52.8614 79.9372 49.5743 79.9372 46.1875C79.5518 46.1875 79.1993 46.3453 78.8371 46.4672ZM47.2419 46.4219C47.2419 49.5157 47.2419 52.6094 47.2419 55.7969C49.0562 56.524 49.0562 56.524 50.8708 57.2508C51.6129 57.5479 52.355 57.8451 53.097 58.1425C53.6964 58.3828 54.2959 58.6229 54.8955 58.8628C55.1221 58.9536 55.3487 59.0444 55.5753 59.1352C55.8972 59.2643 56.2192 59.3932 56.5412 59.522C56.6758 59.5761 56.6758 59.5761 56.8132 59.6313C57.9533 60.0865 59.102 60.516 60.2497 60.9532C60.2497 58.0141 60.2497 55.075 60.2497 52.0469C59.0719 51.4563 59.0719 51.4563 57.8753 50.9135C57.7888 50.876 57.7024 50.8385 57.6133 50.7998C57.4284 50.7196 57.2435 50.6396 57.0584 50.5598C56.6604 50.388 56.2628 50.2154 55.8652 50.0428C55.6559 49.952 55.4466 49.8612 55.2373 49.7704C54.0573 49.2586 52.8798 48.7413 51.7023 48.2237C51.5048 48.1369 51.3074 48.0501 51.1099 47.9633C51.0151 47.9217 50.9204 47.88 50.8228 47.8371C50.6379 47.7559 50.4529 47.6747 50.2679 47.5936C49.8195 47.397 49.3717 47.1992 48.925 46.9988C48.7956 46.9411 48.7956 46.9411 48.6635 46.8823C48.5012 46.8099 48.3391 46.737 48.1772 46.6636C47.8431 46.5152 47.612 46.4219 47.2419 46.4219ZM67.8453 50.1312C67.7168 50.174 67.5884 50.2168 67.456 50.2609C67.2529 50.3293 67.2529 50.3293 67.0456 50.399C66.9215 50.4404 66.7973 50.4819 66.6694 50.5246C66.2042 50.6801 65.7391 50.8362 65.2741 50.9922C64.2348 51.3403 63.1955 51.6883 62.1247 52.0469C62.1247 55.218 62.1247 58.3891 62.1247 61.6563C63.1662 62.2785 63.1662 62.2785 64.3523 62.4278C64.6212 62.3381 64.8775 62.2326 65.1372 62.1191C65.279 62.0605 65.279 62.0605 65.4237 62.0007C65.7239 61.8759 66.0226 61.7479 66.3214 61.6197C66.5245 61.5347 66.7277 61.4499 66.931 61.3654C67.8181 61.0033 67.8181 61.0033 68.6872 60.6016C68.6872 57.0825 68.6872 53.5633 68.6872 49.9375C68.3774 49.9375 68.1396 50.0326 67.8453 50.1312ZM81.8122 52.75C81.8122 53.6008 81.8122 54.4516 81.8122 55.3282C83.3417 54.758 83.3417 54.758 84.859 54.1563C84.5359 53.9409 84.2389 53.7958 83.8836 53.6427C83.7631 53.5906 83.6426 53.5384 83.5185 53.4847C83.3929 53.4308 83.2673 53.3769 83.1379 53.3213C83.0109 53.2665 82.8839 53.2117 82.7531 53.1552C82.4396 53.0198 82.1259 52.8849 81.8122 52.75ZM44.1877 53.6289C44.0988 53.6681 44.0099 53.7072 43.9183 53.7475C43.6979 53.8445 43.4777 53.9418 43.2575 54.0391C43.5948 54.3122 43.9161 54.4882 44.3195 54.647C44.42 54.6873 44.5204 54.7277 44.6239 54.7692C44.9057 54.8777 44.9057 54.8777 45.2497 54.8594C45.2497 54.318 45.2497 53.7766 45.2497 53.2188C44.9102 53.2188 44.5027 53.4896 44.1877 53.6289ZM40.4802 55.7333C40.3621 55.8631 40.2455 55.9943 40.13 56.1265C40.0681 56.1956 40.0061 56.2647 39.9422 56.3358C39.4748 56.8609 39.0282 57.402 38.5883 57.9502C38.33 58.2647 38.0609 58.5655 37.7863 58.8658C37.3496 59.3445 36.9561 59.8417 36.5778 60.3672C36.6831 60.4162 36.7884 60.4653 36.8969 60.5158C37.6799 60.8805 38.4621 61.2466 39.2429 61.616C41.0534 62.4722 42.8684 63.3166 44.693 64.1422C45.9556 64.7137 47.2144 65.2932 48.4723 65.875C50.309 66.7244 52.1488 67.5668 53.9925 68.4009C54.4533 68.6095 54.9134 68.8197 55.3731 69.0309C55.5875 69.1288 55.8019 69.2268 56.0163 69.3247C56.1103 69.3683 56.2044 69.4119 56.3013 69.4568C56.7906 69.6811 56.7906 69.6811 57.32 69.7422C57.55 69.5064 57.55 69.5064 57.7814 69.1929C58.194 68.6704 58.6217 68.1762 59.0778 67.6914C59.5967 67.1377 60.0826 66.5673 60.5568 65.9744C60.9506 65.503 61.3706 65.0572 61.7955 64.6139C62.1333 64.3021 62.1333 64.3021 62.2419 63.8828C59.1891 62.5977 56.1083 61.3824 53.03 60.1602C51.9275 59.7225 50.825 59.2845 49.7227 58.8462C49.4531 58.7391 49.1835 58.632 48.9139 58.5249C47.5088 57.9669 46.105 57.406 44.7056 56.8339C44.5896 56.7866 44.4736 56.7393 44.3542 56.6905C43.8122 56.4693 43.2706 56.2472 42.7296 56.0236C42.5404 55.9461 42.3511 55.8687 42.1619 55.7913C42.0771 55.7558 41.9923 55.7204 41.9049 55.6838C41.1528 55.3642 41.1528 55.3642 40.4802 55.7333ZM86.6478 55.4966C86.5534 55.5341 86.4589 55.5716 86.3616 55.6102C86.2569 55.652 86.1523 55.6937 86.0444 55.7368C85.9343 55.7806 85.8243 55.8243 85.7109 55.8694C85.3413 56.0164 84.9717 56.1637 84.6022 56.311C84.3414 56.4148 84.0805 56.5186 83.8197 56.6224C83.1175 56.9019 82.4155 57.1817 81.7136 57.4615C81.2795 57.6345 80.8454 57.8074 80.4113 57.9803C76.7499 59.4389 73.0899 60.9012 69.4342 62.3741C69.3447 62.4101 69.2551 62.4462 69.1628 62.4834C68.6562 62.6875 68.1496 62.8916 67.6432 63.0961C67.4227 63.1851 67.2022 63.274 66.9816 63.3629C66.8531 63.4149 66.7246 63.4668 66.5922 63.5204C66.481 63.5653 66.3698 63.6102 66.2552 63.6565C66.0868 63.7263 65.9205 63.8013 65.7575 63.8828C65.9447 64.3355 66.2522 64.6542 66.5851 65.0035C67.0079 65.455 67.414 65.9118 67.8009 66.3951C68.2527 66.957 68.7339 67.4828 69.2265 68.0085C69.7421 68.5622 70.2186 69.1419 70.6794 69.7422C71.2213 69.6751 71.6442 69.5268 72.1355 69.2909C72.2071 69.2568 72.2788 69.2228 72.3526 69.1877C72.5074 69.1141 72.6621 69.0401 72.8165 68.9657C73.2379 68.7629 73.6607 68.5632 74.0833 68.363C74.1706 68.3215 74.258 68.28 74.348 68.2373C75.2323 67.8181 76.123 67.4133 77.0148 67.0103C78.4412 66.3649 79.8639 65.712 81.2848 65.0547C83.0909 64.2196 84.9003 63.3922 86.7126 62.5708C87.5918 62.1722 88.4705 61.7727 89.3493 61.3731C89.7643 61.1844 90.1793 60.9958 90.5944 60.8071C90.7318 60.7447 90.8692 60.6822 91.0107 60.6179C91.1076 60.5738 91.2045 60.5298 91.3044 60.4844C91.3044 60.0007 91.1148 59.893 90.7843 59.5469C90.3714 59.1075 89.9763 58.662 89.5978 58.1919C89.1742 57.6667 88.7298 57.1666 88.2749 56.6685C87.9492 56.299 87.6513 55.912 87.3566 55.5177C87.3058 55.4551 87.2551 55.3926 87.2028 55.3282C87.0034 55.3282 86.8317 55.4234 86.6478 55.4966ZM41.4997 64.8203C41.4997 69.1516 41.4997 73.4828 41.4997 77.9454C43.6601 78.9788 43.6601 78.9788 45.8265 79.999C47.7576 80.9018 49.6738 81.8341 51.5885 82.7711C51.6869 82.8193 51.7854 82.8675 51.8868 82.9171C52.0316 82.988 52.0316 82.988 52.1794 83.0603C53.2384 83.5782 54.3018 84.0866 55.3664 84.593C55.9547 84.8735 56.5421 85.1559 57.1296 85.438C57.2503 85.496 57.371 85.5539 57.4954 85.6136C58.1305 85.9185 58.7654 86.2237 59.4001 86.5293C59.5951 86.6232 59.5951 86.6232 59.794 86.7189C60.0403 86.8374 60.2866 86.956 60.5327 87.0747C61.1046 87.3498 61.6779 87.6218 62.2538 87.8884C62.3584 87.9369 62.463 87.9854 62.5708 88.0354C62.8177 88.1555 62.8177 88.1555 63.0622 88.1407C63.0622 80.909 63.0622 73.6774 63.0622 66.2266C62.6151 66.5842 62.3398 66.8387 62.0002 67.274C61.5914 67.7847 61.166 68.2692 60.7184 68.7461C60.1875 69.3131 59.6869 69.8964 59.1996 70.5017C58.1331 71.8194 58.1331 71.8194 57.5283 71.9052C56.7184 71.8916 55.9932 71.4532 55.2765 71.1119C55.1071 71.0328 54.9376 70.9539 54.768 70.8752C54.4036 70.7057 54.0398 70.5353 53.6762 70.364C53.09 70.0881 52.5023 69.8153 51.9143 69.5431C51.8146 69.497 51.7149 69.4508 51.6122 69.4033C51.4096 69.3095 51.207 69.2157 51.0044 69.122C50.6979 68.9801 50.3916 68.8379 50.0853 68.6956C48.5721 67.993 47.0549 67.2995 45.5351 66.6111C45.4601 66.5771 45.3851 66.5431 45.3078 66.5081C45.2341 66.4748 45.1604 66.4414 45.0845 66.407C44.1979 66.005 43.3136 65.5978 42.43 65.1891C42.3236 65.1401 42.2172 65.091 42.1076 65.0405C42.015 64.9977 41.9224 64.9549 41.827 64.9108C41.637 64.8126 41.637 64.8126 41.4997 64.8203ZM85.6867 65.1431C85.5364 65.214 85.386 65.2849 85.2357 65.3559C85.1555 65.3938 85.0752 65.4318 84.9926 65.4709C83.5786 66.1393 82.1603 66.7974 80.7355 67.4424C79.5295 67.9885 78.3249 68.5374 77.1226 69.0914C76.4867 69.3843 75.8503 69.6759 75.2139 69.9675C74.7002 70.2031 74.1874 70.4406 73.6754 70.6798C73.3631 70.8253 73.0502 70.9693 72.7372 71.113C72.5246 71.2112 72.3128 71.3112 72.1011 71.4113C70.8361 71.9893 70.8361 71.9893 70.0934 71.8516C69.784 71.6035 69.784 71.6035 69.5075 71.2657C69.3991 71.1498 69.2898 71.0348 69.1797 70.9205C68.534 70.2279 67.9159 69.524 67.323 68.785C66.9443 68.3305 66.5433 67.8986 66.1381 67.4676C65.8526 67.1633 65.5766 66.8561 65.3125 66.5328C65.2273 66.4318 65.1421 66.3307 65.0544 66.2266C65.0157 66.2266 64.977 66.2266 64.9372 66.2266C64.9372 73.4582 64.9372 80.6899 64.9372 88.1407C65.7803 87.8684 65.7803 87.8684 66.5641 87.5181C66.6631 87.4677 66.7621 87.4174 66.864 87.3655C66.9678 87.3119 67.0715 87.2583 67.1784 87.2032C67.4073 87.0868 67.6364 86.9707 67.8655 86.8548C68.0406 86.7662 68.0406 86.7662 68.2192 86.6758C68.7746 86.3976 69.3347 86.1297 69.8957 85.8628C70.0067 85.8099 70.1178 85.7571 70.2322 85.7026C70.4603 85.5941 70.6883 85.4856 70.9164 85.3771C71.5168 85.0912 72.1161 84.8031 72.7155 84.5152C72.9618 84.3969 73.208 84.2787 73.4543 84.1604C73.5766 84.1017 73.699 84.0429 73.825 83.9824C74.4366 83.6887 75.0482 83.3952 75.6598 83.1016C75.904 82.9844 76.1481 82.8672 76.3923 82.75C78.5895 81.6954 78.5895 81.6954 80.7868 80.6407C80.9078 80.5826 81.0289 80.5245 81.1536 80.4646C81.3958 80.3483 81.638 80.2321 81.8803 80.1159C82.5201 79.8089 83.1596 79.5014 83.7989 79.1932C83.9322 79.129 84.0655 79.0648 84.2028 78.9987C84.4585 78.8755 84.7141 78.7522 84.9696 78.6288C85.0848 78.5733 85.2 78.5179 85.3186 78.4608C85.4197 78.4121 85.5207 78.3633 85.6248 78.3131C85.912 78.1805 86.2059 78.0628 86.4997 77.9454C86.4997 73.6141 86.4997 69.2828 86.4997 64.8203C86.2313 64.8203 85.9186 65.0332 85.6867 65.1431Z" fill="#F5344F"/>
<path d="M56.2926 74.8529C56.5768 74.9516 56.8542 75.0609 57.1324 75.1752C57.234 75.2157 57.3356 75.2562 57.4403 75.2979C57.6537 75.3835 57.8668 75.4698 58.0796 75.5569C58.4048 75.6897 58.7312 75.8194 59.0577 75.9488C59.2656 76.0326 59.4735 76.1165 59.6812 76.2006C59.7784 76.2392 59.8756 76.2778 59.9757 76.3175C60.9384 76.7152 60.9384 76.7152 61.1882 77.1253C61.2558 77.5456 61.2538 77.9601 61.2504 78.385C61.2509 78.5081 61.2513 78.6312 61.2518 78.758C61.2521 79.018 61.2512 79.2781 61.2493 79.5381C61.2468 79.9363 61.2493 80.3343 61.2523 80.7325C61.252 80.9851 61.2514 81.2378 61.2504 81.4905C61.2514 81.6097 61.2523 81.7288 61.2533 81.8516C61.2426 82.6554 61.2426 82.6554 61.0085 83.0634C60.5087 83.3325 60.0512 83.2928 59.5212 83.1476C59.2371 83.0489 58.9597 82.9397 58.6815 82.8253C58.5799 82.7848 58.4783 82.7443 58.3736 82.7026C58.1601 82.6171 57.947 82.5308 57.7342 82.4437C57.409 82.3109 57.0827 82.1811 56.7561 82.0517C56.5482 81.968 56.3404 81.8841 56.1326 81.8C56.0355 81.7614 55.9383 81.7228 55.8382 81.683C54.8755 81.2853 54.8755 81.2853 54.6257 80.8753C54.5581 80.455 54.56 80.0405 54.5634 79.6155C54.563 79.4924 54.5625 79.3694 54.5621 79.2425C54.5617 78.9825 54.5626 78.7224 54.5646 78.4624C54.5671 78.0642 54.5646 77.6663 54.5616 77.2681C54.5619 77.0154 54.5625 76.7627 54.5634 76.51C54.5625 76.3909 54.5615 76.2717 54.5605 76.149C54.5712 75.3451 54.5712 75.3451 54.8054 74.9372C55.3051 74.6681 55.7626 74.7078 56.2926 74.8529ZM56.5007 77.2425C56.5007 78.0546 56.5007 78.8667 56.5007 79.7034C57.8546 80.4248 57.8546 80.4248 59.3132 80.7581C59.3132 79.946 59.3132 79.1339 59.3132 78.2971C57.9592 77.5757 57.9592 77.5757 56.5007 77.2425Z" fill="#F5344F"/>
<path d="M73.8435 80.4066C74.1365 80.5823 74.1365 80.5823 74.3123 80.8753C74.3763 81.2011 74.3978 81.4908 74.3123 81.8128C73.9866 82.1885 73.6801 82.3852 73.2257 82.5803C73.041 82.6607 73.041 82.6607 72.8525 82.7426C72.7201 82.7988 72.5878 82.8549 72.4514 82.9128C72.3151 82.9717 72.1787 83.0306 72.0382 83.0913C71.6767 83.2471 71.3148 83.402 70.9527 83.5564C70.657 83.6827 70.3618 83.8099 70.0666 83.9373C69.4565 84.2004 68.8462 84.4627 68.2352 84.7236C68.127 84.7698 68.0189 84.816 67.9075 84.8636C67.3824 85.08 66.9097 85.1727 66.3435 85.0941C66.0505 84.9183 66.0505 84.9183 65.8748 84.6253C65.8107 84.2995 65.7892 84.0098 65.8748 83.6878C66.2004 83.3121 66.5069 83.1154 66.9613 82.9203C67.0845 82.8667 67.2076 82.8132 67.3345 82.758C67.4669 82.7018 67.5992 82.6457 67.7356 82.5878C67.8719 82.5289 68.0083 82.47 68.1488 82.4094C68.5103 82.2535 68.8722 82.0987 69.2344 81.9443C69.53 81.8179 69.8252 81.6907 70.1204 81.5634C70.7305 81.3003 71.3408 81.0379 71.9518 80.777C72.06 80.7308 72.1681 80.6846 72.2795 80.637C72.8046 80.4207 73.2773 80.328 73.8435 80.4066Z" fill="#F5344F"/>
<path d="M73.8435 76.6566C74.1365 76.8323 74.1365 76.8323 74.3123 77.1253C74.3763 77.4511 74.3978 77.7408 74.3123 78.0628C73.9866 78.4385 73.6801 78.6352 73.2257 78.8303C73.041 78.9107 73.041 78.9107 72.8525 78.9926C72.7201 79.0488 72.5878 79.1049 72.4514 79.1628C72.3151 79.2217 72.1787 79.2806 72.0382 79.3413C71.6767 79.4971 71.3148 79.652 70.9527 79.8064C70.657 79.9327 70.3618 80.0599 70.0666 80.1873C69.4565 80.4504 68.8462 80.7127 68.2352 80.9736C68.127 81.0198 68.0189 81.066 67.9075 81.1136C67.3824 81.33 66.9097 81.4227 66.3435 81.3441C66.0505 81.1683 66.0505 81.1683 65.8748 80.8753C65.8107 80.5495 65.7892 80.2598 65.8748 79.9378C66.2004 79.5621 66.5069 79.3654 66.9613 79.1703C67.0845 79.1167 67.2076 79.0632 67.3345 79.008C67.4669 78.9518 67.5992 78.8957 67.7356 78.8378C67.8719 78.7789 68.0083 78.72 68.1488 78.6594C68.5103 78.5035 68.8722 78.3487 69.2344 78.1943C69.53 78.0679 69.8252 77.9407 70.1204 77.8134C70.7305 77.5503 71.3408 77.2879 71.9518 77.027C72.06 76.9808 72.1681 76.9346 72.2795 76.887C72.8046 76.6707 73.2773 76.578 73.8435 76.6566Z" fill="#F5344F"/>
</g>
<defs>
<clipPath id="clip0_220_3534">
<rect width="94" height="94" fill="white"/>
</clipPath>
<clipPath id="clip1_220_3534">
<rect width="60" height="60" fill="white" transform="translate(34 34)"/>
</clipPath>
</defs>
</svg>
