<svg width="94" height="94" viewBox="0 0 94 94" fill="none" xmlns="http://www.w3.org/2000/svg">
<g clip-path="url(#clip0_220_3565)">
<path d="M70.0901 16.9319C77.6606 22.2757 85.7989 26.3319 90.215 33.0278C94.568 39.7237 95.1358 49.0593 92.9277 57.3004C90.6566 65.5415 85.6096 72.6881 79.6794 78.2251C73.7492 83.8264 66.9989 87.8182 59.5546 90.3935C52.1103 92.9689 44.0351 94.0634 35.0767 93.6127C26.1183 93.0976 16.1506 91.0374 12.4284 84.599C8.70626 78.1607 11.2298 67.4086 8.95861 56.8497C6.75056 46.2908 -0.189036 35.925 0.252575 26.4607C0.631098 17.0607 8.39083 8.49765 17.6647 3.92642C26.9385 -0.709197 37.7895 -1.41742 46.6848 1.67299C55.5801 4.69902 62.5197 11.5237 70.0901 16.9319Z" fill="#F9F6F3"/>
</g>
<path d="M49.0646 38.0576C49.1501 38.0566 49.2357 38.0555 49.3238 38.0544C49.5047 38.0527 49.6855 38.0517 49.8664 38.0512C50.1406 38.0499 50.4146 38.0441 50.6887 38.0382C52.411 38.0195 52.411 38.0195 53.1021 38.687C54.2668 39.9437 53.8052 40.7234 53.8052 42.7886C60.5341 42.7886 67.263 42.7886 74.1958 42.7886C74.1958 41.7831 74.1958 40.7777 74.1958 39.7417C75.0179 38.4264 75.0179 38.4264 75.8364 38.1011C76.1355 38.0745 76.4216 38.0599 76.7208 38.0576C76.8064 38.0566 76.8919 38.0555 76.9801 38.0544C77.1609 38.0527 77.3418 38.0517 77.5226 38.0512C77.7969 38.0499 78.0708 38.0441 78.345 38.0382C80.0672 38.0195 80.0672 38.0195 80.7583 38.687C81.2864 39.2569 81.492 39.6764 81.4843 40.454C81.4836 40.59 81.4828 40.7259 81.482 40.866C81.4801 41.0074 81.4781 41.1488 81.4761 41.2945C81.475 41.4377 81.474 41.5809 81.4729 41.7284C81.4701 42.0818 81.4663 42.4352 81.4614 42.7886C81.6155 42.7849 81.6155 42.7849 81.7726 42.7812C82.1605 42.7731 82.5483 42.7673 82.9363 42.7629C83.1029 42.7605 83.2695 42.7574 83.4361 42.7532C85.3054 42.7084 86.8271 43.1883 88.2583 44.4292C89.5009 45.9194 89.9352 47.198 89.9303 49.1202C89.9308 49.2732 89.9313 49.4261 89.9319 49.5837C89.9333 50.0064 89.9333 50.4291 89.933 50.8519C89.933 51.3085 89.9343 51.7651 89.9354 52.2217C89.9373 53.1157 89.938 54.0096 89.9381 54.9036C89.9382 55.6305 89.9387 56.3574 89.9394 57.0843C89.9415 59.1468 89.9426 61.2093 89.9424 63.2718C89.9424 63.3829 89.9424 63.494 89.9424 63.6085C89.9424 63.7198 89.9424 63.831 89.9423 63.9456C89.9422 65.7482 89.9445 67.5507 89.9478 69.3533C89.9512 71.2056 89.9528 73.058 89.9526 74.9104C89.9525 75.9497 89.9531 76.9891 89.9557 78.0284C89.9578 78.9134 89.9583 79.7984 89.9567 80.6833C89.956 81.1345 89.9559 81.5856 89.958 82.0367C89.9602 82.5268 89.9587 83.0168 89.9569 83.5069C89.9581 83.648 89.9593 83.7892 89.9605 83.9347C89.947 85.5974 89.3401 87.0026 88.2583 88.2574C87.1628 89.2087 85.8513 89.9113 84.3816 89.9137C84.2346 89.9142 84.0876 89.9148 83.9361 89.9153C83.7727 89.9153 83.6092 89.9153 83.4457 89.9152C83.2723 89.9156 83.0989 89.9161 82.9255 89.9165C82.4483 89.9177 81.971 89.9181 81.4938 89.9185C80.9793 89.9189 80.4649 89.92 79.9504 89.9211C78.7075 89.9234 77.4647 89.9246 76.2218 89.9256C75.6364 89.9261 75.051 89.9267 74.4656 89.9274C72.5194 89.9294 70.5731 89.931 68.6269 89.9319C68.1218 89.9321 67.6168 89.9323 67.1117 89.9326C66.9234 89.9327 66.9234 89.9327 66.7313 89.9327C64.6983 89.9337 62.6654 89.9367 60.6325 89.9405C58.5449 89.9444 56.4574 89.9465 54.3698 89.9469C53.1979 89.9471 52.026 89.9481 50.8541 89.9511C49.8558 89.9537 48.8576 89.9546 47.8594 89.9535C47.3504 89.9529 46.8414 89.9532 46.3324 89.9554C45.8656 89.9575 45.399 89.9574 44.9322 89.9556C44.7641 89.9553 44.5959 89.9558 44.4278 89.9572C42.6058 89.9714 41.1285 89.4521 39.7427 88.2574C38.8199 87.1948 38.089 85.8867 38.0863 84.4539C38.0858 84.3232 38.0853 84.1925 38.0848 84.0579C38.0848 83.9143 38.0848 83.7707 38.0848 83.6227C38.0844 83.4702 38.084 83.3177 38.0835 83.1605C38.0823 82.7367 38.0819 82.3129 38.0816 81.8891C38.0811 81.4322 38.08 80.9752 38.079 80.5183C38.0767 79.4145 38.0755 78.3106 38.0745 77.2068C38.0739 76.6868 38.0733 76.1668 38.0727 75.6468C38.0707 73.9177 38.069 72.1886 38.0682 70.4595C38.0679 70.0108 38.0677 69.5621 38.0675 69.1135C38.0674 69.0019 38.0674 68.8904 38.0673 68.7755C38.0663 66.9699 38.0634 65.1643 38.0596 63.3587C38.0557 61.5042 38.0536 59.6498 38.0532 57.7953C38.0529 56.7543 38.0519 55.7134 38.0489 54.6725C38.0464 53.7858 38.0454 52.8991 38.0466 52.0124C38.0471 51.5603 38.0469 51.1083 38.0446 50.6562C38.0422 50.1651 38.0434 49.674 38.0449 49.1829C38.0436 49.0414 38.0423 48.8999 38.041 48.7541C38.0536 47.0902 38.6602 45.6848 39.7427 44.4292C40.8944 43.4291 42.2138 42.7709 43.7472 42.7772C43.8672 42.7774 43.8672 42.7774 43.9895 42.7777C44.2439 42.7783 44.4982 42.7798 44.7525 42.7813C44.9253 42.7819 45.0982 42.7824 45.2711 42.7829C45.6939 42.7842 46.1167 42.7862 46.5396 42.7886C46.5365 42.7012 46.5334 42.6138 46.5303 42.5238C46.518 42.1238 46.5104 41.7239 46.5029 41.3238C46.498 41.1863 46.4931 41.0488 46.4881 40.9072C46.476 40.0491 46.5456 39.4599 47.1255 38.8042C47.7471 38.2281 48.2253 38.0641 49.0646 38.0576ZM49.1177 40.6792C49.1177 42.9222 49.1177 45.1652 49.1177 47.4761C49.8138 47.4761 50.5099 47.4761 51.2271 47.4761C51.2271 45.2331 51.2271 42.9902 51.2271 40.6792C50.531 40.6792 49.8349 40.6792 49.1177 40.6792ZM76.7739 40.6792C76.7739 42.9222 76.7739 45.1652 76.7739 47.4761C77.47 47.4761 78.1661 47.4761 78.8833 47.4761C78.8833 45.2331 78.8833 42.9902 78.8833 40.6792C78.1872 40.6792 77.4911 40.6792 76.7739 40.6792ZM41.7349 46.3042C40.4744 47.7835 40.6802 49.2693 40.6802 51.2261C56.0716 51.2261 71.463 51.2261 87.3208 51.2261C87.4249 48.6396 87.4249 48.6396 86.3833 46.4214C85.2493 45.4551 84.0803 45.3466 82.6406 45.3594C82.4701 45.3602 82.4701 45.3602 82.2962 45.361C82.0179 45.3624 81.7397 45.3643 81.4614 45.3667C81.461 45.4541 81.4605 45.5415 81.46 45.6316C81.4561 46.0317 81.4478 46.4315 81.4395 46.8316C81.4384 47.0378 81.4384 47.0378 81.4374 47.2481C81.4123 48.2396 81.2685 48.8216 80.5811 49.5351C79.8727 50.1022 78.9607 50.0254 78.0993 50.0134C77.8291 50.0103 77.5595 50.0134 77.2894 50.0172C76.3528 50.0199 75.6218 50.0097 74.8989 49.3511C74.313 48.4136 74.313 48.4136 74.1958 45.3667C67.4669 45.3667 60.738 45.3667 53.8052 45.3667C53.7665 46.3722 53.7278 47.3777 53.688 48.4136C52.8834 49.701 52.8834 49.701 52.1646 49.937C51.5881 50.009 51.0234 50.0215 50.443 50.0134C50.1729 50.0103 49.9033 50.0134 49.6331 50.0172C48.0279 50.0218 48.0279 50.0218 47.4199 49.5351C46.6217 48.7065 46.5671 47.9627 46.5615 46.8316C46.5586 46.6905 46.5556 46.5494 46.5526 46.404C46.5458 46.0582 46.5415 45.7126 46.5396 45.3667C46.1538 45.3598 45.7681 45.3557 45.3823 45.3521C45.2748 45.3501 45.1672 45.3482 45.0564 45.3461C43.8128 45.3374 42.7234 45.4998 41.7349 46.3042ZM40.6802 53.8042C40.6754 58.7494 40.6705 63.6946 40.6655 68.7896C40.6634 70.3512 40.6613 71.9129 40.6591 73.5219C40.6583 74.9213 40.6583 74.9213 40.6578 76.3207C40.6576 76.9442 40.6567 77.5677 40.6554 78.1912C40.6538 78.9867 40.6534 79.7822 40.6537 80.5778C40.6536 80.8696 40.6532 81.1614 40.6523 81.4532C40.6511 81.8479 40.6514 82.2425 40.652 82.6371C40.6513 82.7509 40.6506 82.8646 40.6499 82.9818C40.6553 84.206 40.8269 85.2934 41.6177 86.2652C42.857 87.3212 44.1248 87.3374 45.682 87.3355C45.8462 87.3358 46.0105 87.336 46.1747 87.3363C46.6248 87.337 47.075 87.337 47.5252 87.3369C48.0111 87.3369 48.497 87.3375 48.983 87.3381C49.9346 87.339 50.8862 87.3394 51.8378 87.3394C52.6115 87.3395 53.3851 87.3397 54.1587 87.3401C56.3528 87.3411 58.5468 87.3417 60.7409 87.3416C60.8592 87.3416 60.9774 87.3416 61.0992 87.3416C61.2176 87.3416 61.336 87.3416 61.458 87.3416C63.3766 87.3415 65.2953 87.3426 67.2139 87.3443C69.1847 87.346 71.1554 87.3468 73.1262 87.3467C74.2323 87.3466 75.3385 87.347 76.4446 87.3482C77.3864 87.3493 78.3282 87.3495 79.27 87.3487C79.7502 87.3484 80.2305 87.3484 80.7108 87.3494C81.151 87.3503 81.5911 87.3501 82.0313 87.3491C82.2649 87.3488 82.4985 87.3497 82.7321 87.3507C84.052 87.3456 85.2114 87.2407 86.2661 86.3824C87.227 85.2547 87.3391 84.1031 87.3349 82.6794C87.335 82.556 87.3351 82.4326 87.3352 82.3055C87.3354 81.8915 87.3348 81.4776 87.3341 81.0636C87.3341 80.762 87.3341 80.4603 87.3342 80.1587C87.3342 79.4329 87.3337 78.707 87.3329 77.9812C87.3321 77.1413 87.332 76.3015 87.3319 75.4616C87.3313 73.2449 87.3297 71.0282 87.3281 68.8116C87.3257 63.8591 87.3233 58.9067 87.3208 53.8042C71.9294 53.8042 56.538 53.8042 40.6802 53.8042Z" fill="#F5344F"/>
<path d="M65.2682 59.1746C65.8235 59.6611 66.1376 60.3451 66.49 60.9823C66.567 61.1193 66.6442 61.2561 66.7214 61.3929C66.8753 61.6653 67.0285 61.9379 67.1815 62.2107C67.5247 62.8172 67.8822 63.4151 68.2427 64.0114C68.5701 64.5605 68.5701 64.5605 68.5701 64.8202C68.6756 64.8404 68.6756 64.8404 68.7832 64.861C70.2494 65.1433 71.7132 65.4398 73.1706 65.7647C73.4008 65.8156 73.6315 65.8642 73.8621 65.9129C74.004 65.9451 74.1459 65.9772 74.2921 66.0104C74.4805 66.0517 74.4805 66.0517 74.6727 66.0939C75.1871 66.2928 75.4687 66.6523 75.8137 67.0687C76.022 67.5619 76.0497 68.0443 75.9529 68.5702C75.642 69.215 75.2394 69.692 74.7444 70.2035C74.6074 70.3479 74.4706 70.4924 74.3338 70.637C74.2688 70.7053 74.2038 70.7737 74.1369 70.8441C73.8619 71.1361 73.5996 71.4383 73.3377 71.742C73.0087 72.1199 72.6704 72.4893 72.3334 72.8599C72.2516 72.9525 72.1699 73.0451 72.0857 73.1405C72.0021 73.2216 71.9185 73.3026 71.8323 73.3861C71.5265 73.8693 71.6008 74.2135 71.6737 74.7647C71.6848 74.8657 71.6959 74.9668 71.7073 75.071C71.7431 75.3946 71.7823 75.7177 71.822 76.0409C72.1098 78.4811 72.1098 78.4811 72.1178 79.6508C72.1188 79.7319 72.1199 79.8131 72.121 79.8966C72.1177 80.338 72.0789 80.6631 71.8367 81.036C71.205 81.6128 70.7239 81.7528 69.8843 81.7436C69.1489 81.6491 68.5063 81.3037 67.845 80.9847C67.6941 80.9144 67.5431 80.8444 67.392 80.7746C66.9632 80.576 66.5361 80.3741 66.1092 80.1718C65.7415 79.9985 65.373 79.8276 65.0032 79.6591C64.868 79.5953 64.7328 79.5316 64.5935 79.4659C63.8007 79.2134 63.1152 79.6342 62.4054 79.9671C62.1839 80.0683 61.9625 80.1694 61.7409 80.2704C61.3946 80.4293 61.0487 80.589 60.7035 80.7503C60.3684 80.9065 60.0321 81.0596 59.6954 81.2123C59.5941 81.2606 59.4927 81.3089 59.3883 81.3587C58.6125 81.7068 57.79 81.8875 56.9572 81.6147C56.4478 81.3551 56.1849 81.0146 55.9138 80.5233C55.8709 80.2072 55.8541 79.9494 55.8649 79.6357C55.8663 79.5499 55.8677 79.4641 55.8691 79.3756C55.889 78.6893 55.969 78.0148 56.0617 77.335C56.0751 77.2334 56.0885 77.1317 56.1023 77.027C56.2139 76.1849 56.2139 76.1849 56.2796 75.7759C56.5258 74.479 56.5258 74.479 56.1195 73.2828C55.8108 72.9194 55.4605 72.6233 55.0935 72.3202C54.9484 72.1622 54.8058 72.0018 54.6687 71.8368C54.3708 71.4928 54.0669 71.1552 53.7605 70.8187C51.9977 68.862 51.9977 68.862 52.0146 67.6995C52.067 67.207 52.2085 66.9715 52.5154 66.578C53.198 66.1074 53.8848 65.9498 54.6893 65.7815C54.8177 65.7535 54.946 65.7256 55.0782 65.6968C55.4859 65.6084 55.8939 65.5219 56.302 65.4354C56.5786 65.3756 56.8552 65.3156 57.1317 65.2555C57.6355 65.1467 58.1394 65.0379 58.6436 64.9311C58.7953 64.8989 58.7953 64.8989 58.95 64.866C59.1951 64.8202 59.1951 64.8202 59.4295 64.8202C59.4616 64.7354 59.4938 64.6506 59.527 64.5633C59.6591 64.2457 59.8092 63.9564 59.9788 63.6575C60.0718 63.4931 60.0718 63.4931 60.1667 63.3253C60.2328 63.2095 60.2989 63.0938 60.367 62.9745C60.435 62.8552 60.5029 62.736 60.573 62.6131C60.7115 62.3706 60.8502 62.1281 60.9891 61.8858C61.1689 61.5711 61.3466 61.2554 61.5237 60.9393C61.6239 60.7631 61.7241 60.587 61.8245 60.411C61.8905 60.2917 61.8905 60.2917 61.9579 60.1699C62.3322 59.5214 62.7497 59.0964 63.4505 58.7924C64.1504 58.6856 64.6729 58.79 65.2682 59.1746ZM63.8826 62.3593C63.8343 62.4436 63.7859 62.5279 63.7361 62.6148C63.2723 63.4231 62.8068 64.2304 62.3391 65.0365C62.2121 65.2556 62.0853 65.4748 61.959 65.6943C61.835 65.9091 61.709 66.1228 61.5828 66.3363C61.5184 66.4461 61.4541 66.556 61.3878 66.6691C60.9086 67.2916 60.2346 67.3898 59.5055 67.5379C59.4005 67.5603 59.2955 67.5826 59.1873 67.6057C58.8532 67.6767 58.5188 67.7464 58.1843 67.8158C57.8491 67.8857 57.5139 67.956 57.1789 68.0272C56.9707 68.0714 56.7625 68.1148 56.554 68.1575C56.4126 68.1874 56.4126 68.1874 56.2683 68.218C56.1855 68.2351 56.1027 68.2523 56.0174 68.27C55.7611 68.3347 55.7611 68.3347 55.4451 68.5702C55.5455 68.6777 55.646 68.7853 55.7495 68.8961C59.1214 72.5122 59.1214 72.5122 59.0971 73.8169C59.0614 74.5198 58.9818 75.2174 58.9021 75.9164C58.7515 77.2206 58.7515 77.2206 58.7263 78.5311C59.9031 78.1077 61.0417 77.6033 62.1838 77.0952C62.3072 77.0403 62.4307 76.9855 62.5578 76.929C62.7246 76.8545 62.7246 76.8545 62.8948 76.7785C63.5955 76.4773 64.1809 76.447 64.9011 76.6772C65.0531 76.7417 65.2043 76.808 65.3548 76.8759C65.4785 76.9291 65.4785 76.9291 65.6047 76.9835C65.8908 77.1071 66.1757 77.2332 66.4607 77.3593C66.826 77.5185 67.1915 77.6773 67.557 77.8361C67.801 77.9423 68.0448 78.0489 68.2884 78.1559C68.3995 78.2047 68.5106 78.2534 68.625 78.3036C68.7246 78.3475 68.8243 78.3914 68.9269 78.4366C69.1328 78.5386 69.1328 78.5386 69.2732 78.5311C69.2235 77.4354 69.1548 76.3473 69.0315 75.2572C68.7804 72.9329 68.7804 72.9329 69.2869 72.2296C69.7556 71.6753 70.2512 71.1469 70.75 70.6199C71.0888 70.2586 71.4106 69.8826 71.7342 69.5077C71.8879 69.3318 72.0417 69.156 72.1956 68.9803C72.2987 68.8625 72.2987 68.8625 72.4039 68.7423C72.4536 68.6855 72.5033 68.6287 72.5545 68.5702C72.2356 68.3576 72.0898 68.2923 71.7312 68.218C71.637 68.198 71.5427 68.178 71.4456 68.1575C71.3441 68.1367 71.2427 68.116 71.1381 68.0946C70.923 68.0489 70.7078 68.0032 70.4927 67.9575C70.1538 67.8864 69.8149 67.8157 69.4759 67.7454C69.1484 67.6772 68.8213 67.6076 68.4941 67.5379C68.3426 67.5072 68.3426 67.5072 68.1881 67.4758C67.5584 67.341 67.0339 67.2187 66.6245 66.6846C66.5712 66.5911 66.5179 66.4976 66.463 66.4013C66.4021 66.2962 66.3412 66.1911 66.2784 66.0828C66.1838 65.9146 66.1838 65.9146 66.0872 65.743C66.0211 65.6287 65.9551 65.5143 65.887 65.3965C65.6863 65.0488 65.4874 64.7003 65.2888 64.3514C65.1183 64.0534 64.9474 63.7556 64.7753 63.4584C64.675 63.2851 64.5755 63.1113 64.4769 62.9369C64.3635 62.7404 64.2411 62.5491 64.117 62.3593C64.0396 62.3593 63.9623 62.3593 63.8826 62.3593Z" fill="#F5344F"/>
<defs>
<clipPath id="clip0_220_3565">
<rect width="94" height="94" fill="white"/>
</clipPath>
</defs>
</svg>
