<svg width="94" height="94" viewBox="0 0 94 94" fill="none" xmlns="http://www.w3.org/2000/svg">
<g clip-path="url(#clip0_821_2909)">
<path d="M70.0901 16.9319C77.6606 22.2757 85.7989 26.3319 90.215 33.0278C94.568 39.7237 95.1358 49.0593 92.9277 57.3004C90.6566 65.5415 85.6096 72.6881 79.6794 78.2251C73.7492 83.8264 66.9989 87.8182 59.5546 90.3936C52.1103 92.9689 44.0351 94.0634 35.0767 93.6127C26.1183 93.0977 16.1506 91.0374 12.4284 84.599C8.70626 78.1607 11.2298 67.4086 8.95861 56.8497C6.75056 46.2908 -0.189036 35.9251 0.252575 26.4607C0.631098 17.0607 8.39083 8.49765 17.6647 3.92642C26.9385 -0.709198 37.7895 -1.41742 46.6848 1.67299C55.5801 4.69902 62.5197 11.5237 70.0901 16.9319Z" fill="#F5344F"/>
</g>
<path d="M45.407 35.841C45.5377 35.8412 45.5377 35.8412 45.6711 35.8413C45.763 35.8405 45.8549 35.8398 45.9495 35.8389C46.2542 35.8367 46.5588 35.8363 46.8634 35.836C47.0748 35.8353 47.2862 35.8345 47.4975 35.8336C47.941 35.8322 48.3845 35.8318 48.828 35.8319C49.3966 35.832 49.965 35.8288 50.5336 35.8247C50.9703 35.8221 51.407 35.8217 51.8437 35.8218C52.0533 35.8215 52.2629 35.8205 52.4725 35.8187C52.7657 35.8164 53.0587 35.817 53.352 35.8184C53.4387 35.8171 53.5254 35.8158 53.6147 35.8145C54.0113 35.8193 54.2358 35.8486 54.5609 36.0836C54.754 36.3621 54.8007 36.4865 54.8022 36.8202C54.8037 36.9125 54.8052 37.0048 54.8067 37.0999C54.8057 37.1985 54.8048 37.2972 54.8038 37.3988C54.8043 37.5011 54.8047 37.6034 54.8052 37.7087C54.8055 37.9246 54.8046 38.1406 54.8027 38.3565C54.8002 38.6868 54.8026 39.0168 54.8056 39.3471C54.8053 39.557 54.8047 39.767 54.8038 39.9769C54.8048 40.0756 54.8057 40.1742 54.8067 40.2759C54.7957 40.9596 54.7957 40.9596 54.519 41.3275C54.2522 41.5148 54.0971 41.5668 53.7748 41.5883C53.6297 41.5979 53.4847 41.6076 53.3353 41.6176C53.374 42.0816 53.4126 42.5457 53.4525 43.0238C54.4369 42.2915 55.4155 41.5529 56.3822 40.7973C57.1157 40.2239 57.855 39.6597 58.6024 39.1044C59.0265 38.7882 59.4457 38.467 59.8607 38.139C59.9535 38.0658 60.0464 37.9926 60.142 37.9172C60.3198 37.7766 60.4972 37.6353 60.6739 37.4933C61.6819 36.6968 62.5352 36.2062 63.8382 36.1903C63.9284 36.1869 64.0186 36.1835 64.1115 36.18C65.2979 36.1671 66.1034 36.7308 66.995 37.4574C67.1805 37.6053 67.3663 37.753 67.5521 37.9005C67.6903 38.0109 67.6903 38.0109 67.8314 38.1235C68.228 38.4366 68.6326 38.7384 69.0384 39.0394C69.8002 39.6067 70.5505 40.1877 71.2989 40.7725C71.8687 41.2171 72.4432 41.6545 73.0228 42.0863C73.7845 42.6538 74.5349 43.2345 75.2832 43.8194C75.8531 44.2639 76.4276 44.7014 77.0072 45.1332C77.7688 45.7006 78.5193 46.2814 79.2676 46.8663C79.8375 47.3108 80.412 47.7483 80.9915 48.1801C81.7532 48.7475 82.5036 49.3283 83.252 49.9132C83.8218 50.3577 84.3963 50.7951 84.9759 51.2269C85.7369 51.7939 86.487 52.3738 87.2343 52.9587C87.7441 53.3569 88.2583 53.7479 88.7784 54.1325C91.4895 56.1384 91.4895 56.1384 91.7728 57.5551C91.8878 58.5725 91.6665 59.5837 91.0404 60.4115C90.2467 61.1691 89.4654 61.4901 88.3817 61.5761C86.9827 61.5296 85.957 60.6042 84.8816 59.8146C84.8004 59.755 84.7191 59.6953 84.6354 59.6339C84.4364 59.4878 84.2374 59.3418 84.0384 59.1957C84.0165 62.1151 84 65.0346 83.9898 67.9541C83.985 69.3097 83.9784 70.6652 83.9677 72.0208C83.9584 73.2023 83.9523 74.3837 83.9502 75.5653C83.949 76.1909 83.9461 76.8164 83.9393 77.442C83.9329 78.031 83.931 78.6199 83.9324 79.2089C83.9321 79.4249 83.9303 79.6409 83.9267 79.857C83.8694 80.9811 83.8694 80.9811 84.2458 82.0002C84.4797 82.2056 84.7086 82.3587 84.9759 82.516C85.2172 82.8103 85.2172 82.8103 85.3788 83.0653C85.4342 83.1504 85.4896 83.2354 85.5467 83.323C85.6752 83.5634 85.7439 83.7731 85.7962 84.0394C85.8997 84.0425 86.0032 84.0455 86.1098 84.0486C87.7974 84.1283 89.3528 84.6532 90.5318 85.9181C91.6976 87.3617 92.1245 89.0078 92.0072 90.8363C91.9004 91.3411 91.7899 91.7567 91.4212 92.1254C91.0621 92.1489 90.7136 92.1574 90.3544 92.1559C90.2424 92.1564 90.1305 92.1568 90.0152 92.1573C89.6378 92.1585 89.2604 92.158 88.883 92.1576C88.6133 92.1581 88.3437 92.1587 88.0741 92.1594C87.34 92.161 86.6059 92.161 85.8718 92.1607C85.2599 92.1606 84.648 92.1612 84.0361 92.1617C82.5104 92.1631 80.9848 92.163 79.4591 92.1622C78.1333 92.1616 76.8074 92.163 75.4815 92.1652C74.1211 92.1675 72.7607 92.1684 71.4003 92.168C70.6361 92.1678 69.872 92.1681 69.1078 92.1697C68.3894 92.1712 67.671 92.171 66.9526 92.1694C66.6883 92.1691 66.4241 92.1695 66.1599 92.1704C65.8003 92.1717 65.4407 92.1707 65.0811 92.1692C64.9756 92.1701 64.8701 92.171 64.7614 92.1718C64.6653 92.171 64.5692 92.1702 64.4702 92.1693C64.3872 92.1693 64.3041 92.1693 64.2186 92.1693C63.9316 92.1118 63.8283 91.9997 63.6478 91.7738C63.5622 91.5037 63.5622 91.5037 63.5086 91.2025C63.4901 91.1037 63.4715 91.0049 63.4523 90.9031C63.4136 90.6035 63.4107 90.3177 63.4134 90.016C63.2968 90.0165 63.1802 90.0171 63.06 90.0176C60.2237 90.0306 57.3875 90.0403 54.5512 90.0464C53.1796 90.0494 51.808 90.0535 50.4364 90.0602C49.2411 90.066 48.0458 90.0698 46.8505 90.0711C46.2174 90.0719 45.5844 90.0737 44.9513 90.078C44.3556 90.0819 43.76 90.0832 43.1643 90.0823C42.9455 90.0824 42.7267 90.0836 42.508 90.0858C42.2094 90.0888 41.9111 90.0881 41.6126 90.0865C41.5258 90.0882 41.4391 90.0899 41.3497 90.0916C40.8874 90.0849 40.696 90.0298 40.3324 89.7339C40.0932 89.4302 40.0195 89.3187 40.0173 88.9425C40.0145 88.8047 40.0145 88.8047 40.0117 88.664C40.0129 88.5664 40.0141 88.4687 40.0153 88.3681C40.0147 88.2662 40.0142 88.1644 40.0136 88.0595C40.0132 87.8448 40.0143 87.63 40.0167 87.4153C40.0199 87.0873 40.0168 86.7597 40.013 86.4317C40.0134 86.2227 40.0141 86.0136 40.0153 85.8046C40.0141 85.7069 40.0129 85.6092 40.0117 85.5086C40.0135 85.4167 40.0154 85.3248 40.0173 85.2301C40.0178 85.1499 40.0182 85.0697 40.0187 84.987C40.0931 84.7426 40.0931 84.7426 40.679 84.1566C41.7232 84.1566 42.7673 84.1566 43.8431 84.1566C43.8431 75.8808 43.8431 67.6051 43.8431 59.0785C42.8099 59.8531 42.8099 59.8531 41.785 60.6386C40.914 61.2674 40.0035 61.6597 38.9212 61.5394C37.9952 61.3596 37.2298 61.0079 36.632 60.2595C36.0761 59.4233 35.873 58.5509 35.9915 57.5551C36.271 56.482 36.7039 55.8195 37.5956 55.1527C37.7321 55.0497 37.8687 54.9467 38.0053 54.8437C38.0777 54.7894 38.1502 54.7352 38.2249 54.6792C38.6252 54.3784 39.0219 54.073 39.4193 53.7684C39.5895 53.6383 39.7598 53.5081 39.9301 53.378C40.3511 53.0562 40.7721 52.7344 41.1929 52.4125C41.358 52.2863 41.5231 52.1601 41.6881 52.034C42.1123 51.7097 42.5362 51.3851 42.9596 51.0599C43.0463 50.9934 43.1329 50.9269 43.2222 50.8584C43.3845 50.7339 43.5467 50.6093 43.7088 50.4844C43.7842 50.4266 43.8597 50.3687 43.9374 50.3091C44.0095 50.2522 44.0816 50.1953 44.1559 50.1366C44.429 49.9379 44.429 49.9379 44.7537 49.7565C45.2667 49.4498 45.6488 49.2173 45.836 48.6314C45.8784 48.1828 45.8818 47.7435 45.8696 47.2938C45.8699 47.1296 45.8707 46.9655 45.872 46.8013C45.874 46.3719 45.8683 45.9429 45.8609 45.5136C45.8548 45.0745 45.856 44.6353 45.8566 44.1961C45.8566 43.3365 45.8486 42.4771 45.8353 41.6176C45.7632 41.6132 45.6912 41.6088 45.6169 41.6043C45.5222 41.5966 45.4275 41.5889 45.3299 41.5809C45.1892 41.5707 45.1892 41.5707 45.0457 41.5603C44.7346 41.49 44.6258 41.395 44.429 41.1488C44.2574 40.7154 44.2929 40.2431 44.2922 39.7833C44.2916 39.6537 44.2916 39.6537 44.291 39.5215C44.2904 39.3392 44.2901 39.1569 44.2901 38.9746C44.2899 38.6966 44.2878 38.4186 44.2855 38.1406C44.2852 37.9631 44.285 37.7856 44.2849 37.608C44.284 37.5254 44.2832 37.4427 44.2823 37.3575C44.2864 36.4607 44.4291 35.8533 45.407 35.841ZM46.1869 37.6332C46.1869 38.3293 46.1869 39.0254 46.1869 39.7426C48.4298 39.7426 50.6728 39.7426 52.9837 39.7426C52.9837 39.0465 52.9837 38.3504 52.9837 37.6332C50.7408 37.6332 48.4978 37.6332 46.1869 37.6332ZM61.0761 39.5668C60.67 39.8991 60.253 40.2134 59.8319 40.5263C59.1439 41.0378 58.4638 41.5582 57.7884 42.0863C57.0542 42.6602 56.3137 43.2242 55.5664 43.781C54.973 44.2242 54.3876 44.6771 53.804 45.1332C53.0698 45.707 52.3293 46.2711 51.5821 46.8278C50.9887 47.2711 50.4032 47.724 49.8197 48.1801C49.0854 48.7539 48.345 49.318 47.5977 49.8747C47.0043 50.318 46.4189 50.7708 45.8353 51.2269C45.1011 51.8008 44.3606 52.3649 43.6133 52.9216C42.9298 53.4322 42.2572 53.956 41.5852 54.4817C40.9912 54.9454 40.3905 55.3992 39.7855 55.8485C38.5122 56.6675 38.5122 56.6675 37.8304 57.9085C37.799 58.4526 37.8403 58.7694 38.1961 59.1957C38.5513 59.5746 38.8246 59.6528 39.346 59.7157C39.774 59.7103 40.0084 59.5995 40.3577 59.3564C40.4498 59.2923 40.542 59.2282 40.6369 59.1622C41.059 58.8556 41.4712 58.538 41.8802 58.2142C42.0643 58.0698 42.2485 57.9254 42.4327 57.7812C42.5285 57.7062 42.6243 57.6313 42.7229 57.554C43.2422 57.15 43.7661 56.752 44.2899 56.3539C44.9429 55.8574 45.5958 55.3607 46.2455 54.8598C47.0045 54.2747 47.7671 53.6943 48.5296 53.1137C49.4269 52.4304 50.3231 51.7456 51.2188 51.0601C51.6313 50.7446 52.0438 50.4291 52.4564 50.1137C52.6224 49.9867 52.7884 49.8598 52.9544 49.7328C55.9427 47.4476 55.9427 47.4476 56.1919 47.2571C56.3575 47.1305 56.5231 47.0038 56.6888 46.8771C57.1096 46.5553 57.5304 46.2335 57.9514 45.9118C58.6889 45.3482 59.4262 44.7843 60.1615 44.2177C60.281 44.1266 60.4005 44.0355 60.5236 43.9416C60.8737 43.6732 61.2172 43.3971 61.5609 43.1204C61.7804 42.9466 62 42.7728 62.2196 42.599C62.375 42.4717 62.375 42.4717 62.5335 42.3418C63.3764 41.6808 63.3764 41.6808 63.895 41.6354C64.5122 41.7699 64.8652 42.0561 65.3397 42.4599C65.5261 42.6116 65.7125 42.7633 65.8991 42.9149C65.9927 42.9921 66.0863 43.0693 66.1828 43.1489C66.602 43.491 67.0324 43.8177 67.4637 44.1444C67.6287 44.2703 67.7936 44.3961 67.9586 44.5221C68.04 44.5842 68.1214 44.6463 68.2054 44.7103C68.62 45.0267 69.0343 45.3436 69.4486 45.6605C69.6146 45.7875 69.7806 45.9144 69.9466 46.0414C82.8958 55.9437 82.8958 55.9437 83.145 56.1343C83.3105 56.2608 83.4759 56.3873 83.6414 56.5137C84.0655 56.838 84.4894 57.1625 84.9127 57.4878C86.5964 58.9993 86.5964 58.9993 88.5973 59.6974C89.1188 59.6275 89.4405 59.3225 89.766 58.932C89.9382 58.5111 89.9994 58.1147 89.8978 57.6723C89.588 57.1176 89.2067 56.7509 88.7039 56.3759C88.6327 56.3213 88.5614 56.2668 88.488 56.2106C88.3349 56.0935 88.1813 55.9769 88.0275 55.8607C87.7867 55.6788 87.5471 55.4954 87.3078 55.3116C86.8895 54.9905 86.4703 54.6705 86.0509 54.3508C85.6336 54.0326 85.2169 53.7137 84.8001 53.3949C84.6341 53.268 84.4681 53.141 84.3021 53.014C69.3607 41.5883 69.3607 41.5883 69.1115 41.3977C68.9461 41.2713 68.7808 41.1449 68.6154 41.0185C68.1896 40.6931 67.7643 40.3671 67.3397 40.0401C65.6609 38.5548 65.6609 38.5548 63.6295 37.9303C62.6405 38.0919 61.8198 38.9432 61.0761 39.5668ZM47.7103 41.6176C47.7103 43.5512 47.7103 45.4848 47.7103 47.4769C48.3065 47.0796 48.3065 47.0796 48.8808 46.658C48.9637 46.5945 49.0465 46.531 49.1319 46.4655C49.2163 46.4005 49.3006 46.3354 49.3875 46.2684C49.4706 46.2048 49.5536 46.1411 49.6391 46.0755C49.8083 45.9456 49.9764 45.8142 50.1434 45.6816C50.4056 45.4848 50.4056 45.4848 50.7019 45.3083C51.1473 45.0258 51.4182 44.842 51.5434 44.3142C51.5642 43.8996 51.5525 43.5042 51.5262 43.0897C51.5045 42.6039 51.4827 42.1181 51.4603 41.6176C50.2228 41.6176 48.9853 41.6176 47.7103 41.6176ZM63.1717 44.1591C63.1104 44.2058 63.0491 44.2525 62.986 44.3006C62.85 44.4044 62.7142 44.5084 62.5786 44.6127C62.3504 44.7881 62.1216 44.9628 61.8927 45.1373C61.4698 45.4601 61.0473 45.7835 60.625 46.1071C60.207 46.4273 59.7887 46.747 59.3705 47.0668C59.2044 47.1937 59.0384 47.3207 58.8724 47.4476C49.9076 54.3031 49.9076 54.3031 49.6582 54.4938C49.4932 54.6199 49.3283 54.7461 49.1633 54.8723C48.7326 55.2019 48.3016 55.531 47.8701 55.8595C47.7808 55.9276 47.6915 55.9956 47.5995 56.0657C47.4298 56.1951 47.26 56.3244 47.09 56.4535C47.0127 56.5124 46.9353 56.5714 46.8557 56.6322C46.7886 56.6833 46.7215 56.7343 46.6523 56.7869C46.5761 56.8471 46.4998 56.9072 46.4212 56.9691C46.3022 57.0473 46.1832 57.1254 46.0605 57.206C45.839 57.3929 45.7329 57.5028 45.6533 57.7836C45.6293 58.0697 45.6278 58.3484 45.6336 58.6354C45.633 58.7446 45.6324 58.8537 45.6317 58.9661C45.6306 59.332 45.6344 59.6977 45.6383 60.0635C45.6385 60.3257 45.6384 60.5879 45.638 60.85C45.6378 61.5621 45.6419 62.2741 45.6468 62.9861C45.6512 63.7301 45.6516 64.4741 45.6525 65.2181C45.6544 66.467 45.6588 67.7158 45.6651 68.9647C45.6715 70.2509 45.6765 71.5371 45.6795 72.8234C45.6797 72.9027 45.6799 72.982 45.68 73.0637C45.681 73.4616 45.6819 73.8594 45.6827 74.2573C45.69 77.5571 45.7026 80.8569 45.7181 84.1566C47.3037 84.1566 48.8892 84.1566 50.5228 84.1566C50.5239 83.6372 50.525 83.1178 50.5261 82.5827C50.5301 80.8694 50.5366 79.156 50.5443 77.4427C50.549 76.4036 50.5528 75.3645 50.5546 74.3254C50.5561 73.4198 50.5592 72.5143 50.5644 71.6087C50.567 71.1291 50.5688 70.6495 50.5687 70.1699C50.5686 69.7186 50.5707 69.2673 50.5745 68.816C50.5755 68.6503 50.5757 68.4846 50.575 68.3189C50.5743 68.0927 50.5766 67.8666 50.5792 67.6404C50.5798 67.4505 50.5798 67.4505 50.5805 67.2568C50.6551 66.8472 50.7781 66.7083 51.1087 66.4613C51.4646 66.4157 51.7777 66.3984 52.1334 66.4025C52.2884 66.4016 52.2884 66.4016 52.4466 66.4006C52.788 66.3991 53.1293 66.4011 53.4708 66.4032C53.7081 66.4032 53.9454 66.403 54.1827 66.4027C54.68 66.4025 55.1772 66.404 55.6745 66.4066C56.3121 66.41 56.9497 66.4096 57.5873 66.4082C58.0773 66.4073 58.5673 66.4082 59.0573 66.4097C59.2924 66.4102 59.5275 66.4103 59.7626 66.4098C60.0911 66.4095 60.4196 66.4114 60.7481 66.414C60.894 66.4132 60.894 66.4132 61.0429 66.4124C61.4082 66.4171 61.7043 66.4257 62.032 66.5961C62.326 66.9002 62.3009 67.0946 62.3024 67.5136C62.304 67.66 62.3056 67.8064 62.3073 67.9573C62.3068 68.1198 62.3062 68.2824 62.3055 68.4449C62.3065 68.6158 62.3078 68.7867 62.3092 68.9577C62.3125 69.422 62.3129 69.8864 62.3127 70.3507C62.3131 70.8359 62.3161 71.321 62.3188 71.8062C62.3236 72.7251 62.326 73.6439 62.3275 74.5628C62.3294 75.6088 62.3339 76.6549 62.3386 77.7009C62.3482 79.8528 62.3542 82.0047 62.3587 84.1566C64.563 84.1566 66.7673 84.1566 69.0384 84.1566C69.1931 83.8086 69.3478 83.4605 69.5072 83.1019C70.3568 81.415 71.5583 80.2014 73.3817 79.5936C75.1085 79.1932 76.8071 79.4031 78.3402 80.2821C79.4732 81.0028 79.4732 81.0028 79.7025 81.4613C79.8029 81.4373 79.9034 81.4133 80.0069 81.3885C80.1409 81.357 80.2749 81.3254 80.4129 81.2929C80.6107 81.246 80.6107 81.246 80.8126 81.1981C81.2226 81.1105 81.631 81.0499 82.0462 80.9926C82.0956 77.9651 82.1327 74.9377 82.1555 71.91C82.1664 70.504 82.1812 69.0982 82.2054 67.6924C82.2264 66.4666 82.24 65.2409 82.2447 64.0149C82.2474 63.366 82.2539 62.7177 82.2693 62.0691C82.4929 59.3388 82.4929 59.3388 81.5979 56.8912C81.1755 56.5138 80.7314 56.2654 80.2122 56.045C79.7336 55.818 79.3423 55.4779 78.9334 55.1454C78.7695 55.0195 78.6052 54.894 78.4404 54.7691C77.9331 54.3822 77.4261 53.9949 76.9193 53.6073C76.8362 53.5438 76.7532 53.4803 76.6676 53.4149C75.9203 52.8433 75.1745 52.2697 74.429 51.6957C74.1752 51.5003 73.9212 51.305 73.6673 51.1098C73.5404 51.0121 73.4134 50.9144 73.2865 50.8168C73.1922 50.7443 73.1922 50.7443 73.096 50.6703C72.5248 50.2308 72.5248 50.2308 72.3344 50.0844C72.2071 49.9865 72.0798 49.8886 71.9524 49.7906C71.6408 49.5509 71.3293 49.3112 71.0178 49.0713C70.3004 48.519 69.582 47.9681 68.8626 47.4183C68.2663 46.9626 67.6703 46.5064 67.0755 46.0487C66.955 45.956 66.8344 45.8632 66.7102 45.7677C66.4531 45.5695 66.1961 45.3712 65.9394 45.1726C64.6312 43.908 64.6312 43.908 63.1717 44.1591ZM52.3978 68.2191C52.3978 73.4785 52.3978 78.7379 52.3978 84.1566C55.1048 84.1566 57.8119 84.1566 60.6009 84.1566C60.6009 78.8973 60.6009 73.6379 60.6009 68.2191C57.8939 68.2191 55.1869 68.2191 52.3978 68.2191ZM71.6385 82.8969C71.1222 83.5973 70.8866 84.3852 70.6717 85.2186C70.5619 85.5629 70.5619 85.5629 70.2103 85.7973C69.957 85.8206 69.7028 85.8339 69.4486 85.8412C68.0002 85.9336 67.1044 86.379 66.1087 87.4379C65.3675 88.3501 65.2884 89.1895 65.2884 90.3676C73.4869 90.3676 81.6853 90.3676 90.1322 90.3676C90.1322 89.053 89.9807 88.0081 89.0537 87.0309C87.9663 86.1067 86.8665 85.8817 85.4822 85.8584C85.3919 85.8553 85.3015 85.8522 85.2085 85.849C85.1272 85.8474 85.0458 85.8458 84.9621 85.8442C84.6755 85.7832 84.5719 85.6713 84.39 85.4457C84.2778 85.1582 84.2778 85.1582 84.1776 84.8305C83.8963 84.027 83.5219 83.4822 82.7787 83.0507C82.2254 82.8088 81.7022 82.7589 81.1087 82.8676C80.8003 83.0008 80.5184 83.1497 80.2321 83.3253C79.8219 83.5034 79.5597 83.521 79.1165 83.4535C78.8517 83.2146 78.6533 83.0038 78.4354 82.7284C77.8725 82.0689 77.3703 81.6379 76.5384 81.3441C76.3318 81.268 76.3318 81.268 76.1209 81.1903C74.3372 80.8336 72.7901 81.5359 71.6385 82.8969ZM41.9681 86.0316C41.9681 86.7277 41.9681 87.4238 41.9681 88.141C49.1611 88.141 56.354 88.141 63.765 88.141C64.0357 87.5996 64.3064 87.0582 64.5853 86.5004C64.6626 86.3457 64.74 86.191 64.8197 86.0316C57.2787 86.0316 49.7376 86.0316 41.9681 86.0316Z" fill="white"/>
<path d="M68.0113 66.3211C68.1608 66.3197 68.1608 66.3197 68.3133 66.3182C68.644 66.3153 68.9748 66.3134 69.3055 66.3117C69.4183 66.3111 69.5311 66.3104 69.6474 66.3098C70.2445 66.3067 70.8416 66.3044 71.4388 66.3027C72.0559 66.3008 72.673 66.2955 73.2901 66.2895C73.7643 66.2856 74.2385 66.2842 74.7127 66.2836C74.9402 66.2828 75.1677 66.281 75.3952 66.2782C75.7137 66.2745 76.0319 66.2745 76.3504 66.2754C76.4913 66.2725 76.4913 66.2725 76.6351 66.2695C77.0826 66.2745 77.3364 66.3281 77.7111 66.5782C78.0138 67.0317 78.0283 67.406 78.0216 67.9335C78.0226 68.0333 78.0236 68.133 78.0247 68.2358C78.0273 68.5646 78.0256 68.8933 78.0236 69.2222C78.024 69.4511 78.0245 69.6801 78.0253 69.9091C78.0261 70.3886 78.0249 70.8681 78.0221 71.3477C78.0188 71.962 78.0207 72.5763 78.0242 73.1907C78.0264 73.6634 78.0257 74.1361 78.0242 74.6088C78.0238 74.8353 78.0243 75.0618 78.0256 75.2883C78.0271 75.6051 78.0248 75.9216 78.0216 76.2383C78.0234 76.3784 78.0234 76.3784 78.0252 76.5213C78.0167 76.9672 77.9602 77.2207 77.7102 77.5935C77.259 77.8956 76.89 77.9082 76.3648 77.8983C76.2661 77.8988 76.1673 77.8993 76.0655 77.8997C75.7399 77.9005 75.4145 77.8971 75.0889 77.8936C74.8622 77.8931 74.6356 77.8928 74.409 77.8927C73.9345 77.892 73.46 77.8894 72.9855 77.8852C72.3771 77.8799 71.7689 77.8782 71.1606 77.8777C70.6928 77.8772 70.225 77.8754 69.7572 77.8732C69.5329 77.8721 69.3086 77.8713 69.0843 77.8708C68.7709 77.8697 68.4577 77.8671 68.1443 77.864C68.0052 77.8639 68.0052 77.8639 67.8633 77.8638C67.0326 77.8524 67.0326 77.8524 66.6958 77.5937C66.3721 77.1715 66.4276 76.6642 66.4292 76.1559C66.4283 76.0098 66.4283 76.0098 66.4274 75.8607C66.4258 75.5389 66.4259 75.2171 66.4261 74.8952C66.4257 74.6713 66.4252 74.4475 66.4246 74.2236C66.4237 73.7544 66.4238 73.2852 66.4244 72.816C66.4251 72.2149 66.4231 71.6138 66.4204 71.0128C66.4186 70.5504 66.4185 70.0881 66.4189 69.6257C66.4188 69.4041 66.4182 69.1825 66.417 68.9609C66.4156 68.6509 66.4164 68.3411 66.4178 68.0311C66.4169 67.9397 66.416 67.8483 66.415 67.7541C66.4202 67.2252 66.4831 66.8806 66.8129 66.4609C67.1888 66.273 67.5982 66.3233 68.0113 66.3211ZM68.3364 68.2187C68.3364 69.1082 68.3364 69.9976 68.3364 70.914C69.3032 70.914 70.27 70.914 71.2661 70.914C71.2661 70.0246 71.2661 69.1351 71.2661 68.2187C70.2993 68.2187 69.3325 68.2187 68.3364 68.2187ZM73.1411 68.2187C73.1411 69.1082 73.1411 69.9976 73.1411 70.914C74.1465 70.914 75.152 70.914 76.1879 70.914C76.1879 70.0246 76.1879 69.1351 76.1879 68.2187C75.1825 68.2187 74.177 68.2187 73.1411 68.2187ZM68.3364 72.789C68.3364 73.8332 68.3364 74.8773 68.3364 75.9531C69.3032 75.9531 70.27 75.9531 71.2661 75.9531C71.2661 74.909 71.2661 73.8648 71.2661 72.789C70.2993 72.789 69.3325 72.789 68.3364 72.789ZM73.1411 72.789C73.1411 73.8332 73.1411 74.8773 73.1411 75.9531C74.1465 75.9531 75.152 75.9531 76.1879 75.9531C76.1879 74.909 76.1879 73.8648 76.1879 72.789C75.1825 72.789 74.177 72.789 73.1411 72.789Z" fill="white"/>
<path d="M66.574 52.3207C67.5799 53.1432 68.0336 54.1252 68.1959 55.4024C68.263 56.5606 67.9577 57.5513 67.2812 58.4923C66.4644 59.4058 65.4903 59.9492 64.2623 60.0395C62.8753 60.0617 61.7698 59.7359 60.7476 58.766C60.0035 57.9492 59.6144 57.0186 59.5469 55.9141C59.6235 54.4701 59.9986 53.3865 61.0703 52.3985C62.7556 51.1558 64.8503 51.0864 66.574 52.3207ZM62.0371 54.1417C61.5412 54.7449 61.3653 55.2103 61.3848 55.9915C61.4858 56.7383 61.9066 57.3142 62.4766 57.7891C63.0602 58.1444 63.5972 58.319 64.2838 58.2149C65.0418 58.0288 65.5252 57.7113 65.9922 57.086C66.3471 56.4679 66.4487 55.9098 66.3437 55.211C66.1136 54.4308 65.5903 53.9157 64.9375 53.4532C63.8248 53.0823 62.8226 53.2903 62.0371 54.1417Z" fill="white"/>
<defs>
<clipPath id="clip0_821_2909">
<rect width="94" height="94" fill="white"/>
</clipPath>
</defs>
</svg>
