<svg width="94" height="94" viewBox="0 0 94 94" fill="none" xmlns="http://www.w3.org/2000/svg">
<g clip-path="url(#clip0_220_3551)">
<path d="M70.0901 16.9319C77.6606 22.2757 85.7989 26.3319 90.215 33.0278C94.568 39.7237 95.1358 49.0593 92.9277 57.3004C90.6566 65.5415 85.6096 72.6881 79.6794 78.2251C73.7492 83.8264 66.9989 87.8182 59.5546 90.3935C52.1103 92.9689 44.0351 94.0634 35.0767 93.6127C26.1183 93.0976 16.1506 91.0374 12.4284 84.599C8.70626 78.1607 11.2298 67.4086 8.95861 56.8497C6.75056 46.2908 -0.189036 35.925 0.252575 26.4607C0.631098 17.0607 8.39083 8.49765 17.6647 3.92642C26.9385 -0.709197 37.7895 -1.41742 46.6848 1.67299C55.5801 4.69902 62.5197 11.5237 70.0901 16.9319Z" fill="#F9F6F3"/>
</g>
<g clip-path="url(#clip1_220_3551)">
<path d="M35.2799 33.9797C35.4601 33.9775 35.4601 33.9775 35.6439 33.9751C35.7741 33.9743 35.9043 33.9734 36.0385 33.9725C36.1721 33.9716 36.3056 33.9706 36.4432 33.9697C36.7262 33.968 37.0092 33.9668 37.2923 33.9659C37.7252 33.9638 38.1579 33.9587 38.5908 33.9535C38.8655 33.9523 39.1403 33.9513 39.415 33.9506C39.5445 33.9485 39.6741 33.9464 39.8075 33.9443C40.7076 33.9469 40.7076 33.9469 41.169 34.2233C41.5457 34.6563 41.5164 35.0093 41.5142 35.5593C41.5143 35.6485 41.5144 35.7377 41.5145 35.8296C41.5147 36.1301 41.5141 36.4306 41.5134 36.7311C41.5134 36.9458 41.5134 37.1606 41.5135 37.3754C41.5135 37.9599 41.5128 38.5443 41.512 39.1288C41.5113 39.739 41.5112 40.3493 41.5111 40.9596C41.5107 42.1159 41.5097 43.2721 41.5086 44.4284C41.5072 45.7445 41.5066 47.0606 41.506 48.3767C41.5048 51.0846 41.5026 53.7925 41.5001 56.5005C43.1243 56.5005 44.7486 56.5005 46.422 56.5005C46.4195 56 46.4171 55.4996 46.4145 54.9841C46.4068 53.332 46.4016 51.6799 46.3977 50.0279C46.3953 49.0261 46.392 48.0243 46.3866 47.0225C46.382 46.1493 46.3789 45.2761 46.3779 44.4029C46.3773 43.9405 46.3758 43.4783 46.3724 43.0159C46.3692 42.5806 46.3683 42.1453 46.369 41.7099C46.3688 41.4744 46.3663 41.2389 46.3637 41.0033C46.3697 39.6886 46.3697 39.6886 46.8907 39.1567C47.2934 38.8965 47.6316 38.8924 48.1052 38.891C48.2586 38.89 48.4121 38.889 48.5702 38.888C48.74 38.888 48.9099 38.8881 49.0797 38.8883C49.2587 38.8876 49.4378 38.8868 49.6168 38.8859C50.103 38.8838 50.5892 38.8833 51.0754 38.8831C51.3792 38.883 51.683 38.8825 51.9868 38.8818C53.0468 38.8797 54.1068 38.8787 55.1668 38.8789C56.1547 38.879 57.1425 38.8766 58.1304 38.8729C58.9787 38.8698 59.827 38.8685 60.6754 38.8687C61.182 38.8687 61.6885 38.8681 62.1951 38.8656C62.6716 38.8633 63.1481 38.8633 63.6246 38.865C63.7993 38.8653 63.974 38.8647 64.1487 38.8633C64.3876 38.8615 64.6264 38.8629 64.8653 38.8644C65.0656 38.8642 65.0656 38.8642 65.27 38.864C65.7325 38.9368 65.9834 39.0961 66.3439 39.3911C66.6128 39.7635 66.6072 40.0963 66.6064 40.5479C66.6069 40.7585 66.6069 40.7585 66.6074 40.9733C66.6066 41.1275 66.6057 41.2817 66.6048 41.4406C66.6048 41.6073 66.6048 41.7739 66.6049 41.9406C66.605 42.3868 66.6036 42.8331 66.602 43.2793C66.6006 43.6981 66.6006 44.1168 66.6004 44.5356C66.5992 45.7602 66.5959 46.9848 66.5929 48.2094C66.5881 50.9455 66.5832 53.6815 66.5782 56.5005C73.1525 56.5005 79.7267 56.5005 86.5001 56.5005C86.4947 54.9338 86.4892 53.3671 86.4836 51.753C86.4812 50.7623 86.479 49.7716 86.4772 48.781C86.4744 47.2074 86.4712 45.6339 86.4648 44.0604C86.4601 42.9145 86.4571 41.7687 86.456 40.6228C86.4554 40.0159 86.454 39.4091 86.4506 38.8022C86.4474 38.2312 86.4464 37.6601 86.4471 37.0891C86.447 36.8794 86.446 36.6697 86.4442 36.46C86.4419 36.1738 86.4425 35.8877 86.4437 35.6015C86.4424 35.5184 86.441 35.4353 86.4396 35.3497C86.4464 34.7914 86.5744 34.5099 86.9689 34.1176C87.2587 33.9727 87.4557 33.9832 87.7799 33.9797C87.9601 33.9775 87.9601 33.9775 88.1438 33.9751C88.2741 33.9743 88.4043 33.9734 88.5385 33.9725C88.6721 33.9716 88.8056 33.9706 88.9432 33.9697C89.2262 33.968 89.5092 33.9668 89.7923 33.9659C90.2252 33.9638 90.6579 33.9587 91.0908 33.9535C91.3655 33.9523 91.6403 33.9513 91.915 33.9506C92.1093 33.9475 92.1093 33.9475 92.3075 33.9443C93.2076 33.9469 93.2076 33.9469 93.669 34.2233C94.0627 34.6758 94.0169 35.0715 94.0158 35.6459C94.0161 35.7449 94.0164 35.8439 94.0167 35.9459C94.0175 36.2814 94.0174 36.6168 94.0174 36.9523C94.0177 37.1937 94.0182 37.4352 94.0187 37.6767C94.0198 38.3431 94.0203 39.0095 94.0206 39.6759C94.021 40.3935 94.0222 41.1111 94.0232 41.8287C94.0254 43.481 94.0266 45.1333 94.0276 46.7856C94.0281 47.6018 94.0287 48.4179 94.0293 49.234C94.0314 52.0265 94.0331 54.819 94.034 57.6115C94.0341 57.7869 94.0341 57.9622 94.0342 58.1376C94.0342 58.268 94.0342 58.268 94.0343 58.4011C94.0344 58.8418 94.0346 59.2824 94.0347 59.723C94.0347 59.8105 94.0348 59.8979 94.0348 59.988C94.0357 62.8242 94.0385 65.6605 94.0423 68.4967C94.0463 71.4938 94.0486 74.491 94.049 77.4881C94.049 77.8169 94.0491 78.1457 94.0491 78.4746C94.0492 78.5555 94.0492 78.6365 94.0492 78.7199C94.0495 80.0246 94.0513 81.3292 94.0537 82.6338C94.0561 83.9444 94.0567 85.255 94.0556 86.5657C94.0551 87.2761 94.0553 87.9865 94.0576 88.6969C94.0596 89.3467 94.0595 89.9964 94.0577 90.6462C94.0574 90.8819 94.0579 91.1175 94.0593 91.3531C94.0611 91.6724 94.06 91.9915 94.0581 92.3108C94.0593 92.4032 94.0605 92.4956 94.0618 92.5908C94.0562 93.0271 94.0152 93.2739 93.7768 93.6446C93.414 93.9974 93.2135 94.0158 92.7203 94.0212C92.6002 94.0227 92.4801 94.0242 92.3564 94.0257C92.161 94.027 92.161 94.027 91.9617 94.0284C91.8282 94.0293 91.6946 94.0303 91.557 94.0312C91.274 94.0329 90.991 94.0341 90.708 94.035C90.2751 94.0371 89.8423 94.0422 89.4094 94.0474C89.1347 94.0486 88.86 94.0496 88.5852 94.0503C88.4557 94.0524 88.3262 94.0544 88.1927 94.0566C87.2927 94.054 87.2927 94.054 86.8312 93.7776C85.2375 91.9456 86.5001 88.9287 86.5001 86.5004C71.6501 86.5004 56.8001 86.5004 41.5001 86.5004C41.5001 88.7434 41.5001 90.9864 41.5001 93.2973C41.0314 93.8833 41.0314 93.8833 40.797 94.0004C40.6051 94.0134 40.4126 94.0191 40.2203 94.0212C40.1002 94.0227 39.9801 94.0242 39.8564 94.0257C39.661 94.027 39.661 94.027 39.4617 94.0284C39.3282 94.0293 39.1946 94.0303 39.057 94.0312C38.774 94.0329 38.491 94.0341 38.208 94.035C37.7751 94.0371 37.3423 94.0422 36.9094 94.0474C36.6347 94.0486 36.36 94.0496 36.0852 94.0503C35.9557 94.0524 35.8262 94.0544 35.6927 94.0566C34.7927 94.054 34.7927 94.054 34.3312 93.7776C33.9376 93.3251 33.9833 92.9294 33.9844 92.355C33.9841 92.256 33.9838 92.157 33.9835 92.055C33.9828 91.7195 33.9828 91.3841 33.9829 91.0486C33.9825 90.8072 33.982 90.5657 33.9816 90.3242C33.9804 89.6578 33.98 88.9914 33.9796 88.325C33.9792 87.6074 33.9781 86.8898 33.977 86.1722C33.9748 84.5199 33.9736 82.8676 33.9726 81.2153C33.9722 80.3991 33.9715 79.583 33.9709 78.7669C33.9688 75.9744 33.9671 73.1819 33.9662 70.3894C33.9661 70.214 33.9661 70.0387 33.966 69.8633C33.966 69.7763 33.966 69.6894 33.9659 69.5998C33.9658 69.1591 33.9657 68.7185 33.9655 68.2779C33.9655 68.1904 33.9655 68.103 33.9654 68.0129C33.9645 65.1766 33.9618 62.3404 33.958 59.5042C33.9539 56.5071 33.9516 53.5099 33.9512 50.5128C33.9512 50.184 33.9511 49.8552 33.9511 49.5263C33.9511 49.4049 33.9511 49.4049 33.951 49.281C33.9508 47.9763 33.9489 46.6717 33.9465 45.3671C33.9442 44.0565 33.9435 42.7459 33.9446 41.4352C33.9452 40.7248 33.9449 40.0144 33.9427 39.304C33.9406 38.6542 33.9407 38.0045 33.9425 37.3547C33.9428 37.119 33.9423 36.8834 33.9409 36.6478C33.9392 36.3285 33.9403 36.0094 33.9421 35.6901C33.9409 35.5977 33.9397 35.5053 33.9385 35.4101C33.944 34.9738 33.9851 34.727 34.2235 34.3563C34.5862 34.0035 34.7867 33.9851 35.2799 33.9797ZM36.5782 36.5786C36.5782 54.677 36.5782 72.7754 36.5782 91.4223C37.3517 91.4223 38.1251 91.4223 38.922 91.4223C38.922 73.3239 38.922 55.2254 38.922 36.5786C38.1486 36.5786 37.3751 36.5786 36.5782 36.5786ZM89.0782 36.5786C89.0782 54.677 89.0782 72.7754 89.0782 91.4223C89.8517 91.4223 90.6251 91.4223 91.422 91.4223C91.422 73.3239 91.422 55.2254 91.422 36.5786C90.6486 36.5786 89.8751 36.5786 89.0782 36.5786ZM49.0001 41.5004C49.0001 46.4504 49.0001 51.4004 49.0001 56.5005C53.9501 56.5005 58.9001 56.5005 64.0001 56.5005C64.0001 51.5504 64.0001 46.6004 64.0001 41.5004C61.9505 41.5004 59.9009 41.5004 57.7892 41.5004C57.7848 41.9758 57.7804 42.4512 57.7759 42.941C57.7714 43.3209 57.7666 43.7007 57.7616 44.0805C57.7563 44.481 57.7517 44.8815 57.7486 45.2821C57.7449 45.742 57.7385 46.2018 57.732 46.6617C57.7312 46.8048 57.7305 46.9479 57.7297 47.0953C57.7274 47.229 57.725 47.3627 57.7227 47.5004C57.7214 47.6178 57.7201 47.7352 57.7187 47.8561C57.6641 48.2347 57.5441 48.4582 57.3204 48.7661C56.8881 48.9822 56.3861 48.9404 55.9142 48.8833C55.6123 48.6623 55.4927 48.509 55.3282 48.1801C55.3142 47.9672 55.3075 47.7537 55.3042 47.5404C55.3007 47.3398 55.3007 47.3398 55.2971 47.1352C55.2951 46.9903 55.2932 46.8454 55.2912 46.6961C55.2887 46.5481 55.2863 46.4002 55.2838 46.2478C55.2774 45.8544 55.2715 45.461 55.2659 45.0676C55.26 44.6662 55.2535 44.2648 55.247 43.8634C55.2343 43.0758 55.2227 42.2881 55.2111 41.5004C53.1614 41.5004 51.1118 41.5004 49.0001 41.5004ZM41.5001 59.0786C41.5001 67.277 41.5001 75.4754 41.5001 83.9223C42.3122 83.9223 43.1243 83.9223 43.9611 83.9223C43.9612 83.746 43.9614 83.5696 43.9616 83.3879C43.9635 81.7274 43.9685 80.0668 43.9765 78.4063C43.9806 77.5525 43.9836 76.6988 43.984 75.8451C43.9843 75.1009 43.9867 74.3567 43.9916 73.6126C43.9941 73.2186 43.9956 72.8246 43.9946 72.4306C43.994 71.9906 43.9971 71.5508 44.001 71.1108C44 70.9803 43.9989 70.8498 43.9979 70.7154C44.0111 69.8306 44.0111 69.8307 44.3614 69.3715C44.7903 69.0673 44.9973 69.0245 45.5182 69.0223C45.6496 69.0214 45.781 69.0206 45.9164 69.0197C46.0613 69.0194 46.2062 69.0191 46.3555 69.0188C46.5076 69.018 46.6596 69.0172 46.8163 69.0164C47.2342 69.0144 47.6522 69.0132 48.0701 69.0122C48.3312 69.0116 48.5923 69.0109 48.8535 69.0101C49.6705 69.0079 50.4875 69.0062 51.3046 69.0053C52.2476 69.0041 53.1906 69.001 54.1337 68.9963C54.8626 68.9928 55.5915 68.991 56.3204 68.9906C56.7557 68.9904 57.191 68.9893 57.6263 68.9864C58.1123 68.9831 58.5981 68.9836 59.0841 68.9844C59.228 68.9829 59.372 68.9814 59.5203 68.9799C60.2614 68.9844 60.7496 68.9919 61.3048 69.5083C61.4488 69.7963 61.4382 69.9869 61.4405 70.3091C61.4422 70.4886 61.4422 70.4886 61.444 70.6717C61.4447 70.8034 61.4454 70.9352 61.446 71.0709C61.4472 71.2092 61.4484 71.3476 61.4496 71.4901C61.4526 71.87 61.4552 72.2498 61.4575 72.6297C61.4601 73.0265 61.4633 73.4233 61.4664 73.8201C61.4723 74.5717 61.4776 75.3233 61.4826 76.0749C61.4884 76.9305 61.4948 77.7861 61.5013 78.6417C61.5147 80.4019 61.5272 82.1621 61.5392 83.9223C62.3513 83.9223 63.1634 83.9223 64.0001 83.9223C64.0005 83.7134 64.001 83.5045 64.0014 83.2893C64.0057 81.3234 64.0125 79.3576 64.0217 77.3918C64.0263 76.381 64.0301 75.3703 64.0319 74.3596C64.0334 73.4787 64.0365 72.5979 64.0417 71.717C64.0443 71.2505 64.0462 70.7841 64.046 70.3176C64.0459 69.8785 64.048 69.4396 64.0518 69.0006C64.0528 68.8394 64.053 68.6782 64.0524 68.517C64.0516 68.297 64.054 68.077 64.0565 67.8571C64.0571 67.6724 64.0571 67.6724 64.0578 67.4839C64.1323 67.0841 64.2742 66.9481 64.5861 66.6958C64.912 66.5328 65.1783 66.5627 65.5431 66.5613C65.7746 66.5601 65.7746 66.5601 66.0107 66.5588C66.1827 66.5585 66.3547 66.5581 66.5267 66.5578C66.707 66.5571 66.8873 66.5563 67.0677 66.5555C67.5585 66.5535 68.0493 66.5522 68.5401 66.5513C68.8466 66.5507 69.1531 66.5499 69.4596 66.5492C70.4182 66.547 71.3769 66.5453 72.3355 66.5443C73.4428 66.5432 74.55 66.5401 75.6573 66.5354C76.5127 66.5318 77.3681 66.5301 78.2235 66.5297C78.7346 66.5294 79.2457 66.5284 79.7568 66.5254C80.2376 66.5227 80.7184 66.5222 81.1993 66.5234C81.3757 66.5235 81.5521 66.5227 81.7286 66.5211C81.9696 66.519 82.2105 66.5199 82.4515 66.5214C82.5863 66.5211 82.7212 66.5209 82.8601 66.5206C83.2968 66.5912 83.4908 66.7419 83.8048 67.0473C83.9601 67.358 83.9384 67.5936 83.9405 67.9416C83.9423 68.1521 83.9422 68.1521 83.944 68.3669C83.9447 68.5232 83.9454 68.6795 83.946 68.8359C83.9472 68.9998 83.9483 69.1638 83.9496 69.3278C83.9527 69.7738 83.9552 70.2197 83.9575 70.6657C83.9601 71.1315 83.9633 71.5972 83.9664 72.063C83.9723 72.9453 83.9776 73.8277 83.9826 74.71C83.9884 75.7144 83.9948 76.7188 84.0013 77.7231C84.0147 79.7895 84.0272 81.8559 84.0392 83.9223C84.8513 83.9223 85.6634 83.9223 86.5001 83.9223C86.5001 75.7239 86.5001 67.5255 86.5001 59.0786C71.6501 59.0786 56.8001 59.0786 41.5001 59.0786ZM66.5782 69.0395C66.5782 73.9508 66.5782 78.8622 66.5782 83.9223C71.4896 83.9223 76.4009 83.9223 81.4611 83.9223C81.4611 79.011 81.4611 74.0997 81.4611 69.0395C79.4114 69.0395 77.3618 69.0395 75.2501 69.0395C75.2471 69.5247 75.2441 70.0099 75.241 70.5098C75.2372 70.897 75.2331 71.2842 75.2286 71.6714C75.224 72.08 75.2202 72.4885 75.2184 72.8971C75.2162 73.366 75.2104 73.8349 75.2043 74.3038C75.2042 74.45 75.204 74.5963 75.2039 74.747C75.2016 74.883 75.1993 75.0191 75.1969 75.1592C75.1953 75.3388 75.1953 75.3388 75.1937 75.522C75.1173 75.9174 74.9723 76.0544 74.6642 76.3051C74.2872 76.4936 73.9 76.4942 73.4923 76.4223C73.1769 76.1674 72.9702 75.964 72.7892 75.602C72.7752 75.3927 72.7684 75.1828 72.7651 74.973C72.7616 74.7759 72.7616 74.7759 72.758 74.5749C72.7561 74.4326 72.7541 74.2902 72.7521 74.1436C72.7497 73.9982 72.7472 73.8529 72.7447 73.7032C72.7383 73.3167 72.7325 72.9303 72.7268 72.5438C72.7209 72.1495 72.7144 71.7551 72.7079 71.3608C72.6953 70.5871 72.6837 69.8133 72.672 69.0395C70.6611 69.0395 68.6501 69.0395 66.5782 69.0395ZM46.5392 71.5004C46.5392 75.5997 46.5392 79.6989 46.5392 83.9223C50.6384 83.9223 54.7376 83.9223 58.9611 83.9223C58.9611 79.8231 58.9611 75.7239 58.9611 71.5004C57.3368 71.5004 55.7126 71.5004 54.0392 71.5004C54.0192 72.8624 54.0192 72.8624 54.0043 74.2245C54.0008 74.396 53.9972 74.5676 53.9934 74.7391C53.9933 74.8272 53.9931 74.9153 53.993 75.0061C53.9772 75.5883 53.8711 75.8967 53.4532 76.3051C53.078 76.4927 52.6885 76.4808 52.2814 76.4223C51.9521 76.2121 51.7529 76.0686 51.5782 75.7192C51.5599 75.4032 51.548 75.0897 51.5412 74.7735C51.539 74.6908 51.5368 74.6081 51.5345 74.5229C51.5265 74.2136 51.5195 73.9044 51.5123 73.5952C51.4869 72.5583 51.4869 72.5583 51.4611 71.5004C49.8368 71.5004 48.2126 71.5004 46.5392 71.5004Z" fill="#F5344F"/>
</g>
<defs>
<clipPath id="clip0_220_3551">
<rect width="94" height="94" fill="white"/>
</clipPath>
<clipPath id="clip1_220_3551">
<rect width="60" height="60" fill="white" transform="translate(34 34)"/>
</clipPath>
</defs>
</svg>
