<svg width="90" height="48" viewBox="0 0 90 48" fill="none" xmlns="http://www.w3.org/2000/svg">
<g clip-path="url(#clip0_220_3366)">
<path d="M41.3628 0.56077C41.3899 0.57243 41.4171 0.58409 41.4451 0.596103C42.7055 1.14388 43.8478 2.07074 44.6798 3.16511C44.7169 3.21269 44.754 3.26027 44.7911 3.30785C45.8396 4.66626 47.2376 6.92842 47.2376 8.69433C59.6345 8.69433 72.0315 8.69433 84.8042 8.69433C84.7778 8.93232 84.7514 9.17032 84.7242 9.41553C84.7242 9.49486 84.7242 9.57419 84.7242 9.65593C84.7459 9.63661 84.7676 9.6173 84.79 9.59739C84.8186 9.57209 84.8472 9.54678 84.8766 9.5207C84.9049 9.4956 84.9332 9.4705 84.9623 9.44464C85.044 9.37546 85.044 9.37546 85.1639 9.29533C85.2965 9.30831 85.365 9.36108 85.4592 9.45215C85.4841 9.47589 85.509 9.49964 85.5346 9.5241C85.5607 9.54942 85.5867 9.57475 85.6135 9.60084C85.6676 9.65257 85.7218 9.70427 85.776 9.75594C85.8145 9.79288 85.8145 9.79288 85.8539 9.83058C85.954 9.92554 86.0577 10.0158 86.1622 10.1057C86.2494 10.1825 86.3344 10.2615 86.4194 10.3408C86.82 10.7133 87.1034 10.9208 87.6526 11.0049C87.6975 11.012 87.6975 11.012 87.7433 11.0193C87.8024 11.0284 87.8615 11.0367 87.9208 11.0441C88.1368 11.0765 88.2456 11.1441 88.401 11.2987C88.6492 11.6756 88.7502 12.2952 88.6807 12.7411C88.6221 12.8572 88.5868 12.9253 88.4759 12.994C88.32 13.0314 88.1602 13.0506 88.0013 13.0215C87.908 12.8812 87.8884 12.7535 87.8615 12.5908C87.8262 12.3824 87.7829 12.1823 87.7216 11.9798C87.1274 11.86 87.1274 11.86 86.5626 12.0199C86.4036 12.1617 86.2983 12.3146 86.1979 12.5007C86.1712 12.5491 86.1445 12.5975 86.1177 12.6459C86.0738 12.7255 86.0313 12.806 85.9924 12.8883C85.9232 12.9815 85.9232 12.9815 85.8229 13.0061C85.7625 13.0058 85.7625 13.0058 85.7009 13.0056C85.6547 13.0058 85.6084 13.0061 85.5608 13.0064C85.51 13.0057 85.4593 13.005 85.407 13.0042C85.353 13.0042 85.299 13.0042 85.2451 13.0043C85.0985 13.0044 84.952 13.0032 84.8054 13.0018C84.6523 13.0005 84.4992 13.0004 84.346 13.0002C84.056 12.9996 83.766 12.9979 83.476 12.9959C83.1459 12.9937 82.8157 12.9926 82.4856 12.9916C81.8064 12.9895 81.1272 12.9859 80.448 12.9815C80.4289 12.924 80.4097 12.8665 80.3906 12.809C80.3799 12.7769 80.3692 12.7449 80.3583 12.7119C80.3345 12.6402 80.3114 12.5683 80.2885 12.4963C80.2029 12.2395 80.1202 12.0711 79.8811 11.9272C79.5871 11.8552 79.2796 11.8791 79.0093 12.0199C78.8181 12.1587 78.7114 12.2928 78.6022 12.5007C78.5758 12.5491 78.5494 12.5975 78.523 12.6459C78.4489 12.775 78.4489 12.775 78.4078 12.8963C78.3109 13.0023 78.2754 12.9955 78.1355 13.0054C78.0958 13.0083 78.0561 13.0112 78.0153 13.0142C77.2013 13.062 76.3872 13.0677 75.5721 13.067C75.4457 13.0669 75.3192 13.067 75.1928 13.067C74.8903 13.0671 74.5878 13.067 74.2853 13.0668C73.9895 13.0666 73.6938 13.0667 73.398 13.0669C72.1907 13.0677 70.9833 13.0675 69.776 13.0524C69.741 13.052 69.7059 13.0515 69.6699 13.0511C69.5256 13.0493 69.3813 13.0474 69.237 13.0456C67.3864 13.0221 65.5362 13.0166 63.6855 13.0191C63.2644 13.0196 62.8433 13.0199 62.4223 13.0202C61.693 13.0207 60.9637 13.0213 60.2344 13.0221C59.0791 13.0232 57.9239 13.0239 56.7686 13.0245C56.521 13.0246 56.2733 13.0248 56.0257 13.0249C55.9763 13.0249 55.927 13.0249 55.8762 13.025C55.7763 13.025 55.6764 13.0251 55.5765 13.0251C55.4763 13.0252 55.376 13.0252 55.2758 13.0253C54.1023 13.0259 52.9288 13.0266 51.7553 13.0273C51.7041 13.0274 51.653 13.0274 51.6003 13.0274C49.933 13.0285 48.2657 13.0299 46.5984 13.0316C44.8763 13.0333 43.1542 13.0344 41.4321 13.0349C41.1892 13.035 40.9463 13.0351 40.7034 13.0352C40.6317 13.0352 40.6317 13.0352 40.5586 13.0352C39.791 13.0355 39.0234 13.0364 38.2559 13.0375C37.4866 13.0385 36.7173 13.039 35.948 13.0389C35.4914 13.0389 35.0348 13.0393 34.5783 13.0404C34.2733 13.041 33.9684 13.0411 33.6634 13.0407C33.4898 13.0405 33.3162 13.0406 33.1425 13.0413C32.9843 13.042 32.8262 13.0419 32.668 13.0413C32.6114 13.0412 32.5548 13.0414 32.4982 13.0418C32.0952 13.045 31.7538 12.981 31.3717 12.8613C31.3717 12.7411 31.3717 12.7411 31.4287 12.6782C31.4535 12.6576 31.4784 12.637 31.5041 12.6159C31.5286 12.5951 31.5532 12.5743 31.5785 12.5529C31.7069 12.4609 31.8176 12.4556 31.9703 12.4559C32.0117 12.4559 32.0532 12.4558 32.0958 12.4558C32.1416 12.456 32.1874 12.4561 32.2345 12.4563C32.2832 12.4563 32.3318 12.4563 32.3819 12.4564C32.5179 12.4565 32.6538 12.4567 32.7898 12.4571C32.9375 12.4574 33.0853 12.4576 33.233 12.4577C33.4925 12.458 33.7521 12.4584 34.0116 12.4589C34.3981 12.4597 34.7846 12.4603 35.1711 12.4608C35.824 12.4616 36.4769 12.4626 37.1297 12.4638C37.7835 12.4649 38.4373 12.466 39.091 12.4669C39.1524 12.467 39.1524 12.467 39.215 12.4671C39.4231 12.4674 39.6312 12.4677 39.8392 12.468C41.32 12.4701 42.8009 12.4723 44.2817 12.4747C44.3714 12.4748 44.461 12.475 44.5507 12.4751C44.5951 12.4752 44.6395 12.4753 44.6852 12.4753C44.9094 12.4757 45.1335 12.4761 45.3577 12.4764C45.4021 12.4765 45.4464 12.4766 45.4921 12.4766C48.5499 12.4815 51.6076 12.4861 54.6653 12.4905C54.7282 12.4906 54.7282 12.4906 54.7923 12.4907C60.4552 12.499 60.4552 12.499 68.044 12.5044C68.4388 12.5045 68.8336 12.5047 69.2285 12.5049C71.5966 12.5065 73.9639 12.5006 76.3317 12.4606C76.5295 11.4491 76.5295 11.4491 76.7313 10.4172C76.2485 10.4166 76.2485 10.4166 75.756 10.4159C73.6234 10.4132 71.4909 10.4104 69.3583 10.4074C69.3218 10.4074 69.2852 10.4073 69.2476 10.4073C68.4526 10.4062 67.6577 10.4051 66.8628 10.4039C66.4728 10.4034 66.0828 10.4028 65.6928 10.4023C65.6346 10.4022 65.6346 10.4022 65.5752 10.4021C64.3243 10.4004 63.0735 10.3987 61.8226 10.3971C60.5339 10.3955 59.2452 10.3937 57.9565 10.3918C57.7732 10.3916 57.5899 10.3913 57.4066 10.391C57.3706 10.391 57.3345 10.3909 57.2973 10.3909C56.7239 10.39 56.1504 10.3893 55.5769 10.3887C54.9961 10.388 54.4154 10.3872 53.8346 10.3862C53.5216 10.3857 53.2087 10.3853 52.8957 10.385C51.116 10.3834 49.3368 10.3649 47.5573 10.3371C47.5765 10.4626 47.5957 10.5881 47.6149 10.7136C47.6203 10.7489 47.6257 10.7843 47.6312 10.8206C47.6591 11.0027 47.687 11.1847 47.7151 11.3667C47.725 11.4317 47.7348 11.4967 47.7446 11.5618C47.7498 11.5949 47.755 11.6281 47.7603 11.6623C47.7885 11.8507 47.8024 12.0297 47.7971 12.2202C47.7291 12.1181 47.6964 12.0512 47.6604 11.9375C47.65 11.905 47.6396 11.8725 47.6289 11.839C47.6179 11.8041 47.607 11.7691 47.5957 11.7331C47.5843 11.6971 47.5728 11.6611 47.5611 11.624C47.537 11.5479 47.513 11.4718 47.4891 11.3957C47.4525 11.279 47.4155 11.1624 47.3784 11.0459C47.355 10.972 47.3317 10.8981 47.3084 10.8241C47.2918 10.7717 47.2918 10.7717 47.2748 10.7183C47.2646 10.6858 47.2545 10.6533 47.244 10.6198C47.235 10.5912 47.2261 10.5627 47.2168 10.5333C47.1976 10.4573 47.1976 10.4573 47.1976 10.3371C42.674 10.3371 38.1504 10.3371 33.4898 10.3371C33.7608 10.02 33.7608 10.02 33.8944 9.9414C33.9201 9.92581 33.9457 9.91021 33.9722 9.89414C34.1456 9.80894 34.3074 9.81122 34.4991 9.81131C34.5433 9.81125 34.5433 9.81125 34.5884 9.81119C34.6879 9.8111 34.7873 9.8113 34.8868 9.81149C34.9588 9.81148 35.0309 9.81146 35.1029 9.81142C35.3022 9.81137 35.5015 9.81156 35.7007 9.81179C35.917 9.812 36.1333 9.81198 36.3496 9.81199C36.7292 9.81203 37.1087 9.81221 37.4883 9.8125C38.0526 9.81292 38.617 9.81311 39.1814 9.81325C39.4502 9.81332 39.7189 9.8134 39.9877 9.81348C40.0147 9.81349 40.0418 9.8135 40.0697 9.81351C40.6938 9.81371 41.3179 9.81403 41.9421 9.81436C42.9119 9.81488 43.8817 9.81528 44.8515 9.81552C44.8953 9.81553 44.8953 9.81553 44.94 9.81554C45.2961 9.81562 45.6522 9.81571 46.0084 9.81579C46.5516 9.81591 47.0949 9.81604 47.6381 9.81618C47.6991 9.8162 47.7601 9.81621 47.8211 9.81623C49.259 9.81658 50.6968 9.81704 52.1347 9.81754C52.2301 9.81758 52.3256 9.81761 52.421 9.81764C53.8907 9.81815 55.3604 9.81871 56.83 9.81936C56.8939 9.81939 56.9577 9.81942 57.0216 9.81945C57.3085 9.81957 57.5954 9.8197 57.8823 9.81983C58.0095 9.81989 58.1368 9.81994 58.264 9.82C58.3594 9.82004 58.4547 9.82008 58.5501 9.82013C59.9862 9.82076 61.4223 9.82134 62.8584 9.82167C62.9037 9.82168 62.9037 9.82168 62.9499 9.82169C63.5827 9.82184 64.2155 9.82197 64.8483 9.82208C65.1446 9.82213 65.4409 9.82218 65.7372 9.82224C65.781 9.82225 65.781 9.82225 65.8256 9.82226C66.7658 9.82244 67.7059 9.8229 68.646 9.8235C69.6191 9.82413 70.5923 9.82448 71.5655 9.82451C72.1267 9.82454 72.688 9.82479 73.2493 9.82536C73.6239 9.82572 73.9985 9.82579 74.3731 9.82563C74.5868 9.82554 74.8004 9.82558 75.0141 9.82598C75.2084 9.82633 75.4027 9.82632 75.597 9.82601C75.6669 9.82597 75.7368 9.82606 75.8067 9.8263C76.3149 9.83341 76.3149 9.83341 76.8113 9.73606C76.8774 9.6698 76.8766 9.58343 76.8937 9.49316C76.9008 9.45633 76.9078 9.41951 76.9151 9.38157C76.9204 9.35311 76.9257 9.32465 76.9312 9.29533C76.1913 9.26132 75.4516 9.24325 74.7111 9.23301C74.6818 9.23259 74.6525 9.23218 74.6224 9.23175C72.9806 9.20841 71.3387 9.20969 69.6967 9.21048C69.2314 9.2107 68.766 9.21067 68.3006 9.21064C67.4425 9.21058 66.5843 9.21072 65.7262 9.21096C64.8787 9.2112 64.0313 9.21135 63.1839 9.21139C63.1441 9.2114 63.1441 9.2114 63.1035 9.2114C62.8613 9.21141 62.6191 9.21142 62.3769 9.21143C61.7753 9.21146 61.1737 9.2115 60.5721 9.21154C60.5448 9.21154 60.5174 9.21155 60.4892 9.21155C59.1644 9.21165 57.8396 9.21191 56.5148 9.21217C56.0562 9.21226 55.5976 9.21235 55.139 9.21244C55.1105 9.21245 55.0821 9.21245 55.0527 9.21246C53.7252 9.21272 52.3977 9.21286 51.0702 9.21299C50.9838 9.21299 50.8974 9.213 50.811 9.21301C50.2384 9.21306 49.6657 9.21311 49.0931 9.21316C47.9541 9.21326 46.8151 9.21337 45.6761 9.21349C45.6219 9.2135 45.5677 9.2135 45.5135 9.21351C41.9185 9.21388 38.3236 9.21451 34.7287 9.21519C34.9112 8.88084 34.9112 8.88084 35.1283 8.77446C35.2562 8.74555 35.383 8.7348 35.5136 8.72592C35.5506 8.72293 35.5876 8.71995 35.6257 8.71687C36.0025 8.68814 36.3793 8.67621 36.757 8.6696C36.7937 8.66886 36.8305 8.66812 36.8683 8.66736C37.8615 8.64739 38.8549 8.64806 39.8482 8.64911C40.0035 8.64925 40.1588 8.64932 40.3141 8.64936C42.2891 8.65003 44.2637 8.66673 46.2385 8.69433C46.1821 8.58522 46.1254 8.47627 46.0686 8.36738C46.0449 8.32138 46.0449 8.32138 46.0207 8.27446C45.8923 8.02904 45.744 7.81896 45.5591 7.61252C45.5298 7.5789 45.5005 7.54528 45.4704 7.51063C45.3814 7.40968 45.2909 7.31047 45.1994 7.21186C45.1627 7.1718 45.1627 7.1718 45.1252 7.13094C44.8812 6.87476 44.6017 6.66323 44.3202 6.45059C44.2857 6.42436 44.2857 6.42436 44.2505 6.39761C42.873 5.35753 41.2414 4.86866 39.5219 5.09583C37.4352 5.39933 35.6085 6.4717 34.003 7.79265C33.9387 7.84531 33.874 7.89745 33.8092 7.94949C33.4693 8.22319 33.1432 8.5149 32.8399 8.82908C32.7305 8.93473 32.7305 8.93473 32.6505 8.93473C32.6356 8.96938 32.6356 8.96938 32.6203 9.00473C32.5637 9.1076 32.4991 9.17512 32.4153 9.25714C32.3843 9.28771 32.3534 9.31829 32.3215 9.34979C32.2892 9.3814 32.2568 9.41301 32.2234 9.44558C31.9961 9.66849 31.7776 9.89389 31.5715 10.1367C31.5326 10.1815 31.4937 10.2263 31.4547 10.271C31.1993 10.5666 30.9528 10.8676 30.7149 11.1775C30.6463 11.2664 30.5771 11.3546 30.5079 11.443C29.9664 12.1392 29.4706 12.872 29.0169 13.6288C28.8155 13.9614 28.8155 13.9614 28.694 14.0633C28.5773 14.0881 28.493 14.0969 28.3764 14.0954C28.3288 14.0962 28.3288 14.0962 28.2802 14.097C28.1736 14.0985 28.0672 14.0983 27.9606 14.098C27.8837 14.0987 27.8069 14.0995 27.73 14.1004C27.5215 14.1025 27.3131 14.103 27.1046 14.1032C26.9348 14.1034 26.765 14.1044 26.5951 14.1054C26.036 14.1085 25.4769 14.1085 24.9178 14.108C24.6771 14.1078 24.4364 14.1079 24.1957 14.1079C23.7048 14.108 23.214 14.1078 22.7232 14.1076C22.2386 14.1073 21.754 14.1072 21.2695 14.1071C21.2391 14.1071 21.2087 14.1071 21.1775 14.1071C21.0233 14.1071 20.8691 14.1071 20.7148 14.1071C19.6282 14.107 18.5415 14.1067 17.4549 14.1064C16.4005 14.106 15.3461 14.1057 14.2918 14.1055C14.2592 14.1055 14.2266 14.1055 14.193 14.1055C13.8654 14.1055 13.5378 14.1054 13.2102 14.1054C12.5431 14.1053 11.8761 14.1052 11.209 14.105C11.1783 14.105 11.1477 14.105 11.1161 14.105C9.07577 14.1047 7.03544 14.104 4.99512 14.1033C5.03508 14.0232 5.03508 14.0232 5.1061 13.9983C5.60709 13.8871 6.10808 13.8027 6.6179 13.7443C6.66137 13.7393 6.66137 13.7393 6.70572 13.7341C7.34064 13.6605 7.97683 13.6034 8.6136 13.5486C8.95427 13.5192 9.29486 13.4888 9.63543 13.4583C9.6703 13.4552 9.70518 13.452 9.74112 13.4488C10.4852 13.382 11.2284 13.3079 11.9715 13.2308C12.0024 13.2276 12.0333 13.2244 12.0652 13.2211C12.4478 13.1814 12.8304 13.1413 13.213 13.101C13.4488 13.0762 13.6846 13.0515 13.9204 13.0268C13.9548 13.0232 13.9892 13.0196 14.0246 13.0159C14.0945 13.0086 14.1644 13.0012 14.2343 12.9939C14.8775 12.9266 15.5206 12.859 16.1637 12.7913C16.7502 12.7295 17.3367 12.6682 17.9232 12.607C18.5322 12.5434 19.1412 12.4796 19.7502 12.4156C20.0894 12.3799 20.4287 12.3443 20.768 12.3089C21.0547 12.2791 21.3413 12.249 21.6279 12.2186C21.7736 12.2032 21.9193 12.1878 22.065 12.1728C22.2233 12.1565 22.3815 12.1396 22.5396 12.1227C22.585 12.1181 22.6303 12.1135 22.677 12.1088C23.2913 12.057 23.2913 12.057 23.8184 11.7795C24.0088 11.5399 24.1003 11.2613 24.218 10.9781C21.6068 10.9781 18.9955 10.9781 16.3051 10.9781C16.6192 10.6632 17.2565 10.5921 17.6838 10.4923C17.7158 10.4848 17.7477 10.4773 17.7806 10.4696C19.4472 10.0791 21.1339 9.77999 22.8179 9.47647C22.9722 9.44866 23.1265 9.4208 23.2807 9.39276C23.3107 9.38731 23.3406 9.38187 23.3715 9.37626C23.4314 9.36538 23.4912 9.35448 23.5511 9.34359C23.7304 9.31105 23.9098 9.2792 24.0892 9.24785C24.2055 9.22743 24.3217 9.20657 24.4379 9.18562C24.5171 9.17149 24.5965 9.15792 24.6758 9.14437C25.1605 9.05626 25.634 8.9263 25.9314 8.50933C26.0534 8.32159 26.156 8.13405 26.2562 7.93306C24.5945 7.91984 22.9328 7.90661 21.2207 7.89299C21.2207 7.86655 21.2207 7.8401 21.2207 7.81286C21.2544 7.80359 21.288 7.79433 21.3227 7.78479C22.1296 7.56272 22.9365 7.34035 23.7432 7.1176C23.8189 7.09672 23.8945 7.07585 23.9701 7.05497C24.0261 7.03952 24.0261 7.03952 24.0832 7.02375C24.3365 6.95381 24.5899 6.88398 24.8433 6.81422C25.143 6.73171 25.4427 6.649 25.7422 6.56606C25.8976 6.52304 26.0531 6.4801 26.2086 6.4374C26.3545 6.3973 26.5004 6.35696 26.6463 6.31643C26.7239 6.29491 26.8017 6.27366 26.8794 6.25241C27.4911 6.08173 28.0308 5.91057 28.4218 5.38882C28.6569 5.08964 28.9126 4.81611 29.1811 4.54741C29.2172 4.51108 29.2532 4.47475 29.2903 4.43731C29.5022 4.22702 29.7215 4.03266 29.9541 3.84576C30.0558 3.76372 30.154 3.67866 30.2518 3.59199C30.5779 3.30376 30.9249 3.04648 31.2777 2.79217C31.3659 2.72853 31.4538 2.66443 31.5417 2.60026C34.3082 0.594948 38.0137 -0.899172 41.3628 0.56077Z" fill="white"/>
<path d="M3.65375 15.0349C3.72865 15.0338 3.80357 15.034 3.87847 15.0353C3.91976 15.035 3.96105 15.0347 4.0036 15.0345C4.14246 15.0339 4.28126 15.035 4.42011 15.0361C4.51951 15.0361 4.6189 15.0359 4.71829 15.0356C4.96071 15.0353 5.20309 15.036 5.4455 15.0373C5.72845 15.0387 6.0114 15.0388 6.29435 15.0388C6.80012 15.039 7.30587 15.0402 7.81163 15.0422C8.30075 15.044 8.78987 15.0452 9.279 15.0455C9.30902 15.0455 9.33904 15.0455 9.36997 15.0455C9.43046 15.0455 9.49095 15.0456 9.55144 15.0456C9.58129 15.0456 9.61114 15.0457 9.6419 15.0457C9.68657 15.0457 9.68657 15.0457 9.73215 15.0457C10.2 15.046 10.6678 15.0469 11.1356 15.0479C11.3043 15.0483 11.4729 15.0486 11.6416 15.0488C11.9352 15.0492 12.2289 15.05 12.5226 15.0512C12.6195 15.0516 12.7164 15.0518 12.8134 15.0519C13.5818 15.0527 14.3499 15.0762 15.1039 15.2375C15.1458 15.2463 15.1877 15.255 15.2309 15.2641C16.4257 15.522 17.5533 16.1097 18.2461 17.1532C18.8788 18.193 19.0766 19.4829 18.8049 20.6739C18.6527 21.2745 18.3774 21.8383 17.9839 22.3168C17.9632 22.342 17.9425 22.3673 17.9213 22.3933C17.7346 22.5992 17.4993 22.7362 17.265 22.881C17.1455 22.9511 17.1455 22.9511 17.0647 23.038C17.0933 23.0507 17.1219 23.0634 17.1513 23.0765C18.0287 23.4884 18.6533 24.2037 18.9924 25.1138C19.3044 26.011 19.2915 27.1687 19.0629 28.0864C19.0563 28.1144 19.0496 28.1423 19.0428 28.1711C18.8955 28.779 18.6508 29.3459 18.2236 29.8093C18.1883 29.8484 18.153 29.8875 18.1166 29.9278C17.0089 31.1164 15.2914 31.3805 13.7476 31.452C13.3309 31.4639 12.9141 31.4625 12.4973 31.4613C12.3347 31.461 12.1722 31.4611 12.0097 31.4612C11.7294 31.4612 11.4492 31.4609 11.1689 31.4605C10.7637 31.4598 10.3586 31.4596 9.95341 31.4595C9.29573 31.4594 8.63804 31.4588 7.98036 31.4581C7.34225 31.4573 6.70415 31.4568 6.06604 31.4564C6.02618 31.4564 5.98631 31.4564 5.94523 31.4564C5.63334 31.4562 5.32145 31.456 5.00956 31.4559C3.48619 31.4551 1.96282 31.4535 0.439453 31.452C0.439453 28.1597 0.439453 24.8674 0.439453 21.4754C1.38015 21.4739 2.32084 21.4724 3.29004 21.4709C3.88524 21.4696 4.48044 21.4684 5.07564 21.467C5.3883 21.4663 5.70095 21.4656 6.0136 21.4649C6.05278 21.4648 6.09197 21.4647 6.13234 21.4646C6.76455 21.4632 7.39675 21.4622 8.02896 21.4614C8.67801 21.4605 9.32705 21.4592 9.9761 21.4574C10.3764 21.4564 10.7768 21.4556 11.1771 21.4554C11.4518 21.4552 11.7265 21.4545 12.0012 21.4535C12.1596 21.453 12.318 21.4526 12.4764 21.4528C12.6216 21.4529 12.7669 21.4525 12.9122 21.4516C12.989 21.4513 13.0659 21.4516 13.1428 21.4519C13.5818 21.4483 14.0605 21.4007 14.3871 21.0747C14.5808 20.7889 14.5853 20.4467 14.5469 20.1131C14.4862 19.8837 14.3956 19.7149 14.1872 19.5923C13.9107 19.4651 13.6638 19.3872 13.3578 19.3864C13.3116 19.3861 13.2654 19.3859 13.2178 19.3857C13.1673 19.3857 13.1167 19.3856 13.0646 19.3856C13.0102 19.3854 12.9558 19.3852 12.9014 19.385C12.7519 19.3844 12.6024 19.3841 12.453 19.3839C12.2918 19.3836 12.1306 19.383 11.9694 19.3825C11.6901 19.3816 11.4109 19.3809 11.1316 19.3803C10.7279 19.3794 10.3241 19.3782 9.92033 19.377C9.26527 19.3751 8.6102 19.3734 7.95513 19.3718C7.31876 19.3702 6.6824 19.3685 6.04604 19.3668C6.00682 19.3667 5.9676 19.3666 5.92719 19.3664C5.73043 19.3659 5.53367 19.3653 5.33691 19.3648C3.70442 19.3602 2.07194 19.3559 0.439453 19.3519C0.483242 19.2822 0.527116 19.2126 0.571026 19.1431C0.595449 19.1043 0.619872 19.0656 0.645035 19.0257C0.752073 18.8604 0.868379 18.703 0.986467 18.5455C1.16775 18.3014 1.34668 18.056 1.52099 17.8068C1.74846 17.4818 1.97989 17.1598 2.21223 16.8383C2.34227 16.6583 2.47197 16.478 2.60173 16.2978C2.71432 16.1415 2.82702 15.9852 2.93989 15.8291C2.96328 15.7967 2.98666 15.7643 3.01076 15.731C3.05532 15.6693 3.09991 15.6076 3.14455 15.546C3.16479 15.5179 3.18504 15.4899 3.2059 15.461C3.22352 15.4366 3.24114 15.4123 3.2593 15.3872C3.32282 15.3016 3.32282 15.3016 3.37532 15.1816C3.48584 15.0542 3.49703 15.0472 3.65375 15.0349ZM5.03537 25.0013C5.03537 25.7285 5.03537 26.4557 5.03537 27.2049C6.14218 27.2077 7.24899 27.2099 8.3558 27.2112C8.86974 27.2118 9.38367 27.2126 9.89761 27.214C10.3457 27.2152 10.7937 27.216 11.2418 27.2163C11.4789 27.2164 11.716 27.2168 11.9532 27.2176C12.1766 27.2185 12.4001 27.2187 12.6235 27.2185C12.7053 27.2186 12.7871 27.2188 12.8689 27.2193C13.6804 27.2379 13.6804 27.2379 14.3871 26.8844C14.5974 26.6331 14.688 26.3354 14.6765 26.0083C14.6392 25.6789 14.5285 25.4129 14.2672 25.2016C13.9584 25.035 13.6628 24.9952 13.3159 24.9964C13.2805 24.9964 13.2451 24.9964 13.2086 24.9963C13.0899 24.9963 12.9713 24.9965 12.8526 24.9967C12.7675 24.9967 12.6824 24.9967 12.5974 24.9967C12.3663 24.9967 12.1353 24.9969 11.9043 24.9972C11.6629 24.9975 11.4215 24.9975 11.1801 24.9975C10.7229 24.9977 10.2658 24.998 9.80862 24.9984C9.28816 24.9988 8.76771 24.9991 8.24726 24.9993C7.17663 24.9997 6.106 25.0004 5.03537 25.0013Z" fill="#F5344F"/>
<path d="M76.8647 15.0607C76.9201 15.0607 76.9755 15.0606 77.0309 15.0606C77.1813 15.0605 77.3318 15.0606 77.4823 15.0608C77.6452 15.061 77.8081 15.061 77.971 15.0609C78.2527 15.0609 78.5343 15.061 78.816 15.0613C79.2232 15.0616 79.6305 15.0617 80.0377 15.0617C80.6986 15.0618 81.3594 15.0621 82.0203 15.0625C82.662 15.0628 83.3036 15.0631 83.9453 15.0633C83.9849 15.0633 84.0245 15.0633 84.0653 15.0633C84.264 15.0634 84.4627 15.0634 84.6614 15.0635C86.3077 15.0639 87.9541 15.0646 89.6004 15.0655C89.5438 15.181 89.4827 15.2875 89.4113 15.3945C89.3894 15.4274 89.3675 15.4603 89.345 15.4942C89.3213 15.5296 89.2976 15.5649 89.2732 15.6014C89.2484 15.6385 89.2237 15.6755 89.1982 15.7137C88.9218 16.1271 88.6419 16.538 88.3615 16.9486C88.3174 17.0132 88.2733 17.0778 88.2293 17.1424C88.1656 17.2356 88.102 17.3289 88.0383 17.4221C87.8501 17.6977 87.6624 17.9737 87.4749 18.2498C87.4284 18.3182 87.3811 18.3859 87.3329 18.4531C87.2612 18.5574 87.2047 18.6649 87.1484 18.7783C86.8786 19.2858 86.8786 19.2858 86.621 19.3964C86.3222 19.4659 86.0168 19.4492 85.7123 19.4408C85.61 19.4408 85.5078 19.4411 85.4055 19.4418C85.186 19.4424 84.9667 19.4407 84.7472 19.4369C84.4293 19.4314 84.1115 19.4302 83.7935 19.4301C83.2767 19.4299 82.7599 19.4263 82.2431 19.4206C81.7429 19.415 81.2427 19.4107 80.7425 19.4083C80.7117 19.4082 80.6809 19.408 80.6492 19.4079C80.3424 19.4064 80.0356 19.4052 79.7288 19.404C79.6092 19.4036 79.4895 19.4031 79.3698 19.4026C79.3107 19.4024 79.2516 19.4021 79.1925 19.4019C78.8183 19.4005 78.444 19.3979 78.0698 19.3941C77.8547 19.392 77.6397 19.3904 77.4247 19.3888C77.3254 19.3879 77.2262 19.3868 77.1269 19.3855C76.1739 19.337 76.1739 19.337 75.3331 19.7132C75.1142 19.9674 75.0828 20.2465 75.0958 20.5722C75.1227 20.8235 75.1672 21.0393 75.3331 21.2358C75.8631 21.623 76.5375 21.568 77.1606 21.5672C77.2481 21.5674 77.3356 21.5676 77.423 21.5678C77.6108 21.5683 77.7985 21.5685 77.9863 21.5685C78.2841 21.5686 78.5819 21.5693 78.8796 21.5702C79.2979 21.5713 79.7163 21.5722 80.1346 21.5729C80.1743 21.5729 80.1743 21.5729 80.2149 21.573C80.5097 21.5735 80.8046 21.5739 81.0994 21.5742C81.6741 21.5749 82.2488 21.5758 82.8236 21.5775C83.1186 21.5784 83.4137 21.5787 83.7087 21.5787C83.8936 21.5787 84.0785 21.5793 84.2635 21.58C84.3481 21.5802 84.4328 21.5802 84.5175 21.58C85.8926 21.5771 87.3437 21.7648 88.4814 22.598C88.5198 22.6255 88.5583 22.653 88.5978 22.6813C89.3727 23.2722 89.8108 24.2138 89.9466 25.1656C90.12 26.6754 89.9362 28.3425 88.9783 29.5734C87.9584 30.7945 86.4183 31.2665 84.8846 31.4127C84.4527 31.445 84.0226 31.4586 83.5894 31.4576C83.5308 31.4576 83.4722 31.4577 83.4136 31.4577C83.2547 31.4578 83.0959 31.4577 82.937 31.4575C82.7649 31.4573 82.5928 31.4573 82.4206 31.4574C82.1231 31.4574 81.8256 31.4573 81.5281 31.457C81.098 31.4567 80.6679 31.4566 80.2377 31.4566C79.5397 31.4565 78.8417 31.4562 78.1437 31.4558C77.466 31.4555 76.7883 31.4552 76.1107 31.455C76.0688 31.455 76.027 31.455 75.9839 31.455C75.7739 31.4549 75.564 31.4549 75.3541 31.4548C73.6153 31.4544 71.8765 31.4537 70.1377 31.4528C70.1695 31.3949 70.2013 31.3369 70.2332 31.2791C70.2597 31.2307 70.2597 31.2307 70.2869 31.1813C70.344 31.0808 70.4075 30.989 70.4774 30.8969C70.6222 30.7014 70.7604 30.5022 70.897 30.3009C71.0968 30.0067 71.2985 29.7139 71.5015 29.4219C71.7367 29.0834 71.9709 28.7442 72.2036 28.4039C72.2586 28.3235 72.3139 28.2431 72.3691 28.1628C72.3978 28.1212 72.3978 28.1212 72.4269 28.0787C72.4624 28.0272 72.4979 27.9756 72.5334 27.924C72.5499 27.9 72.5665 27.876 72.5835 27.8512C72.6009 27.8276 72.6184 27.804 72.6364 27.7797C72.7005 27.686 72.7005 27.686 72.7384 27.5673C72.8063 27.4136 72.8729 27.2962 73.0151 27.2057C73.3337 27.1151 73.6831 27.1427 74.0109 27.1483C74.1499 27.1501 74.2889 27.1492 74.4278 27.1486C74.6685 27.1479 74.9092 27.1489 75.1498 27.1511C75.4983 27.1544 75.8468 27.1548 76.1954 27.1545C76.7616 27.1542 77.3278 27.1559 77.8941 27.1589C78.4427 27.1619 78.9913 27.1642 79.54 27.1654C79.5738 27.1655 79.6075 27.1656 79.6423 27.1657C80.0114 27.1665 80.3804 27.1671 80.7494 27.1675C80.7819 27.1675 80.8144 27.1676 80.8479 27.1676C81.0428 27.1679 81.0428 27.1679 81.2377 27.1681C81.6173 27.1685 81.9968 27.1695 82.3763 27.1716C82.6146 27.1729 82.8529 27.1738 83.0912 27.1745C83.2284 27.1749 83.3657 27.1755 83.503 27.1766C83.6522 27.1778 83.8015 27.1782 83.9507 27.1784C84.0148 27.1792 84.0148 27.1792 84.0802 27.18C84.565 27.179 85.0167 27.0988 85.3766 26.7575C85.5817 26.4148 85.6032 26.0451 85.539 25.6581C85.4864 25.4566 85.4012 25.3007 85.2443 25.1623C84.8924 24.9676 84.5583 24.9159 84.1634 24.9161C84.1274 24.916 84.0914 24.9158 84.0543 24.9157C83.9338 24.9153 83.8134 24.9151 83.6929 24.915C83.6064 24.9147 83.5199 24.9144 83.4335 24.9142C83.2472 24.9136 83.061 24.9131 82.8747 24.9127C82.5795 24.9121 82.2843 24.9111 81.9891 24.9101C81.1496 24.9073 80.3101 24.9049 79.4706 24.9028C79.007 24.9017 78.5433 24.9003 78.0797 24.8985C77.787 24.8975 77.4943 24.8968 77.2017 24.8963C77.0183 24.8959 76.835 24.8952 76.6516 24.8944C76.5675 24.8942 76.4834 24.894 76.3992 24.894C74.7654 24.8933 73.0654 24.6453 71.8462 23.452C71.3702 22.9691 71.0627 22.3846 70.867 21.7366C70.8591 21.7105 70.8512 21.6844 70.843 21.6575C70.7029 21.1654 70.6823 20.6742 70.6847 20.1665C70.6848 20.1346 70.6849 20.1027 70.6849 20.0698C70.6867 19.6072 70.7008 19.1616 70.8171 18.7116C70.8237 18.6852 70.8304 18.6589 70.8372 18.6318C71.0022 17.9953 71.2733 17.4129 71.6963 16.9086C71.7242 16.8741 71.7521 16.8397 71.7808 16.8042C72.7682 15.6368 74.3973 15.2228 75.8564 15.0947C76.1931 15.0688 76.5271 15.0599 76.8647 15.0607Z" fill="#F5344F"/>
<path d="M61.9852 17.3889C62.0269 17.4269 62.0269 17.4269 62.0695 17.4656C63.358 18.6773 63.9184 20.6672 63.9877 22.3831C63.9899 22.4901 63.991 22.5971 63.9915 22.7042C63.9918 22.7435 63.9921 22.7827 63.9924 22.8232C63.9931 22.9491 63.9933 23.0751 63.9934 23.2011C63.9934 23.2657 63.9934 23.2657 63.9935 23.3316C63.9928 23.9759 63.9779 24.6063 63.8635 25.242C63.8566 25.2809 63.8498 25.3197 63.8427 25.3598C63.6492 26.4188 63.2939 27.4469 62.6646 28.3272C62.6403 28.3611 62.6403 28.3611 62.6156 28.3957C61.2484 30.2819 58.9791 31.1094 56.7624 31.4768C56.6159 31.4998 56.4694 31.5216 56.3227 31.5425C56.2806 31.5486 56.2385 31.5546 56.1952 31.5609C55.2509 31.6866 54.3062 31.7077 53.3553 31.7053C53.2938 31.7052 53.2323 31.7051 53.1707 31.705C52.2944 31.7033 51.4248 31.6947 50.5553 31.5726C50.5122 31.5666 50.5122 31.5666 50.4683 31.5605C48.1192 31.2324 45.6517 30.5008 44.1488 28.5267C42.6659 26.4407 42.4219 23.6783 42.8322 21.2078C42.9106 20.767 43.0246 20.339 43.1619 19.9131C43.1711 19.8846 43.1802 19.8561 43.1897 19.8267C43.6696 18.3668 44.6669 17.1901 45.9594 16.3873C45.9836 16.3721 46.0079 16.3569 46.0328 16.3413C49.2851 14.3319 54.1968 14.3897 61.9852 17.3889ZM52.8656 19.0739C50.2936 19.0848 50.2936 19.0848 48.0772 20.2287C47.2519 21.1113 47.1713 22.4188 47.1946 23.5657C47.2291 24.6185 47.4388 25.6368 48.2249 26.3939C49.0412 27.0902 50.098 27.2556 51.1312 27.3491C51.1749 27.3531 51.1749 27.3531 51.2195 27.3571C51.8682 27.4143 52.5147 27.4242 53.1656 27.4213C53.3216 27.4206 53.4776 27.421 53.6337 27.4217C54.2835 27.4241 54.928 27.4076 55.5754 27.3493C55.6035 27.3468 55.6316 27.3442 55.6606 27.3416C56.7172 27.2444 57.8204 27.0353 58.5882 26.2437C58.6305 26.2025 58.6305 26.2025 58.6737 26.1604C59.0319 25.7904 59.2311 25.2974 59.3475 24.8013C59.3565 24.7632 59.3565 24.7632 59.3656 24.7243C59.6458 23.4598 59.5978 21.8156 58.9455 20.673C58.4293 19.8826 57.604 19.5023 56.7099 19.3121C55.7113 19.1149 54.687 19.0926 53.6726 19.0717C53.6385 19.071 53.6045 19.0703 53.5695 19.0695C53.3347 19.0653 53.1003 19.0699 52.8656 19.0739Z" fill="#F5344F"/>
<path d="M25.2374 15.005C25.3339 15.005 25.4304 15.0048 25.527 15.0044C25.7617 15.004 25.9963 15.0059 26.231 15.009C26.5052 15.0124 26.7794 15.0129 27.0536 15.0133C27.5439 15.014 28.0341 15.0172 28.5243 15.0217C28.9979 15.0262 29.4716 15.0293 29.9452 15.0308C29.9743 15.0309 30.0034 15.031 30.0334 15.0311C30.1504 15.0314 30.2673 15.0318 30.3843 15.0321C30.9201 15.0338 31.4558 15.0364 31.9916 15.0393C32.032 15.0395 32.032 15.0395 32.0732 15.0397C32.4117 15.0415 32.7502 15.0438 33.0887 15.0468C33.1824 15.0476 33.2762 15.0483 33.37 15.0489C34.159 15.0537 34.9479 15.0907 35.7281 15.2157C35.7707 15.2225 35.8133 15.2292 35.8572 15.2362C37.6166 15.5292 39.2735 16.2747 40.3371 17.7641C41.1806 19.0017 41.3674 20.6422 41.1004 22.0958C40.83 23.4404 40.1581 24.6534 39.0203 25.4513C38.585 25.7401 37.9805 26.0838 37.4466 26.0838C37.5382 26.21 37.6361 26.3125 37.7544 26.4126C37.9193 26.5558 38.0683 26.7093 38.2159 26.8701C38.2544 26.9117 38.2544 26.9117 38.2937 26.9542C38.346 27.0107 38.3983 27.0673 38.4505 27.124C38.5205 27.2001 38.5908 27.276 38.6611 27.3519C38.8728 27.5804 39.0817 27.8109 39.2849 28.0471C39.3248 28.0929 39.3648 28.1388 39.4047 28.1846C39.6305 28.4443 39.853 28.7058 40.0692 28.9736C40.1851 29.1143 40.3043 29.2518 40.4239 29.3893C40.6028 29.5949 40.7772 29.8033 40.9485 30.0154C41.0644 30.156 41.1836 30.2935 41.3032 30.431C41.5146 30.6743 41.721 30.9207 41.9226 31.1723C41.9522 31.2077 41.9818 31.2431 42.0124 31.2796C42.0825 31.3726 42.0825 31.3726 42.0825 31.4527C41.3019 31.4631 40.5213 31.4708 39.7406 31.4756C39.3781 31.4779 39.0157 31.4809 38.6532 31.486C38.3372 31.4904 38.0212 31.4932 37.7052 31.4942C37.5379 31.4948 37.3707 31.4961 37.2034 31.4993C37.0458 31.5024 36.8883 31.5033 36.7306 31.5026C36.6729 31.5027 36.6153 31.5036 36.5576 31.5053C36.1239 31.5174 36.1239 31.5174 35.9363 31.3579C35.8443 31.2465 35.7655 31.1339 35.6881 31.012C35.6407 30.9487 35.5929 30.8857 35.5444 30.8233C35.4981 30.761 35.452 30.6987 35.4059 30.6364C35.1946 30.352 34.9814 30.0691 34.7665 29.7875C34.5415 29.4924 34.3202 29.195 34.1014 28.8954C33.9003 28.6209 33.6949 28.3499 33.4878 28.0799C33.4633 28.0478 33.4387 28.0157 33.4134 27.9826C33.3889 27.9513 33.3643 27.9201 33.3389 27.8879C33.2732 27.7979 33.2176 27.7125 33.1623 27.6166C32.9728 27.292 32.9728 27.292 32.6603 27.1104C32.4825 27.0828 32.3054 27.0885 32.1261 27.0937C32.0579 27.0935 31.9898 27.093 31.9216 27.0922C31.7376 27.091 31.5539 27.0934 31.37 27.0966C31.1774 27.0992 30.9848 27.0984 30.7922 27.098C30.428 27.0978 30.0639 27.1006 29.6997 27.1045C29.2073 27.1096 28.7148 27.1099 28.2223 27.1106C27.4471 27.1117 26.6721 27.1191 25.8968 27.1255C25.8968 28.5535 25.8968 29.9815 25.8968 31.4527C24.4066 31.4527 22.9163 31.4527 21.3809 31.4527C21.3809 28.6761 21.3809 25.8995 21.3809 23.0387C22.3255 23.0377 23.2701 23.0367 24.2433 23.0356C24.8414 23.0346 25.4395 23.0335 26.0377 23.0323C26.3519 23.0317 26.6661 23.031 26.9804 23.0304C27.0198 23.0303 27.0591 23.0303 27.0997 23.0302C27.7347 23.0289 28.3696 23.0283 29.0045 23.0278C29.6567 23.0273 30.3088 23.0262 30.9609 23.0245C31.363 23.0235 31.765 23.023 32.1671 23.023C32.4432 23.023 32.7192 23.0225 32.9953 23.0214C33.1544 23.0208 33.3134 23.0205 33.4725 23.0209C34.5475 23.0296 34.5475 23.0296 35.5533 22.6806C35.5789 22.6677 35.6045 22.6549 35.6308 22.6416C35.8884 22.5077 36.0828 22.3507 36.2377 22.0997C36.2605 22.0634 36.2834 22.027 36.307 21.9896C36.5279 21.578 36.5333 21.0783 36.4075 20.6347C36.2273 20.1591 35.9622 19.8599 35.5024 19.6457C34.9673 19.435 34.4411 19.3868 33.8714 19.3863C33.8174 19.3861 33.7633 19.3859 33.7093 19.3857C33.5615 19.3852 33.4138 19.3849 33.2661 19.3846C33.1065 19.3843 32.9469 19.3837 32.7872 19.3832C32.511 19.3823 32.2347 19.3816 31.9584 19.381C31.559 19.3801 31.1596 19.379 30.7601 19.3778C30.112 19.3759 29.4639 19.3741 28.8158 19.3725C28.1863 19.3709 27.5569 19.3693 26.9274 19.3675C26.8886 19.3674 26.8498 19.3673 26.8098 19.3672C26.615 19.3666 26.4203 19.3661 26.2255 19.3655C24.6106 19.361 22.9957 19.3567 21.3809 19.3526C21.4382 19.2028 21.5013 19.0876 21.5982 18.9594C21.7293 18.7823 21.8562 18.6032 21.9803 18.421C22.1655 18.1496 22.3523 17.8795 22.5398 17.6097C22.7204 17.3497 22.9007 17.0896 23.0793 16.8284C23.2855 16.527 23.4936 16.227 23.702 15.9271C23.7274 15.8905 23.7528 15.8539 23.779 15.8162C23.8043 15.7816 23.8295 15.747 23.8554 15.7113C23.9418 15.5886 23.9418 15.5886 23.9998 15.452C24.2697 14.9238 24.7008 14.9944 25.2374 15.005Z" fill="#F5344F"/>
<path d="M19.4968 32.1091C19.6936 32.1106 19.8905 32.1121 20.0874 32.1134C22.515 32.1301 22.515 32.1301 23.579 32.1736C23.5816 32.2223 23.5842 32.2709 23.5869 32.321C23.7891 36.0563 24.3867 40.2337 27.4956 43.4324C28.8258 44.5947 30.4454 44.9836 32.1714 44.8748C32.4962 44.8451 32.8129 44.7876 33.1306 44.7145C33.1641 44.707 33.1976 44.6995 33.2321 44.6918C34.1296 44.4865 34.9873 44.1343 35.7757 43.659C35.8098 43.6385 35.8439 43.6179 35.879 43.5968C36.3404 43.3155 36.7829 43.0052 37.2269 42.6974C37.34 42.6191 37.4533 42.5414 37.5668 42.4637C37.6012 42.4396 37.6357 42.4155 37.6712 42.3907C37.703 42.3689 37.7348 42.3472 37.7676 42.3249C37.8094 42.2959 37.8094 42.2959 37.852 42.2664C37.9263 42.2304 37.9263 42.2304 38.0462 42.2704C37.713 42.7752 37.304 43.2083 36.8468 43.6017C36.7658 43.6741 36.6905 43.75 36.615 43.828C36.4596 43.9862 36.2917 44.1238 36.1191 44.2625C36.0138 44.3492 35.9133 44.4391 35.8132 44.5317C35.5829 44.7412 35.3383 44.9297 35.0888 45.1152C35.0616 45.1354 35.0344 45.1557 35.0063 45.1766C32.498 47.0355 29.4852 48.3757 26.3071 47.9016C24.2994 47.5662 22.5391 46.3895 21.341 44.7546C21.3081 44.7108 21.2752 44.6669 21.2422 44.6231C20.4139 43.5066 19.8006 42.2079 19.3935 40.8812C19.3801 40.8376 19.3801 40.8376 19.3665 40.793C19.3232 40.6512 19.281 40.5091 19.2403 40.3665C19.1269 39.9445 19.1269 39.9445 18.8189 39.6568C18.4258 39.4708 17.9875 39.3905 17.5676 39.2876C16.7769 39.0927 16.0025 38.8716 15.2365 38.5943C15.1976 38.5803 15.1587 38.5663 15.1186 38.5518C15.0097 38.5124 14.901 38.4725 14.7925 38.4322C14.7444 38.4144 14.7444 38.4144 14.6953 38.3963C14.4768 38.3135 14.4768 38.3135 14.3872 38.2237C15.7852 38.2237 17.1831 38.2237 18.6234 38.2237C18.5443 37.6684 18.5443 37.6684 18.4636 37.1018C18.4636 37.0489 18.4636 36.996 18.4636 36.9416C17.724 36.7369 16.9807 36.5551 16.2281 36.4057C16.1887 36.3978 16.1493 36.3899 16.1087 36.3817C15.4632 36.2525 14.816 36.1339 14.1682 36.0175C14.1287 36.0104 14.0893 36.0033 14.0486 35.996C13.6479 35.924 13.2471 35.8524 12.8462 35.7816C12.6937 35.7546 12.5412 35.7275 12.3888 35.7003C12.3176 35.6877 12.2464 35.6751 12.1752 35.6627C11.735 35.5857 11.3023 35.4941 10.8703 35.379C10.8703 35.3657 10.8703 35.3525 10.8703 35.3389C12.1807 35.3092 13.4912 35.2916 14.8018 35.2776C14.925 35.2763 15.0482 35.275 15.1714 35.2736C16.2022 35.2623 17.2329 35.2561 18.2638 35.2588C18.2615 35.2331 18.2592 35.2075 18.2568 35.181C18.2522 35.1296 18.2522 35.1296 18.2475 35.0772C18.2427 35.0236 18.2427 35.0236 18.2378 34.9689C18.2312 34.8945 18.2247 34.8202 18.2184 34.7457C18.2153 34.7136 18.2123 34.6815 18.2091 34.6484C18.2047 34.5993 18.2047 34.5993 18.2002 34.5492C18.1826 34.4508 18.1563 34.382 18.1039 34.2972C17.636 33.9856 16.8117 34.0513 16.2611 34.0051C15.2647 33.9215 14.2706 33.8198 13.2765 33.7121C12.8201 33.6626 12.3636 33.6141 11.9071 33.5655C11.8618 33.5606 11.8165 33.5558 11.7699 33.5508C10.985 33.4673 10.1998 33.3866 9.41413 33.3105C9.38654 33.3078 9.35894 33.3051 9.33051 33.3024C8.60954 33.2325 7.88831 33.1655 7.16698 33.0994C4.0057 32.8098 4.0057 32.8098 2.7001 32.6619C2.65188 32.6565 2.60367 32.6511 2.55399 32.6455C0.206198 32.3803 0.206198 32.3803 0 32.1736C2.91671 32.1447 5.83346 32.1269 8.75028 32.113C9.02644 32.1117 9.3026 32.1104 9.57876 32.109C12.8848 32.0926 16.1908 32.0824 19.4968 32.1091Z" fill="white"/>
<path d="M39.8051 8.65143C40.0409 8.6518 40.2767 8.65197 40.5125 8.65214C40.9728 8.65248 41.4331 8.65298 41.8934 8.6536C42.4734 8.65438 43.0533 8.65485 43.6332 8.6552C44.5917 8.65581 45.5502 8.65669 46.5088 8.65764C47.0189 8.65815 47.5291 8.65863 48.0392 8.65911C48.9794 8.66 49.9196 8.6609 50.8597 8.66182C51.7865 8.66273 52.7133 8.66362 53.64 8.66451C53.6692 8.66453 53.6983 8.66456 53.7283 8.66459C53.9945 8.66484 54.2606 8.6651 54.5268 8.66535C55.1875 8.66598 55.8482 8.66661 56.509 8.66724C56.539 8.66727 56.569 8.6673 56.6 8.66733C58.0496 8.66871 59.4993 8.67012 60.9489 8.67152C61.45 8.67201 61.951 8.67249 62.452 8.67297C62.4831 8.673 62.5142 8.67304 62.5462 8.67307C64.0002 8.67447 65.4542 8.67587 66.9082 8.67726C67.003 8.67735 67.0978 8.67744 67.1925 8.67753C67.8208 8.67813 68.449 8.67873 69.0773 8.67933C70.3266 8.68053 71.5759 8.68173 72.8252 8.68292C72.8846 8.68298 72.9441 8.68304 73.0035 8.68309C76.3286 8.68628 79.6536 8.68949 84.8046 8.69447C84.7988 8.74374 84.793 8.79301 84.7871 8.84378C84.7796 8.9092 84.7721 8.97462 84.7646 9.04004C84.7608 9.07243 84.757 9.10481 84.7531 9.13818C84.7333 9.31189 84.7201 9.48087 84.7246 9.65607C84.7463 9.63675 84.768 9.61744 84.7904 9.59754C84.819 9.57223 84.8475 9.54692 84.877 9.52085C84.9053 9.49574 84.9336 9.47064 84.9627 9.44478C85.0444 9.3756 85.0444 9.3756 85.1643 9.29547C85.2969 9.30846 85.3654 9.36123 85.4596 9.45229C85.4845 9.47604 85.5094 9.49978 85.535 9.52424C85.5741 9.56223 85.5741 9.56223 85.6139 9.60098C85.668 9.65271 85.7222 9.70442 85.7764 9.75608C85.8149 9.79303 85.8149 9.79303 85.8543 9.83072C85.9544 9.92568 86.0581 10.0159 86.1626 10.1059C86.2498 10.1827 86.3348 10.2617 86.4198 10.3409C86.8204 10.7134 87.1038 10.921 87.653 11.005C87.6979 11.0122 87.6979 11.0122 87.7437 11.0194C87.8028 11.0285 87.8619 11.0368 87.9212 11.0443C88.1372 11.0767 88.246 11.1442 88.4014 11.2988C88.6496 11.6757 88.7506 12.2953 88.6811 12.7412C88.6225 12.8574 88.5872 12.9255 88.4763 12.9941C88.3204 13.0315 88.1606 13.0508 88.0017 13.0217C87.9084 12.8813 87.8888 12.7537 87.8619 12.591C87.8266 12.3825 87.7833 12.1824 87.722 11.9799C87.1278 11.8602 87.1278 11.8602 86.563 12.02C86.404 12.1618 86.2987 12.3147 86.1983 12.5008C86.1716 12.5492 86.1449 12.5977 86.1181 12.6461C86.0742 12.7257 86.0317 12.8062 85.9928 12.8884C85.9236 12.9816 85.9236 12.9816 85.8233 13.0063C85.7831 13.0061 85.7428 13.0059 85.7013 13.0057C85.6551 13.006 85.6088 13.0063 85.5612 13.0065C85.5104 13.0058 85.4597 13.0051 85.4074 13.0044C85.3534 13.0043 85.2994 13.0043 85.2455 13.0044C85.0989 13.0045 84.9524 13.0033 84.8058 13.0019C84.6527 13.0007 84.4996 13.0006 84.3464 13.0003C84.0564 12.9997 83.7664 12.9981 83.4764 12.996C83.1463 12.9938 82.8161 12.9927 82.486 12.9917C81.8068 12.9896 81.1276 12.9861 80.4484 12.9816C80.4293 12.9241 80.4101 12.8666 80.391 12.8091C80.375 12.7611 80.375 12.7611 80.3587 12.7121C80.3349 12.6403 80.3118 12.5684 80.2889 12.4964C80.2033 12.2396 80.1206 12.0712 79.8815 11.9274C79.5875 11.8553 79.28 11.8793 79.0097 12.02C78.8185 12.1589 78.7118 12.2929 78.6026 12.5008C78.5762 12.5492 78.5498 12.5976 78.5234 12.6461C78.4493 12.7752 78.4493 12.7752 78.4082 12.8965C78.3113 13.0024 78.2758 12.9956 78.1359 13.0056C78.0962 13.0085 78.0565 13.0114 78.0157 13.0143C77.2017 13.0621 76.3876 13.0678 75.5725 13.0671C75.4461 13.067 75.3196 13.0671 75.1932 13.0671C74.8907 13.0673 74.5882 13.0672 74.2857 13.067C73.9899 13.0668 73.6942 13.0668 73.3984 13.067C72.1911 13.0679 70.9837 13.0676 69.7764 13.0525C69.7414 13.0521 69.7064 13.0517 69.6703 13.0512C69.526 13.0494 69.3817 13.0476 69.2374 13.0457C67.3868 13.0222 65.5366 13.0167 63.6859 13.0192C63.2648 13.0198 62.8437 13.0201 62.4227 13.0203C61.6934 13.0208 60.9641 13.0215 60.2348 13.0222C59.0795 13.0234 57.9243 13.0241 56.769 13.0247C56.5214 13.0248 56.2737 13.0249 56.0261 13.025C55.9767 13.0251 55.9274 13.0251 55.8766 13.0251C55.7767 13.0252 55.6768 13.0252 55.5769 13.0253C55.4767 13.0253 55.3764 13.0254 55.2762 13.0254C54.1027 13.026 52.9292 13.0267 51.7557 13.0275C51.7045 13.0275 51.6534 13.0275 51.6007 13.0276C49.9334 13.0286 48.2661 13.0301 46.5988 13.0317C44.8767 13.0334 43.1546 13.0346 41.4325 13.0351C41.1896 13.0352 40.9467 13.0352 40.7038 13.0353C40.6321 13.0354 40.6321 13.0354 40.559 13.0354C39.7914 13.0357 39.0238 13.0365 38.2563 13.0376C37.487 13.0387 36.7177 13.0392 35.9484 13.0391C35.4918 13.0391 35.0352 13.0395 34.5787 13.0405C34.2737 13.0412 33.9688 13.0413 33.6638 13.0409C33.4902 13.0407 33.3166 13.0407 33.1429 13.0415C32.9847 13.0422 32.8266 13.0421 32.6684 13.0414C32.6118 13.0413 32.5552 13.0415 32.4986 13.042C32.0956 13.0451 31.7542 12.9811 31.3721 12.8614C31.3721 12.7412 31.3721 12.7412 31.4291 12.6783C31.4539 12.6577 31.4788 12.6372 31.5045 12.616C31.529 12.5952 31.5536 12.5745 31.5789 12.5531C31.7073 12.461 31.818 12.4558 31.9707 12.456C32.0328 12.456 32.0328 12.456 32.0962 12.4559C32.142 12.4561 32.1878 12.4563 32.2349 12.4564C32.2836 12.4565 32.3322 12.4565 32.3823 12.4565C32.5183 12.4566 32.6542 12.4569 32.7902 12.4572C32.9379 12.4576 33.0857 12.4577 33.2334 12.4578C33.4929 12.4581 33.7525 12.4585 34.012 12.4591C34.3985 12.4598 34.785 12.4604 35.1715 12.4609C35.8244 12.4618 36.4773 12.4628 37.1301 12.4639C37.7839 12.4651 38.4377 12.4661 39.0914 12.467C39.1528 12.4671 39.1528 12.4671 39.2154 12.4672C39.4235 12.4675 39.6316 12.4678 39.8396 12.4681C41.3204 12.4702 42.8013 12.4725 44.2821 12.4748C44.3718 12.475 44.4614 12.4751 44.5511 12.4753C44.6177 12.4754 44.6177 12.4754 44.6856 12.4755C44.9098 12.4758 45.1339 12.4762 45.3581 12.4766C45.4246 12.4767 45.4246 12.4767 45.4925 12.4768C48.5503 12.4817 51.608 12.4862 54.6657 12.4906C54.7286 12.4907 54.7286 12.4907 54.7927 12.4908C60.4556 12.4991 60.4556 12.4991 68.0444 12.5045C68.4392 12.5046 68.834 12.5048 69.2289 12.5051C71.597 12.5066 73.9643 12.5007 76.3321 12.4607C76.464 11.7864 76.5959 11.1121 76.7318 10.4173C76.2489 10.4167 76.2489 10.4167 75.7564 10.4161C73.6238 10.4133 71.4913 10.4106 69.3587 10.4076C69.3222 10.4075 69.2856 10.4075 69.248 10.4074C68.453 10.4063 67.6581 10.4052 66.8632 10.4041C66.4732 10.4035 66.0832 10.403 65.6932 10.4024C65.6544 10.4024 65.6156 10.4023 65.5756 10.4023C64.3247 10.4005 63.0739 10.3989 61.823 10.3973C60.5343 10.3956 59.2456 10.3939 57.9569 10.392C57.7736 10.3917 57.5903 10.3914 57.407 10.3912C57.371 10.3911 57.3349 10.3911 57.2977 10.391C56.7243 10.3902 56.1508 10.3895 55.5773 10.3888C54.9965 10.3881 54.4158 10.3873 53.835 10.3864C53.522 10.3859 53.2091 10.3854 52.8961 10.3851C51.1164 10.3835 49.3372 10.365 47.5577 10.3372C47.5769 10.4627 47.5961 10.5882 47.6153 10.7137C47.6207 10.7491 47.6261 10.7844 47.6316 10.8208C47.6595 11.0028 47.6874 11.1848 47.7155 11.3668C47.7254 11.4318 47.7352 11.4969 47.745 11.5619C47.7502 11.5951 47.7554 11.6282 47.7607 11.6624C47.7889 11.8509 47.8028 12.0298 47.7975 12.2203C47.7295 12.1182 47.6968 12.0513 47.6608 11.9376C47.6504 11.9051 47.64 11.8726 47.6293 11.8391C47.6183 11.8042 47.6074 11.7693 47.5961 11.7333C47.579 11.6793 47.579 11.6793 47.5615 11.6242C47.5374 11.5481 47.5134 11.472 47.4895 11.3958C47.4529 11.2791 47.4159 11.1626 47.3788 11.046C47.3554 10.9721 47.3321 10.8982 47.3088 10.8243C47.2977 10.7893 47.2866 10.7544 47.2752 10.7184C47.265 10.6859 47.2549 10.6534 47.2444 10.6199C47.2354 10.5914 47.2264 10.5628 47.2172 10.5334C47.198 10.4574 47.198 10.4574 47.198 10.3372C42.6744 10.3372 38.1508 10.3372 33.4902 10.3372C33.7612 10.0202 33.7612 10.0202 33.8948 9.94155C33.9333 9.91815 33.9333 9.91815 33.9726 9.89428C34.146 9.80908 34.3078 9.81137 34.4995 9.81145C34.529 9.81141 34.5585 9.81137 34.5888 9.81133C34.6883 9.81124 34.7877 9.81144 34.8872 9.81163C34.9592 9.81163 35.0313 9.8116 35.1033 9.81156C35.3026 9.81151 35.5019 9.8117 35.7011 9.81194C35.9174 9.81215 36.1337 9.81212 36.35 9.81213C36.7296 9.81217 37.1091 9.81236 37.4887 9.81264C38.053 9.81306 38.6174 9.81325 39.1818 9.81339C39.4506 9.81346 39.7193 9.81354 39.9881 9.81362C40.0287 9.81364 40.0287 9.81364 40.0701 9.81365C40.6942 9.81385 41.3183 9.81417 41.9425 9.8145C42.9123 9.81502 43.8821 9.81542 44.8519 9.81566C44.8957 9.81567 44.8957 9.81567 44.9404 9.81568C45.2965 9.81577 45.6526 9.81585 46.0088 9.81593C46.552 9.81605 47.0953 9.81619 47.6385 9.81632C47.6995 9.81634 47.7605 9.81635 47.8215 9.81637C49.2594 9.81672 50.6972 9.81718 52.1351 9.81768C52.2305 9.81772 52.326 9.81775 52.4214 9.81778C53.8911 9.81829 55.3608 9.81885 56.8304 9.8195C56.8943 9.81953 56.9581 9.81956 57.022 9.81959C57.3089 9.81972 57.5958 9.81984 57.8827 9.81997C58.0099 9.82003 58.1372 9.82008 58.2645 9.82014C58.3598 9.82018 58.4551 9.82022 58.5505 9.82027C59.9866 9.8209 61.4227 9.82148 62.8588 9.82181C62.9041 9.82182 62.9041 9.82182 62.9503 9.82183C63.5831 9.82198 64.2159 9.82211 64.8487 9.82222C65.145 9.82227 65.4413 9.82232 65.7376 9.82238C65.7814 9.82239 65.7814 9.82239 65.826 9.8224C66.7662 9.82258 67.7063 9.82304 68.6464 9.82364C69.6195 9.82427 70.5927 9.82462 71.5659 9.82465C72.1271 9.82468 72.6884 9.82493 73.2497 9.8255C73.6243 9.82586 73.9989 9.82593 74.3735 9.82577C74.5872 9.82568 74.8008 9.82572 75.0145 9.82612C75.2088 9.82647 75.4031 9.82646 75.5974 9.82616C75.6673 9.82611 75.7372 9.8262 75.8071 9.82644C76.3153 9.83355 76.3153 9.83355 76.8117 9.7362C76.8778 9.66994 76.877 9.58357 76.8941 9.4933C76.9012 9.45647 76.9082 9.41965 76.9155 9.38171C76.9208 9.35325 76.9261 9.32479 76.9316 9.29547C76.1917 9.26146 75.452 9.2434 74.7115 9.23315C74.6822 9.23273 74.6529 9.23232 74.6228 9.23189C72.981 9.20856 71.3391 9.20983 69.6971 9.21062C69.2318 9.21084 68.7664 9.21081 68.301 9.21078C67.4429 9.21073 66.5847 9.21086 65.7266 9.2111C64.8791 9.21134 64.0317 9.21149 63.1843 9.21153C63.1445 9.21154 63.1445 9.21154 63.1039 9.21154C62.8617 9.21155 62.6195 9.21156 62.3773 9.21157C61.7757 9.2116 61.1741 9.21164 60.5725 9.21168C60.5452 9.21169 60.5178 9.21169 60.4896 9.21169C59.1648 9.2118 57.84 9.21205 56.5152 9.21231C56.0566 9.21241 55.598 9.2125 55.1394 9.21259C55.1109 9.21259 55.0825 9.2126 55.0531 9.2126C53.7256 9.21286 52.3981 9.21301 51.0706 9.21313C50.9842 9.21314 50.8978 9.21314 50.8114 9.21315C50.2388 9.2132 49.6661 9.21326 49.0935 9.21331C47.9545 9.2134 46.8155 9.21351 45.6765 9.21363C45.6223 9.21364 45.5681 9.21364 45.5139 9.21365C41.9189 9.21402 38.324 9.21465 34.7291 9.21534C34.8355 9.00198 34.9117 8.89058 35.1287 8.7746C35.2564 8.74506 35.3833 8.73495 35.5138 8.72607C35.5508 8.72309 35.5878 8.7201 35.6259 8.71702C36.0037 8.68822 36.3815 8.67626 36.7602 8.6696C36.8154 8.66848 36.8154 8.66848 36.8717 8.66735C37.8494 8.64764 38.8272 8.64972 39.8051 8.65143Z" fill="#F5344F"/>
<path d="M65.2227 15.0654C66.5679 15.0654 67.9131 15.0654 69.299 15.0654C69.2091 15.4711 69.2091 15.4711 69.1602 15.6162C69.1437 15.6657 69.1437 15.6657 69.1268 15.7161C69.115 15.7509 69.1032 15.7856 69.0911 15.8214C69.0785 15.8588 69.066 15.8963 69.0531 15.9349C69.0261 16.0154 68.999 16.0959 68.9719 16.1764C68.8987 16.3935 68.8261 16.6109 68.7534 16.8282C68.7386 16.8724 68.7238 16.9166 68.7086 16.9621C68.5723 17.37 68.4395 17.7789 68.3074 18.1881C68.1469 18.6854 67.9842 19.1819 67.8193 19.6776C67.8106 19.7036 67.802 19.7296 67.7931 19.7563C67.6987 20.0399 67.6041 20.3234 67.5094 20.6068C67.4935 20.6545 67.4776 20.7022 67.4612 20.7513C67.4313 20.8409 67.4014 20.9304 67.3714 21.0199C67.358 21.0601 67.3446 21.1003 67.3307 21.1418C67.3133 21.1939 67.3133 21.1939 67.2955 21.2471C67.2545 21.376 67.218 21.5063 67.1809 21.6364C66.5347 21.6364 65.8885 21.6364 65.2227 21.6364C65.2227 19.468 65.2227 17.2996 65.2227 15.0654Z" fill="#F5344F"/>
<path d="M26.3213 32.717C26.5812 32.8832 26.7009 33.1727 26.8174 33.4467C26.8319 33.4801 26.8464 33.5135 26.8614 33.5479C26.9081 33.6556 26.9544 33.7635 27.0007 33.8715C27.0327 33.9455 27.0648 34.0196 27.0969 34.0936C27.1605 34.2403 27.2239 34.387 27.2871 34.5337C27.4035 34.8035 27.5217 35.0725 27.6401 35.3414C27.6748 35.4203 27.7094 35.4993 27.7441 35.5782C27.7677 35.632 27.7913 35.6858 27.8149 35.7396C27.8247 35.716 27.8345 35.6924 27.8445 35.6681C28.0775 35.1068 28.3177 34.5488 28.5642 33.9932C28.594 33.9258 28.6238 33.8584 28.6535 33.7909C28.6959 33.6948 28.7385 33.5989 28.7813 33.503C28.7937 33.4747 28.8061 33.4463 28.819 33.4171C28.9435 33.1397 29.0739 32.8658 29.3336 32.6945C29.5199 32.6322 29.6728 32.6326 29.8581 32.6995C30.2481 32.9545 30.2913 33.3893 30.3871 33.816C30.3957 33.8538 30.4043 33.8916 30.4131 33.9305C30.4411 34.0539 30.469 34.1773 30.4968 34.3008C30.5163 34.387 30.5359 34.4733 30.5554 34.5596C30.5962 34.7396 30.6368 34.9197 30.6774 35.0998C30.7295 35.3309 30.7819 35.5619 30.8343 35.7929C30.8746 35.9706 30.9148 36.1484 30.9549 36.3263C30.9742 36.4115 30.9935 36.4967 31.0128 36.5819C31.0397 36.7006 31.0665 36.8194 31.0932 36.9381C31.1012 36.9734 31.1092 37.0087 31.1175 37.045C31.1247 37.0773 31.1319 37.1096 31.1394 37.1429C31.1489 37.1849 31.1489 37.1849 31.1586 37.2278C31.172 37.3022 31.172 37.3022 31.172 37.4224C30.7895 37.4224 30.407 37.4224 30.013 37.4224C29.8651 36.8518 29.7438 36.2765 29.6233 35.6995C29.6029 35.602 29.5825 35.5046 29.562 35.4071C29.5124 35.1707 29.4629 34.9343 29.4135 34.6978C29.4012 34.7283 29.4012 34.7283 29.3886 34.7594C29.3013 34.9753 29.2137 35.1912 29.1259 35.407C29.0935 35.487 29.061 35.5671 29.0286 35.6471C28.9187 35.919 28.8072 36.1901 28.6942 36.4608C28.6783 36.499 28.6625 36.5373 28.6461 36.5767C28.6 36.6871 28.5529 36.7972 28.5054 36.9071C28.4918 36.9401 28.4781 36.973 28.464 37.007C28.3618 37.2397 28.2473 37.386 28.0148 37.5025C27.8236 37.5185 27.6403 37.5281 27.4603 37.4574C27.1987 37.226 27.0873 36.9653 26.9557 36.6461C26.9354 36.5978 26.9151 36.5495 26.8942 36.4997C26.6492 35.9149 26.4125 35.3264 26.1764 34.7379C26.1632 34.7379 26.15 34.7379 26.1364 34.7379C26.1238 34.8022 26.1238 34.8022 26.1109 34.8678C25.9428 35.7218 25.7694 36.5735 25.5769 37.4224C25.1945 37.4224 24.812 37.4224 24.418 37.4224C24.4672 37.126 24.5176 36.8366 24.5858 36.5451C24.5942 36.5086 24.6026 36.4722 24.6112 36.4347C24.6386 36.3162 24.6662 36.1977 24.6938 36.0792C24.7131 35.996 24.7324 35.9128 24.7517 35.8297C24.7921 35.6562 24.8325 35.4828 24.873 35.3094C24.9248 35.0874 24.9762 34.8654 25.0275 34.6433C25.0672 34.4719 25.1071 34.3005 25.1471 34.1292C25.1662 34.0473 25.1852 33.9654 25.2041 33.8835C25.2304 33.7692 25.2572 33.6549 25.2841 33.5407C25.2956 33.4903 25.2956 33.4903 25.3073 33.4389C25.3661 33.1915 25.4334 32.9681 25.6369 32.8022C25.6604 32.7825 25.6839 32.7628 25.7081 32.7425C25.9035 32.6058 26.1116 32.6264 26.3213 32.717Z" fill="white"/>
<path d="M63.2818 32.7232C63.3474 32.7234 63.4129 32.7236 63.4785 32.7237C63.6493 32.7241 63.82 32.7253 63.9908 32.7266C64.1657 32.7279 64.3407 32.7284 64.5156 32.729C64.8576 32.7303 65.1996 32.7324 65.5415 32.7349C65.4812 32.8909 65.4103 33.029 65.3241 33.1725C65.2975 33.2169 65.2708 33.2612 65.2434 33.3069C65.2227 33.3412 65.2227 33.3412 65.2016 33.3761C65.1592 33.4463 65.117 33.5167 65.0748 33.5871C64.868 33.931 64.868 33.931 64.8222 33.977C64.7593 33.9811 64.6962 33.9824 64.6332 33.9827C64.5929 33.9829 64.5526 33.9832 64.511 33.9835C64.467 33.9837 64.423 33.9838 64.3777 33.984C64.285 33.9849 64.1922 33.9859 64.0994 33.9869C63.9529 33.9883 63.8064 33.9895 63.6598 33.99C63.5186 33.9907 63.3774 33.9923 63.2362 33.994C63.193 33.994 63.1497 33.9939 63.1051 33.9938C62.7472 33.9995 62.4058 34.0752 62.1445 34.3376C61.913 34.6629 61.8496 34.9863 61.9048 35.3793C61.9714 35.6133 62.0872 35.8579 62.3014 35.9864C62.4734 36.075 62.6288 36.1445 62.8244 36.1488C62.8564 36.1496 62.8884 36.1504 62.9214 36.1512C62.9557 36.1519 62.9901 36.1526 63.0255 36.1533C63.0608 36.1541 63.0961 36.1549 63.1325 36.1558C63.2453 36.1584 63.3581 36.1608 63.4709 36.1631C63.5473 36.1648 63.6238 36.1666 63.7003 36.1684C63.8877 36.1726 64.0752 36.1767 64.2627 36.1806C64.2627 35.9691 64.2627 35.7575 64.2627 35.5396C63.6428 35.5396 63.023 35.5396 62.3843 35.5396C62.4503 35.4206 62.5162 35.3016 62.5842 35.179C62.6081 35.1187 62.632 35.0584 62.6567 34.9963C62.7446 34.7946 62.8389 34.6237 63.0238 34.4978C63.4155 34.3832 63.849 34.4347 64.2502 34.4553C64.6368 34.4693 65.0233 34.4834 65.4216 34.4978C65.4216 35.463 65.4216 36.4283 65.4216 37.4227C64.9633 37.4252 64.505 37.4277 64.0329 37.4302C63.8172 37.4319 63.8172 37.4319 63.5972 37.4335C63.4193 37.4341 63.4193 37.4341 63.3355 37.4342C63.278 37.4344 63.2205 37.4348 63.163 37.4354C62.4789 37.4424 61.8801 37.319 61.3677 36.8292C60.7967 36.2141 60.6713 35.4957 60.6988 34.6851C60.7359 34.1172 61.0254 33.611 61.4335 33.226C61.988 32.7766 62.5955 32.7162 63.2818 32.7232Z" fill="white"/>
<path d="M38.2594 33.237C38.6693 33.6148 38.8522 34.1449 38.8943 34.693C38.9225 35.4402 38.8857 36.1792 38.4008 36.7884C37.9066 37.3158 37.1619 37.4875 36.4655 37.5108C35.6202 37.5287 34.745 37.4617 34.0897 36.861C33.5364 36.2456 33.4937 35.4882 33.5222 34.6976C33.557 34.1727 33.7383 33.6205 34.1296 33.255C35.1664 32.38 37.2119 32.3987 38.2594 33.237ZM34.9289 34.1765C34.7056 34.4284 34.6741 34.7486 34.6767 35.073C34.6769 35.1027 34.6771 35.1323 34.6773 35.1629C34.6835 35.455 34.7165 35.7045 34.904 35.9369C35.4239 36.3465 36.1368 36.3008 36.7664 36.2462C37.1037 36.1996 37.3385 36.125 37.5666 35.8593C37.7838 35.486 37.7756 34.9959 37.7066 34.577C37.6238 34.2997 37.4536 34.1521 37.2042 34.012C36.611 33.7367 35.4493 33.8006 34.9289 34.1765Z" fill="white"/>
<path d="M54.5914 32.6942C54.8658 32.855 55.0679 33.1518 55.27 33.393C55.3762 33.5195 55.4862 33.642 55.598 33.7635C55.7247 33.9018 55.8455 34.0427 55.9627 34.1892C56.1244 34.3905 56.2969 34.5792 56.475 34.7658C56.6609 34.9623 56.8183 35.1644 56.9893 35.3787C57.0025 34.506 57.0156 33.6334 57.0292 32.7343C57.3853 32.7343 57.7414 32.7343 58.1083 32.7343C58.1101 33.2505 58.1115 33.7666 58.1124 34.2828C58.1128 34.5225 58.1134 34.7622 58.1143 35.0019C58.1152 35.2334 58.1157 35.4649 58.1159 35.6963C58.116 35.7845 58.1163 35.8726 58.1167 35.9608C58.1173 36.0846 58.1174 36.2084 58.1173 36.3322C58.1176 36.3684 58.1179 36.4046 58.1182 36.4418C58.1172 36.7734 58.0875 37.0797 57.8685 37.342C57.7152 37.4747 57.5953 37.5298 57.3892 37.5172C57.0912 37.4614 56.9308 37.2434 56.7495 37.0214C56.6725 36.9301 56.5948 36.8393 56.5172 36.7485C56.4965 36.7242 56.4759 36.6999 56.4546 36.675C56.3265 36.525 56.1959 36.3779 56.0626 36.2326C55.9351 36.0934 55.8135 35.9517 55.6954 35.8044C55.5384 35.6091 55.3721 35.4247 55.2008 35.2421C55.1817 35.2216 55.1625 35.2011 55.1428 35.1801C55.126 35.1623 55.1093 35.1446 55.092 35.1263C55.0022 35.026 54.9173 34.9213 54.8312 34.8177C54.818 35.6772 54.8048 36.5366 54.7912 37.4221C54.4351 37.4221 54.0791 37.4221 53.7122 37.4221C53.7095 36.8902 53.7073 36.3584 53.706 35.8265C53.7053 35.5796 53.7045 35.3326 53.7031 35.0856C53.7018 34.8471 53.7011 34.6086 53.7008 34.3701C53.7006 34.2793 53.7002 34.1885 53.6995 34.0976C53.6986 33.9701 53.6985 33.8425 53.6986 33.715C53.6979 33.659 53.6979 33.659 53.6973 33.602C53.6985 33.3338 53.7292 33.064 53.9008 32.8482C53.9243 32.8304 53.9477 32.8127 53.972 32.7944C53.9954 32.7758 54.0189 32.7572 54.0431 32.738C54.2213 32.6244 54.3952 32.6391 54.5914 32.6942Z" fill="white"/>
<path d="M77.0117 32.6541C77.3532 32.8289 77.5963 33.1619 77.8316 33.4559C77.9403 33.5871 78.0543 33.7117 78.1706 33.8361C78.3157 33.9913 78.4551 34.1481 78.5878 34.3144C78.7512 34.5187 78.9263 34.7098 79.1057 34.9C79.1266 34.9223 79.1476 34.9445 79.1691 34.9675C79.1876 34.9869 79.206 35.0064 79.225 35.0264C79.3163 35.1277 79.4023 35.2337 79.4895 35.3386C79.5027 34.4791 79.5159 33.6197 79.5294 32.7342C79.8855 32.7342 80.2416 32.7342 80.6085 32.7342C80.6112 33.2661 80.6134 33.7979 80.6147 34.3298C80.6153 34.5768 80.6162 34.8237 80.6175 35.0707C80.6188 35.3092 80.6195 35.5477 80.6199 35.7862C80.6201 35.877 80.6205 35.9679 80.6212 36.0587C80.622 36.1862 80.6221 36.3138 80.6221 36.4413C80.6225 36.4786 80.623 36.5159 80.6234 36.5543C80.622 36.848 80.582 37.1088 80.3912 37.3394C80.2191 37.4783 80.115 37.5195 79.8869 37.5119C79.5391 37.4685 79.2718 37.0328 79.0706 36.7819C78.9613 36.6504 78.8469 36.5252 78.7301 36.4003C78.5843 36.2443 78.4441 36.0865 78.3105 35.9195C78.1377 35.7037 77.9519 35.5021 77.7637 35.2999C77.6461 35.1735 77.5322 35.0443 77.4196 34.9135C77.3912 34.8807 77.362 34.8484 77.3314 34.8177C77.3182 35.6771 77.305 36.5366 77.2914 37.422C76.9485 37.422 76.6056 37.422 76.2524 37.422C76.1774 37.3469 76.2071 37.2383 76.2065 37.1382C76.2066 37.0856 76.2066 37.0856 76.2066 37.032C76.2064 36.9768 76.2064 36.9768 76.2062 36.9206C76.2058 36.7983 76.2057 36.6759 76.2057 36.5536C76.2055 36.4685 76.2054 36.3835 76.2053 36.2985C76.205 36.1196 76.205 35.9408 76.205 35.762C76.205 35.5338 76.2044 35.3057 76.2038 35.0775C76.2033 34.9015 76.2032 34.7256 76.2032 34.5496C76.2032 34.4656 76.203 34.3815 76.2027 34.2975C76.1987 33.1058 76.1987 33.1058 76.4522 32.8144C76.6268 32.6605 76.7815 32.6345 77.0117 32.6541Z" fill="white"/>
<path d="M85.4157 32.7305C85.4578 32.7305 85.4578 32.7305 85.5008 32.7305C85.593 32.7305 85.6851 32.7308 85.7772 32.7311C85.8414 32.7312 85.9055 32.7313 85.9697 32.7313C86.138 32.7314 86.3063 32.7318 86.4747 32.7323C86.6467 32.7327 86.8186 32.7329 86.9906 32.7331C87.3277 32.7335 87.6647 32.7342 88.0018 32.735C87.9529 32.8595 87.9028 32.9759 87.835 33.0913C87.8183 33.1197 87.8017 33.1482 87.7845 33.1775C87.7671 33.2067 87.7498 33.2359 87.732 33.2659C87.7153 33.2945 87.6986 33.323 87.6814 33.3525C87.648 33.4092 87.6139 33.4656 87.5792 33.5215C87.5213 33.6151 87.5213 33.6151 87.4749 33.7113C87.3404 33.9576 87.3404 33.9576 87.1863 34.0094C87.0676 34.0208 86.9537 34.0208 86.8345 34.0169C86.7914 34.017 86.7482 34.017 86.7037 34.0171C86.566 34.0172 86.4285 34.0148 86.2908 34.0122C86.1536 34.0108 86.0164 34.01 85.8791 34.0098C85.7939 34.0095 85.7087 34.0085 85.6234 34.0067C85.3019 34.0037 85.0174 34.0447 84.7646 34.2576C84.7383 34.2576 84.7119 34.2576 84.6847 34.2576C84.6732 34.2812 84.6617 34.3048 84.6499 34.3291C84.6048 34.4178 84.6048 34.4178 84.5634 34.4853C84.389 34.7838 84.3624 35.1385 84.4449 35.4721C84.5403 35.737 84.6999 35.933 84.9492 36.0635C85.2267 36.1839 85.5235 36.165 85.8201 36.1651C85.8832 36.1657 85.9463 36.1664 86.0094 36.1671C86.1744 36.1689 86.3394 36.1697 86.5043 36.1703C86.6731 36.1711 86.8419 36.1728 87.0107 36.1744C87.341 36.1774 87.6714 36.1794 88.0018 36.1808C87.9457 36.3247 87.8832 36.4548 87.8046 36.5879C87.7706 36.6455 87.7706 36.6455 87.736 36.7042C87.7124 36.7439 87.6888 36.7835 87.6646 36.8244C87.6294 36.884 87.6294 36.884 87.5936 36.9449C87.4639 37.1642 87.4639 37.1642 87.4023 37.2626C87.3856 37.2906 87.3688 37.3186 87.3516 37.3475C87.2824 37.4228 87.2824 37.4228 87.1878 37.4429C87.1504 37.4429 87.1131 37.4429 87.0746 37.443C87.0322 37.4433 86.9897 37.4437 86.946 37.4441C86.9 37.4436 86.8541 37.4432 86.8067 37.4427C86.7593 37.4428 86.7118 37.4428 86.6629 37.4429C86.5621 37.4428 86.4613 37.4424 86.3606 37.4415C86.2077 37.4404 86.0549 37.4407 85.902 37.4412C85.8039 37.441 85.7059 37.4407 85.6078 37.4402C85.5626 37.4403 85.5173 37.4405 85.4707 37.4406C84.8133 37.4329 84.3016 37.2259 83.8258 36.7693C83.3442 36.2518 83.183 35.5753 83.1949 34.8824C83.2224 34.2331 83.4888 33.6574 83.9654 33.2158C84.3916 32.8809 84.8776 32.7295 85.4157 32.7305Z" fill="white"/>
<path d="M41.2432 32.7346C41.7179 32.7346 42.1927 32.7346 42.6819 32.7346C42.7643 32.8949 42.8467 33.0552 42.9317 33.2204C43.1679 33.6782 43.4106 34.1319 43.6583 34.5836C43.7761 34.7984 43.8936 35.0135 44.0107 35.2287C44.0451 35.2914 44.0451 35.2914 44.0802 35.3554C44.1011 35.3939 44.1221 35.4325 44.1437 35.4722C44.1624 35.5065 44.1811 35.5408 44.2004 35.5761C44.2405 35.6594 44.2405 35.6594 44.2405 35.7396C44.3431 35.6466 44.403 35.5519 44.4675 35.4297C44.4879 35.3914 44.5082 35.3532 44.5292 35.3138C44.551 35.2725 44.5728 35.2312 44.5952 35.1886C44.7722 34.8568 44.9517 34.5267 45.1372 34.1995C45.1798 34.1244 45.2223 34.0492 45.2649 33.9741C45.2973 33.9169 45.2973 33.9169 45.3304 33.8586C45.5414 33.4848 45.7498 33.1095 45.959 32.7346C46.4206 32.7346 46.8822 32.7346 47.3577 32.7346C47.1622 33.1382 46.9538 33.5305 46.732 33.9202C46.5513 34.2379 46.3744 34.5576 46.1988 34.8781C45.9818 35.2736 45.7632 35.668 45.5403 36.06C45.4412 36.2345 45.3436 36.4093 45.2498 36.5866C44.8311 37.3745 44.8311 37.3745 44.4403 37.5025C44.2138 37.5329 44.0348 37.5104 43.8409 37.3823C43.4858 37.0539 43.2755 36.5856 43.0537 36.1609C42.9845 36.0286 42.9147 35.8966 42.8449 35.7646C42.8309 35.7383 42.817 35.7119 42.8026 35.6848C42.6807 35.4553 42.5536 35.2289 42.4246 35.0033C42.18 34.5749 41.949 34.1397 41.7192 33.7031C41.7054 33.677 41.6916 33.6509 41.6775 33.624C41.6506 33.5729 41.6238 33.5218 41.5969 33.4707C41.4956 33.278 41.3909 33.0873 41.2843 32.8974C41.2432 32.8147 41.2432 32.8147 41.2432 32.7346Z" fill="white"/>
<path d="M49.7959 32.7346C50.1915 32.7346 50.5872 32.7346 50.9948 32.7346C50.9948 34.2815 50.9948 35.8285 50.9948 37.4224C50.5992 37.4224 50.2035 37.4224 49.7959 37.4224C49.7959 35.8754 49.7959 34.3284 49.7959 32.7346Z" fill="white"/>
<path d="M72.3359 32.7346C72.7184 32.7346 73.1009 32.7346 73.4949 32.7346C73.4949 34.2815 73.4949 35.8285 73.4949 37.4224C73.1124 37.4224 72.73 37.4224 72.3359 37.4224C72.3359 35.8754 72.3359 34.3284 72.3359 32.7346Z" fill="white"/>
<path d="M79.8886 12.0602C80.0591 12.1989 80.1909 12.356 80.2179 12.5803C80.227 12.8512 80.1687 13.0472 79.9868 13.2513C79.7294 13.4911 79.4675 13.5637 79.1199 13.5549C78.9533 13.5365 78.804 13.4867 78.6497 13.4225C78.5727 13.0362 78.5897 12.6917 78.7946 12.3507C78.9398 12.1444 79.1056 12.0573 79.3455 11.9953C79.5355 11.9674 79.7088 11.9943 79.8886 12.0602Z" fill="white"/>
<path d="M87.1075 12.0497C87.1375 12.0499 87.1675 12.0501 87.1984 12.0503C87.3382 12.0523 87.469 12.0554 87.6021 12.0998C87.7524 12.3731 87.7772 12.7467 87.693 13.0436C87.6026 13.2683 87.4941 13.3983 87.273 13.5053C86.9506 13.613 86.5842 13.5699 86.2833 13.422C86.1798 13.3182 86.2024 13.0872 86.1934 12.9487C86.1978 12.696 86.2592 12.4619 86.4157 12.2626C86.6473 12.0843 86.8237 12.0418 87.1075 12.0497Z" fill="white"/>
<path d="M89.2554 36.2102C89.4021 36.3363 89.4918 36.4679 89.5202 36.661C89.5317 36.8649 89.5192 37.0326 89.4402 37.2219C89.2772 37.4011 89.1386 37.4941 88.8932 37.5149C88.7023 37.511 88.5521 37.4606 88.4011 37.3421C88.2483 37.1553 88.2174 36.9531 88.2286 36.7167C88.2558 36.5109 88.3248 36.3623 88.4786 36.2253C88.7268 36.0526 88.9916 36.0731 89.2554 36.2102Z" fill="white"/>
</g>
<defs>
<clipPath id="clip0_220_3366">
<rect width="90" height="48" fill="white"/>
</clipPath>
</defs>
</svg>
