<svg width="81" height="81" viewBox="0 0 81 81" fill="none" xmlns="http://www.w3.org/2000/svg">
<g clip-path="url(#clip0_222_2314)">
<path d="M60.3967 14.5903C66.9202 19.1951 73.933 22.6903 77.7383 28.4602C81.4894 34.2301 81.9786 42.2746 80.0759 49.376C78.1189 56.4773 73.7699 62.6355 68.6598 67.4068C63.5498 72.2335 57.733 75.6732 51.3182 77.8924C44.9035 80.1116 37.9451 81.0547 30.2256 80.6664C22.5061 80.2225 13.9169 78.4472 10.7095 72.8992C7.50212 67.3513 9.67662 58.0862 7.71957 48.9876C5.81689 39.889 -0.162976 30.9568 0.217561 22.8013C0.543735 14.7013 7.23031 7.32254 15.2216 3.3835C23.2129 -0.611023 32.5632 -1.2213 40.2283 1.44172C47.8934 4.04925 53.8733 9.93007 60.3967 14.5903Z" fill="#F9F6F3"/>
</g>
<path d="M42.167 51V59.3333C42.167 59.7754 42.3426 60.1993 42.6551 60.5118C42.9677 60.8244 43.3916 61 43.8337 61H54.0037C54.2245 61 54.4431 61.044 54.6468 61.1292C54.8506 61.2145 55.0353 61.3394 55.1903 61.4967L56.687 63.0133C56.9945 63.3251 57.1669 63.7454 57.167 64.1833V69.3333C57.167 69.7754 56.9914 70.1993 56.6788 70.5118C56.3663 70.8244 55.9424 71 55.5003 71H50.5003" stroke="#F5344F" stroke-width="2" stroke-linecap="round" stroke-linejoin="round"/>
<path d="M28.833 71H25.4997C25.0576 71 24.6337 70.8244 24.3212 70.5118C24.0086 70.1993 23.833 69.7754 23.833 69.3333V54.3333C23.833 53.4493 24.1842 52.6014 24.8093 51.9763C25.4344 51.3512 26.2823 51 27.1663 51H47.1663C48.9997 51 50.6663 52.3333 51.1663 54L53.1263 61" stroke="#F5344F" stroke-width="2" stroke-linecap="round" stroke-linejoin="round"/>
<path d="M35.5 71H43.8333" stroke="#F5344F" stroke-width="2" stroke-linecap="round" stroke-linejoin="round"/>
<path d="M47.1663 74.3346C49.0073 74.3346 50.4997 72.8423 50.4997 71.0013C50.4997 69.1604 49.0073 67.668 47.1663 67.668C45.3254 67.668 43.833 69.1604 43.833 71.0013C43.833 72.8423 45.3254 74.3346 47.1663 74.3346Z" stroke="#F5344F" stroke-width="2" stroke-linecap="round" stroke-linejoin="round"/>
<path d="M32.1663 74.3346C34.0073 74.3346 35.4997 72.8423 35.4997 71.0013C35.4997 69.1604 34.0073 67.668 32.1663 67.668C30.3254 67.668 28.833 69.1604 28.833 71.0013C28.833 72.8423 30.3254 74.3346 32.1663 74.3346Z" stroke="#F5344F" stroke-width="2" stroke-linecap="round" stroke-linejoin="round"/>
<defs>
<clipPath id="clip0_222_2314">
<rect width="81" height="81" fill="white"/>
</clipPath>
</defs>
</svg>
