<svg width="81" height="81" viewBox="0 0 81 81" fill="none" xmlns="http://www.w3.org/2000/svg">
<g clip-path="url(#clip0_222_2331)">
<path d="M60.3967 14.5903C66.9202 19.1951 73.933 22.6903 77.7383 28.4602C81.4894 34.2301 81.9786 42.2746 80.0759 49.376C78.1189 56.4773 73.7699 62.6355 68.6598 67.4068C63.5498 72.2335 57.733 75.6732 51.3182 77.8924C44.9035 80.1116 37.9451 81.0547 30.2256 80.6664C22.5061 80.2225 13.9169 78.4472 10.7095 72.8992C7.50212 67.3513 9.67662 58.0862 7.71957 48.9876C5.81689 39.889 -0.162976 30.9568 0.217561 22.8013C0.543735 14.7013 7.23031 7.32254 15.2216 3.3835C23.2129 -0.611023 32.5632 -1.2213 40.2283 1.44172C47.8934 4.04925 53.8733 9.93007 60.3967 14.5903Z" fill="#F9F6F3"/>
</g>
<path d="M35.4997 67.6654C41.943 67.6654 47.1663 62.442 47.1663 55.9987C47.1663 49.5554 41.943 44.332 35.4997 44.332C29.0564 44.332 23.833 49.5554 23.833 55.9987C23.833 62.442 29.0564 67.6654 35.4997 67.6654Z" stroke="#F5344F" stroke-width="2" stroke-linecap="round" stroke-linejoin="round"/>
<path d="M45.4997 77.6654C51.943 77.6654 57.1663 72.442 57.1663 65.9987C57.1663 59.5554 51.943 54.332 45.4997 54.332C39.0564 54.332 33.833 59.5554 33.833 65.9987C33.833 72.442 39.0564 77.6654 45.4997 77.6654Z" stroke="#F5344F" stroke-width="2" stroke-linecap="round" stroke-linejoin="round"/>
<defs>
<clipPath id="clip0_222_2331">
<rect width="81" height="81" fill="white"/>
</clipPath>
</defs>
</svg>
