<svg width="81" height="81" viewBox="0 0 81 81" fill="none" xmlns="http://www.w3.org/2000/svg">
<g clip-path="url(#clip0_222_2278)">
<path d="M60.3967 14.5903C66.9202 19.1951 73.933 22.6903 77.7383 28.4602C81.4894 34.2301 81.9786 42.2746 80.0759 49.376C78.1189 56.4773 73.7699 62.6355 68.6598 67.4068C63.5498 72.2335 57.733 75.6732 51.3182 77.8924C44.9035 80.1116 37.9451 81.0547 30.2256 80.6664C22.5061 80.2225 13.9169 78.4472 10.7095 72.8992C7.50212 67.3513 9.67662 58.0862 7.71957 48.9876C5.81689 39.889 -0.162976 30.9568 0.217561 22.8013C0.543735 14.7013 7.23031 7.32254 15.2216 3.3835C23.2129 -0.611023 32.5632 -1.2213 40.2283 1.44172C47.8934 4.04925 53.8733 9.93007 60.3967 14.5903Z" fill="#F9F6F3"/>
</g>
<path d="M38.8614 45.6907C38.9328 45.3084 39.1357 44.9631 39.4349 44.7146C39.7341 44.4661 40.1108 44.3301 40.4998 44.3301C40.8887 44.3301 41.2654 44.4661 41.5646 44.7146C41.8638 44.9631 42.0667 45.3084 42.1381 45.6907L43.8898 54.9541C44.0142 55.6126 44.3342 56.2184 44.8081 56.6924C45.2821 57.1663 45.8878 57.4863 46.5464 57.6107L55.8098 59.3624C56.1921 59.4338 56.5374 59.6367 56.7859 59.9359C57.0344 60.2351 57.1704 60.6118 57.1704 61.0007C57.1704 61.3897 57.0344 61.7664 56.7859 62.0656C56.5374 62.3648 56.1921 62.5677 55.8098 62.6391L46.5464 64.3907C45.8878 64.5151 45.2821 64.8352 44.8081 65.3091C44.3342 65.783 44.0142 66.3888 43.8898 67.0474L42.1381 76.3107C42.0667 76.6931 41.8638 77.0384 41.5646 77.2869C41.2654 77.5354 40.8887 77.6714 40.4998 77.6714C40.1108 77.6714 39.7341 77.5354 39.4349 77.2869C39.1357 77.0384 38.9328 76.6931 38.8614 76.3107L37.1098 67.0474C36.9853 66.3888 36.6653 65.783 36.1914 65.3091C35.7175 64.8352 35.1117 64.5151 34.4531 64.3907L25.1898 62.6391C24.8074 62.5677 24.4621 62.3648 24.2136 62.0656C23.9651 61.7664 23.8291 61.3897 23.8291 61.0007C23.8291 60.6118 23.9651 60.2351 24.2136 59.9359C24.4621 59.6367 24.8074 59.4338 25.1898 59.3624L34.4531 57.6107C35.1117 57.4863 35.7175 57.1663 36.1914 56.6924C36.6653 56.2184 36.9853 55.6126 37.1098 54.9541L38.8614 45.6907Z" stroke="#F5344F" stroke-width="2" stroke-linecap="round" stroke-linejoin="round"/>
<path d="M53.833 44.332V50.9987" stroke="#F5344F" stroke-width="2" stroke-linecap="round" stroke-linejoin="round"/>
<path d="M57.1667 47.668H50.5" stroke="#F5344F" stroke-width="2" stroke-linecap="round" stroke-linejoin="round"/>
<path d="M27.1663 77.6667C29.0073 77.6667 30.4997 76.1743 30.4997 74.3333C30.4997 72.4924 29.0073 71 27.1663 71C25.3254 71 23.833 72.4924 23.833 74.3333C23.833 76.1743 25.3254 77.6667 27.1663 77.6667Z" stroke="#F5344F" stroke-width="2" stroke-linecap="round" stroke-linejoin="round"/>
<defs>
<clipPath id="clip0_222_2278">
<rect width="81" height="81" fill="white"/>
</clipPath>
</defs>
</svg>
